<?xml version="1.0" standalone="no"?><!DOCTYPE svg PUBLIC "-//W3C//DTD SVG 1.1//EN" "http://www.w3.org/Graphics/SVG/1.1/DTD/svg11.dtd"><svg t="1607001556830" class="icon" viewBox="0 0 1024 1024" version="1.1" xmlns="http://www.w3.org/2000/svg" p-id="3565" xmlns:xlink="http://www.w3.org/1999/xlink" width="200" height="200"><defs><style type="text/css"></style></defs><path d="M934.9 210.7c-11.2 0-20.4-9.1-20.4-20.4s9.1-20.4 20.4-20.4h0.8v-53.2c0-10.9-8.8-19.7-19.7-19.7H119c-10.9 0-19.7 8.8-19.7 19.7V170c10.9 0.4 19.6 9.3 19.6 20.3s-8.7 19.9-19.6 20.3v703.1c0 10.9 8.8 19.7 19.7 19.7h797c10.9 0 19.7-8.8 19.7-19.7V210.6c-0.3 0-0.5 0.1-0.8 0.1zM390.2 120c0-1.7 1.3-3 3-3h30.1c1.7 0 3 1.3 3 3v4.8c0 1.7-1.3 3-3 3h-30.1c-1.7 0-3-1.3-3-3V120z m-166.2-0.2c0-1.6 1.3-2.8 2.8-2.8h131.6c1.6 0 2.8 1.3 2.8 2.8v4.6c0 1.6-1.3 2.8-2.8 2.8H226.9c-1.6 0-2.8-1.3-2.8-2.8v-4.6z m664.7 573.4c0 6-4.9 10.8-10.8 10.8-4.5 0-8.2 3.7-8.2 8.2v136.9c0 10.1-8.2 18.3-18.3 18.3H183.7c-10.1 0-18.3-8.2-18.3-18.3V712.2c0-4.5-3.7-8.2-8.2-8.2-6 0-10.8-4.9-10.8-10.8V337.4c0-6 4.9-10.8 10.8-10.8 4.5 0 8.2-3.7 8.2-8.2v-137c0-10.1 8.2-18.3 18.3-18.3h667.7c10.1 0 18.3 8.2 18.3 18.3v136.9c0 4.5 3.7 8.2 8.2 8.2 6 0 10.8 4.9 10.8 10.8v355.9z" fill="#1296db" p-id="3566"></path><path d="M488.5 431.9h41.6v84.8h-41.6z" fill="#1296db" p-id="3567"></path><path d="M846.3 344.7c-4.1 0-7.5-3.3-7.5-7.5V213.6c0-9.1-7.5-16.5-16.7-16.5H212.9c-9.2 0-16.7 7.4-16.7 16.5v123.6c0 4.1-3.3 7.5-7.5 7.5-5.5 0-9.9 4.4-9.9 9.8V676c0 5.4 4.4 9.8 9.9 9.8 4.1 0 7.5 3.3 7.5 7.5v123.6c0 9.1 7.5 16.5 16.7 16.5h609.2c9.2 0 16.7-7.4 16.7-16.5V693.3c0-4.1 3.3-7.5 7.5-7.5 5.5 0 9.9-4.4 9.9-9.8V354.5c0-5.4-4.4-9.8-9.9-9.8z m-429.2 130h-17v-42.8h-42.3v160.5h42.3v-46.8h17v48.3c0 4-1.3 7.2-3.9 9.7-2.6 2.5-5.9 3.8-9.9 3.8h-49c-4 0-7.2-1.3-9.7-3.8-2.5-2.5-3.8-5.8-3.8-9.7V430.4c0-4 1.3-7.2 3.8-9.7 2.5-2.5 5.8-3.8 9.7-3.8h49c4 0 7.3 1.3 9.9 3.8 2.6 2.5 3.9 5.8 3.9 9.7v44.3z m130 43.4c0 4-1.3 7.2-3.8 9.8-2.6 2.6-5.8 3.8-9.8 3.8h-44.9v75.6h-16.9V416.9h61.8c4 0 7.2 1.3 9.8 3.8 2.6 2.5 3.8 5.8 3.8 9.7v87.7z m130.6 75.7c0 4-1.3 7.2-3.8 9.7-2.6 2.5-5.8 3.8-9.8 3.8h-51.8c-4 0-7.2-1.3-9.7-3.8-2.5-2.5-3.8-5.8-3.8-9.7V416.9h16.9v175.5h45.1V416.9h16.9v176.9z" fill="#1296db" p-id="3568"></path></svg>