%TF.GenerationSoftware,KiCad,Pcbnew,(5.1.8)-1*%
%TF.CreationDate,2020-11-25T19:35:11+08:00*%
%TF.ProjectId,The_Girls'Gift,5468655f-4769-4726-9c73-27476966742e,V0.8 Beta*%
%TF.SameCoordinates,Original*%
%TF.FileFunction,Plated,1,2,PTH,Mixed*%
%TF.FilePolarity,Positive*%
%FSLAX46Y46*%
G04 Gerber Fmt 4.6, Leading zero omitted, Abs format (unit mm)*
G04 Created by KiCad (PCBNEW (5.1.8)-1) date 2020-11-25 19:35:11*
%MOMM*%
%LPD*%
G01*
G04 APERTURE LIST*
%TA.AperFunction,ViaDrill*%
%ADD10C,0.300000*%
%TD*%
%TA.AperFunction,ViaDrill*%
%ADD11C,0.400000*%
%TD*%
G04 aperture for slot hole*
%TA.AperFunction,ComponentDrill*%
%ADD12C,0.600000*%
%TD*%
%TA.AperFunction,ComponentDrill*%
%ADD13C,0.850000*%
%TD*%
G04 APERTURE END LIST*
D10*
X157025000Y-75975000D03*
X157900000Y-79100000D03*
X157900000Y-80100000D03*
X158900000Y-79100000D03*
X158900000Y-80100000D03*
X159575000Y-82825000D03*
X160300000Y-80400000D03*
X163400000Y-77970000D03*
X164075000Y-83800000D03*
X164400000Y-78600000D03*
X165425010Y-79828784D03*
X165800000Y-76000000D03*
X165800000Y-77300000D03*
X169200000Y-74700000D03*
X169600000Y-84000000D03*
X170300000Y-86900000D03*
X175100000Y-80700000D03*
X177000000Y-79900000D03*
X199025000Y-75975000D03*
X199900000Y-79100000D03*
X199900000Y-80100000D03*
X200900000Y-79100000D03*
X200900000Y-80100000D03*
X201575000Y-82825000D03*
X202300000Y-80400000D03*
X205400000Y-77970000D03*
X206075000Y-83800000D03*
X206400000Y-78600000D03*
X207425010Y-79828784D03*
X207800000Y-76000000D03*
X207800000Y-77300000D03*
X211200000Y-74700000D03*
X211600000Y-84000000D03*
X212300000Y-86900000D03*
X217100000Y-80700000D03*
X219000000Y-79900000D03*
D11*
X152400000Y-78600000D03*
X154700000Y-91100000D03*
X157600000Y-93400000D03*
X159240501Y-91659499D03*
X164299994Y-92600000D03*
X164399990Y-94300000D03*
X164400000Y-96000000D03*
X170387057Y-83118645D03*
X194400000Y-78600000D03*
X196700000Y-91100000D03*
X199600000Y-93400000D03*
X201240501Y-91659499D03*
X206299994Y-92600000D03*
X206399990Y-94300000D03*
X206400000Y-96000000D03*
X212387057Y-83118645D03*
D12*
%TO.C,J1*%
X183150000Y-76400000D02*
X182450000Y-76400000D01*
X182450000Y-83400000D02*
X183150000Y-83400000D01*
X225150000Y-76400000D02*
X224450000Y-76400000D01*
X224450000Y-83400000D02*
X225150000Y-83400000D01*
D13*
X180100000Y-77400000D03*
X180100000Y-82400000D03*
X222100000Y-77400000D03*
X222100000Y-82400000D03*
M02*
