%FSLAX45Y45*%
G04 Gerber Fmt 4.5, Leading zero omitted, Abs format (unit mm)*
G04 Created by KiCad (PCBNEW (5.1.8)-1) date 2020-11-26 18:41:46*
%MOMM*%
%LPD*%
G01*
G04 APERTURE LIST*
%TA.AperFunction,Profile*%
%ADD10C,0.050000*%
%TD*%
%ADD11C,0.200000*%
%ADD12C,0.300000*%
G04 APERTURE END LIST*
D10*
X18500000Y-7500000D02*
X18500000Y-8500000D01*
X16500000Y-10000000D02*
X18500000Y-8500000D01*
X14500000Y-8500000D02*
X16500000Y-10000000D01*
X14500000Y-8000000D02*
X14500000Y-8500000D01*
X14500000Y-7500000D02*
X15000000Y-7000000D01*
X14500000Y-8000000D02*
X14500000Y-7500000D01*
X18000000Y-7000000D02*
X18500000Y-7500000D01*
X17000000Y-7000000D02*
X18000000Y-7000000D01*
X16500000Y-7500000D02*
X17000000Y-7000000D01*
X16000000Y-7000000D02*
X16500000Y-7500000D01*
X15000000Y-7000000D02*
X16000000Y-7000000D01*
D11*
X15687500Y-7582500D02*
X15717500Y-7612500D01*
X15717500Y-7582500D02*
X15687500Y-7612500D01*
X15775000Y-7895000D02*
X15805000Y-7925000D01*
X15805000Y-7895000D02*
X15775000Y-7925000D01*
X15775000Y-7995000D02*
X15805000Y-8025000D01*
X15805000Y-7995000D02*
X15775000Y-8025000D01*
X15875000Y-7895000D02*
X15905000Y-7925000D01*
X15905000Y-7895000D02*
X15875000Y-7925000D01*
X15875000Y-7995000D02*
X15905000Y-8025000D01*
X15905000Y-7995000D02*
X15875000Y-8025000D01*
X15942500Y-8267500D02*
X15972500Y-8297500D01*
X15972500Y-8267500D02*
X15942500Y-8297500D01*
X16015000Y-8025000D02*
X16045000Y-8055000D01*
X16045000Y-8025000D02*
X16015000Y-8055000D01*
X16325000Y-7782000D02*
X16355000Y-7812000D01*
X16355000Y-7782000D02*
X16325000Y-7812000D01*
X16392500Y-8365000D02*
X16422500Y-8395000D01*
X16422500Y-8365000D02*
X16392500Y-8395000D01*
X16425000Y-7845000D02*
X16455000Y-7875000D01*
X16455000Y-7845000D02*
X16425000Y-7875000D01*
X16527501Y-7967878D02*
X16557501Y-7997878D01*
X16557501Y-7967878D02*
X16527501Y-7997878D01*
X16565000Y-7585000D02*
X16595000Y-7615000D01*
X16595000Y-7585000D02*
X16565000Y-7615000D01*
X16565000Y-7715000D02*
X16595000Y-7745000D01*
X16595000Y-7715000D02*
X16565000Y-7745000D01*
X16905000Y-7455000D02*
X16935000Y-7485000D01*
X16935000Y-7455000D02*
X16905000Y-7485000D01*
X16945000Y-8385000D02*
X16975000Y-8415000D01*
X16975000Y-8385000D02*
X16945000Y-8415000D01*
X17015000Y-8675000D02*
X17045000Y-8705000D01*
X17045000Y-8675000D02*
X17015000Y-8705000D01*
X17495000Y-8055000D02*
X17525000Y-8085000D01*
X17525000Y-8055000D02*
X17495000Y-8085000D01*
X17685000Y-7975000D02*
X17715000Y-8005000D01*
X17715000Y-7975000D02*
X17685000Y-8005000D01*
X15260000Y-7860000D02*
G75*
G03*
X15260000Y-7860000I-20000J0D01*
G01*
X15490000Y-9110000D02*
G75*
G03*
X15490000Y-9110000I-20000J0D01*
G01*
X15780000Y-9340000D02*
G75*
G03*
X15780000Y-9340000I-20000J0D01*
G01*
X15944050Y-9165950D02*
G75*
G03*
X15944050Y-9165950I-20000J0D01*
G01*
X16449999Y-9260000D02*
G75*
G03*
X16449999Y-9260000I-20000J0D01*
G01*
X16459999Y-9430000D02*
G75*
G03*
X16459999Y-9430000I-20000J0D01*
G01*
X16460000Y-9600000D02*
G75*
G03*
X16460000Y-9600000I-20000J0D01*
G01*
X17058706Y-8311864D02*
G75*
G03*
X17058706Y-8311864I-20000J0D01*
G01*
X18280000Y-7610000D02*
X18280000Y-7670000D01*
X18250000Y-7640000D02*
X18310000Y-7640000D01*
X18245000Y-7660000D02*
X18315000Y-7660000D01*
X18245000Y-7620000D02*
X18315000Y-7620000D01*
X18315000Y-7660000D02*
G75*
G03*
X18315000Y-7620000I0J20000D01*
G01*
X18245000Y-7620000D02*
G75*
G03*
X18245000Y-7660000I0J-20000D01*
G01*
X18280000Y-8310000D02*
X18280000Y-8370000D01*
X18250000Y-8340000D02*
X18310000Y-8340000D01*
X18315000Y-8320000D02*
X18245000Y-8320000D01*
X18315000Y-8360000D02*
X18245000Y-8360000D01*
X18245000Y-8320000D02*
G75*
G03*
X18245000Y-8360000I0J-20000D01*
G01*
X18315000Y-8360000D02*
G75*
G03*
X18315000Y-8320000I0J20000D01*
G01*
X18040052Y-7770052D02*
X18040052Y-7709948D01*
X17979948Y-7709948D01*
X17979948Y-7770052D01*
X18040052Y-7770052D01*
X18040052Y-8270052D02*
X18040052Y-8209948D01*
X17979948Y-8209948D01*
X17979948Y-8270052D01*
X18040052Y-8270052D01*
D12*
X14783928Y-10468214D02*
X14783928Y-10168214D01*
X14855357Y-10168214D01*
X14898214Y-10182500D01*
X14926786Y-10211072D01*
X14941071Y-10239643D01*
X14955357Y-10296786D01*
X14955357Y-10339643D01*
X14941071Y-10396786D01*
X14926786Y-10425357D01*
X14898214Y-10453929D01*
X14855357Y-10468214D01*
X14783928Y-10468214D01*
X15083928Y-10468214D02*
X15083928Y-10268214D01*
X15083928Y-10325357D02*
X15098214Y-10296786D01*
X15112500Y-10282500D01*
X15141071Y-10268214D01*
X15169643Y-10268214D01*
X15269643Y-10468214D02*
X15269643Y-10268214D01*
X15269643Y-10168214D02*
X15255357Y-10182500D01*
X15269643Y-10196786D01*
X15283928Y-10182500D01*
X15269643Y-10168214D01*
X15269643Y-10196786D01*
X15455357Y-10468214D02*
X15426786Y-10453929D01*
X15412500Y-10425357D01*
X15412500Y-10168214D01*
X15612500Y-10468214D02*
X15583928Y-10453929D01*
X15569643Y-10425357D01*
X15569643Y-10168214D01*
X15955357Y-10468214D02*
X15955357Y-10168214D01*
X16055357Y-10382500D01*
X16155357Y-10168214D01*
X16155357Y-10468214D01*
X16426786Y-10468214D02*
X16426786Y-10311072D01*
X16412500Y-10282500D01*
X16383928Y-10268214D01*
X16326786Y-10268214D01*
X16298214Y-10282500D01*
X16426786Y-10453929D02*
X16398214Y-10468214D01*
X16326786Y-10468214D01*
X16298214Y-10453929D01*
X16283928Y-10425357D01*
X16283928Y-10396786D01*
X16298214Y-10368214D01*
X16326786Y-10353929D01*
X16398214Y-10353929D01*
X16426786Y-10339643D01*
X16569643Y-10268214D02*
X16569643Y-10568214D01*
X16569643Y-10282500D02*
X16598214Y-10268214D01*
X16655357Y-10268214D01*
X16683928Y-10282500D01*
X16698214Y-10296786D01*
X16712500Y-10325357D01*
X16712500Y-10411072D01*
X16698214Y-10439643D01*
X16683928Y-10453929D01*
X16655357Y-10468214D01*
X16598214Y-10468214D01*
X16569643Y-10453929D01*
X16841071Y-10439643D02*
X16855357Y-10453929D01*
X16841071Y-10468214D01*
X16826786Y-10453929D01*
X16841071Y-10439643D01*
X16841071Y-10468214D01*
X16841071Y-10282500D02*
X16855357Y-10296786D01*
X16841071Y-10311072D01*
X16826786Y-10296786D01*
X16841071Y-10282500D01*
X16841071Y-10311072D01*
X14467500Y-10947500D02*
X14497500Y-10977500D01*
X14497500Y-10947500D02*
X14467500Y-10977500D01*
X14841071Y-10798214D02*
X14869643Y-10798214D01*
X14898214Y-10812500D01*
X14912500Y-10826786D01*
X14926786Y-10855357D01*
X14941071Y-10912500D01*
X14941071Y-10983929D01*
X14926786Y-11041072D01*
X14912500Y-11069643D01*
X14898214Y-11083929D01*
X14869643Y-11098214D01*
X14841071Y-11098214D01*
X14812500Y-11083929D01*
X14798214Y-11069643D01*
X14783928Y-11041072D01*
X14769643Y-10983929D01*
X14769643Y-10912500D01*
X14783928Y-10855357D01*
X14798214Y-10826786D01*
X14812500Y-10812500D01*
X14841071Y-10798214D01*
X15069643Y-11069643D02*
X15083928Y-11083929D01*
X15069643Y-11098214D01*
X15055357Y-11083929D01*
X15069643Y-11069643D01*
X15069643Y-11098214D01*
X15183928Y-10798214D02*
X15369643Y-10798214D01*
X15269643Y-10912500D01*
X15312500Y-10912500D01*
X15341071Y-10926786D01*
X15355357Y-10941072D01*
X15369643Y-10969643D01*
X15369643Y-11041072D01*
X15355357Y-11069643D01*
X15341071Y-11083929D01*
X15312500Y-11098214D01*
X15226786Y-11098214D01*
X15198214Y-11083929D01*
X15183928Y-11069643D01*
X15555357Y-10798214D02*
X15583928Y-10798214D01*
X15612500Y-10812500D01*
X15626786Y-10826786D01*
X15641071Y-10855357D01*
X15655357Y-10912500D01*
X15655357Y-10983929D01*
X15641071Y-11041072D01*
X15626786Y-11069643D01*
X15612500Y-11083929D01*
X15583928Y-11098214D01*
X15555357Y-11098214D01*
X15526786Y-11083929D01*
X15512500Y-11069643D01*
X15498214Y-11041072D01*
X15483928Y-10983929D01*
X15483928Y-10912500D01*
X15498214Y-10855357D01*
X15512500Y-10826786D01*
X15526786Y-10812500D01*
X15555357Y-10798214D01*
X15783928Y-11098214D02*
X15783928Y-10898214D01*
X15783928Y-10926786D02*
X15798214Y-10912500D01*
X15826786Y-10898214D01*
X15869643Y-10898214D01*
X15898214Y-10912500D01*
X15912500Y-10941072D01*
X15912500Y-11098214D01*
X15912500Y-10941072D02*
X15926786Y-10912500D01*
X15955357Y-10898214D01*
X15998214Y-10898214D01*
X16026786Y-10912500D01*
X16041071Y-10941072D01*
X16041071Y-11098214D01*
X16183928Y-11098214D02*
X16183928Y-10898214D01*
X16183928Y-10926786D02*
X16198214Y-10912500D01*
X16226786Y-10898214D01*
X16269643Y-10898214D01*
X16298214Y-10912500D01*
X16312500Y-10941072D01*
X16312500Y-11098214D01*
X16312500Y-10941072D02*
X16326786Y-10912500D01*
X16355357Y-10898214D01*
X16398214Y-10898214D01*
X16426786Y-10912500D01*
X16441071Y-10941072D01*
X16441071Y-11098214D01*
X17026786Y-10783929D02*
X16769643Y-11169643D01*
X17412500Y-10798214D02*
X17441071Y-10798214D01*
X17469643Y-10812500D01*
X17483928Y-10826786D01*
X17498214Y-10855357D01*
X17512500Y-10912500D01*
X17512500Y-10983929D01*
X17498214Y-11041072D01*
X17483928Y-11069643D01*
X17469643Y-11083929D01*
X17441071Y-11098214D01*
X17412500Y-11098214D01*
X17383928Y-11083929D01*
X17369643Y-11069643D01*
X17355357Y-11041072D01*
X17341071Y-10983929D01*
X17341071Y-10912500D01*
X17355357Y-10855357D01*
X17369643Y-10826786D01*
X17383928Y-10812500D01*
X17412500Y-10798214D01*
X17641071Y-11069643D02*
X17655357Y-11083929D01*
X17641071Y-11098214D01*
X17626786Y-11083929D01*
X17641071Y-11069643D01*
X17641071Y-11098214D01*
X17841071Y-10798214D02*
X17869643Y-10798214D01*
X17898214Y-10812500D01*
X17912500Y-10826786D01*
X17926786Y-10855357D01*
X17941071Y-10912500D01*
X17941071Y-10983929D01*
X17926786Y-11041072D01*
X17912500Y-11069643D01*
X17898214Y-11083929D01*
X17869643Y-11098214D01*
X17841071Y-11098214D01*
X17812500Y-11083929D01*
X17798214Y-11069643D01*
X17783928Y-11041072D01*
X17769643Y-10983929D01*
X17769643Y-10912500D01*
X17783928Y-10855357D01*
X17798214Y-10826786D01*
X17812500Y-10812500D01*
X17841071Y-10798214D01*
X18226786Y-11098214D02*
X18055357Y-11098214D01*
X18141071Y-11098214D02*
X18141071Y-10798214D01*
X18112500Y-10841072D01*
X18083928Y-10869643D01*
X18055357Y-10883929D01*
X18341071Y-10826786D02*
X18355357Y-10812500D01*
X18383928Y-10798214D01*
X18455357Y-10798214D01*
X18483928Y-10812500D01*
X18498214Y-10826786D01*
X18512500Y-10855357D01*
X18512500Y-10883929D01*
X18498214Y-10926786D01*
X18326786Y-11098214D01*
X18512500Y-11098214D01*
X18626786Y-10798214D02*
X18626786Y-10855357D01*
X18741071Y-10798214D02*
X18741071Y-10855357D01*
X19183928Y-11212500D02*
X19169643Y-11198214D01*
X19141071Y-11155357D01*
X19126786Y-11126786D01*
X19112500Y-11083929D01*
X19098214Y-11012500D01*
X19098214Y-10955357D01*
X19112500Y-10883929D01*
X19126786Y-10841072D01*
X19141071Y-10812500D01*
X19169643Y-10769643D01*
X19183928Y-10755357D01*
X19455357Y-11098214D02*
X19283928Y-11098214D01*
X19369643Y-11098214D02*
X19369643Y-10798214D01*
X19341071Y-10841072D01*
X19312500Y-10869643D01*
X19283928Y-10883929D01*
X19626786Y-10926786D02*
X19598214Y-10912500D01*
X19583928Y-10898214D01*
X19569643Y-10869643D01*
X19569643Y-10855357D01*
X19583928Y-10826786D01*
X19598214Y-10812500D01*
X19626786Y-10798214D01*
X19683928Y-10798214D01*
X19712500Y-10812500D01*
X19726786Y-10826786D01*
X19741071Y-10855357D01*
X19741071Y-10869643D01*
X19726786Y-10898214D01*
X19712500Y-10912500D01*
X19683928Y-10926786D01*
X19626786Y-10926786D01*
X19598214Y-10941072D01*
X19583928Y-10955357D01*
X19569643Y-10983929D01*
X19569643Y-11041072D01*
X19583928Y-11069643D01*
X19598214Y-11083929D01*
X19626786Y-11098214D01*
X19683928Y-11098214D01*
X19712500Y-11083929D01*
X19726786Y-11069643D01*
X19741071Y-11041072D01*
X19741071Y-10983929D01*
X19726786Y-10955357D01*
X19712500Y-10941072D01*
X19683928Y-10926786D01*
X20098214Y-11098214D02*
X20098214Y-10798214D01*
X20226786Y-11098214D02*
X20226786Y-10941072D01*
X20212500Y-10912500D01*
X20183928Y-10898214D01*
X20141071Y-10898214D01*
X20112500Y-10912500D01*
X20098214Y-10926786D01*
X20412500Y-11098214D02*
X20383928Y-11083929D01*
X20369643Y-11069643D01*
X20355357Y-11041072D01*
X20355357Y-10955357D01*
X20369643Y-10926786D01*
X20383928Y-10912500D01*
X20412500Y-10898214D01*
X20455357Y-10898214D01*
X20483928Y-10912500D01*
X20498214Y-10926786D01*
X20512500Y-10955357D01*
X20512500Y-11041072D01*
X20498214Y-11069643D01*
X20483928Y-11083929D01*
X20455357Y-11098214D01*
X20412500Y-11098214D01*
X20683928Y-11098214D02*
X20655357Y-11083929D01*
X20641071Y-11055357D01*
X20641071Y-10798214D01*
X20912500Y-11083929D02*
X20883928Y-11098214D01*
X20826786Y-11098214D01*
X20798214Y-11083929D01*
X20783928Y-11055357D01*
X20783928Y-10941072D01*
X20798214Y-10912500D01*
X20826786Y-10898214D01*
X20883928Y-10898214D01*
X20912500Y-10912500D01*
X20926786Y-10941072D01*
X20926786Y-10969643D01*
X20783928Y-10998214D01*
X21041071Y-11083929D02*
X21069643Y-11098214D01*
X21126786Y-11098214D01*
X21155357Y-11083929D01*
X21169643Y-11055357D01*
X21169643Y-11041072D01*
X21155357Y-11012500D01*
X21126786Y-10998214D01*
X21083928Y-10998214D01*
X21055357Y-10983929D01*
X21041071Y-10955357D01*
X21041071Y-10941072D01*
X21055357Y-10912500D01*
X21083928Y-10898214D01*
X21126786Y-10898214D01*
X21155357Y-10912500D01*
X21269643Y-11212500D02*
X21283928Y-11198214D01*
X21312500Y-11155357D01*
X21326786Y-11126786D01*
X21341071Y-11083929D01*
X21355357Y-11012500D01*
X21355357Y-10955357D01*
X21341071Y-10883929D01*
X21326786Y-10841072D01*
X21312500Y-10812500D01*
X21283928Y-10769643D01*
X21269643Y-10755357D01*
X14497500Y-11358500D02*
G75*
G03*
X14497500Y-11358500I-20000J0D01*
G01*
X14841071Y-11194214D02*
X14869643Y-11194214D01*
X14898214Y-11208500D01*
X14912500Y-11222786D01*
X14926786Y-11251357D01*
X14941071Y-11308500D01*
X14941071Y-11379929D01*
X14926786Y-11437071D01*
X14912500Y-11465643D01*
X14898214Y-11479929D01*
X14869643Y-11494214D01*
X14841071Y-11494214D01*
X14812500Y-11479929D01*
X14798214Y-11465643D01*
X14783928Y-11437071D01*
X14769643Y-11379929D01*
X14769643Y-11308500D01*
X14783928Y-11251357D01*
X14798214Y-11222786D01*
X14812500Y-11208500D01*
X14841071Y-11194214D01*
X15069643Y-11465643D02*
X15083928Y-11479929D01*
X15069643Y-11494214D01*
X15055357Y-11479929D01*
X15069643Y-11465643D01*
X15069643Y-11494214D01*
X15341071Y-11294214D02*
X15341071Y-11494214D01*
X15269643Y-11179929D02*
X15198214Y-11394214D01*
X15383928Y-11394214D01*
X15555357Y-11194214D02*
X15583928Y-11194214D01*
X15612500Y-11208500D01*
X15626786Y-11222786D01*
X15641071Y-11251357D01*
X15655357Y-11308500D01*
X15655357Y-11379929D01*
X15641071Y-11437071D01*
X15626786Y-11465643D01*
X15612500Y-11479929D01*
X15583928Y-11494214D01*
X15555357Y-11494214D01*
X15526786Y-11479929D01*
X15512500Y-11465643D01*
X15498214Y-11437071D01*
X15483928Y-11379929D01*
X15483928Y-11308500D01*
X15498214Y-11251357D01*
X15512500Y-11222786D01*
X15526786Y-11208500D01*
X15555357Y-11194214D01*
X15783928Y-11494214D02*
X15783928Y-11294214D01*
X15783928Y-11322786D02*
X15798214Y-11308500D01*
X15826786Y-11294214D01*
X15869643Y-11294214D01*
X15898214Y-11308500D01*
X15912500Y-11337071D01*
X15912500Y-11494214D01*
X15912500Y-11337071D02*
X15926786Y-11308500D01*
X15955357Y-11294214D01*
X15998214Y-11294214D01*
X16026786Y-11308500D01*
X16041071Y-11337071D01*
X16041071Y-11494214D01*
X16183928Y-11494214D02*
X16183928Y-11294214D01*
X16183928Y-11322786D02*
X16198214Y-11308500D01*
X16226786Y-11294214D01*
X16269643Y-11294214D01*
X16298214Y-11308500D01*
X16312500Y-11337071D01*
X16312500Y-11494214D01*
X16312500Y-11337071D02*
X16326786Y-11308500D01*
X16355357Y-11294214D01*
X16398214Y-11294214D01*
X16426786Y-11308500D01*
X16441071Y-11337071D01*
X16441071Y-11494214D01*
X17026786Y-11179929D02*
X16769643Y-11565643D01*
X17412500Y-11194214D02*
X17441071Y-11194214D01*
X17469643Y-11208500D01*
X17483928Y-11222786D01*
X17498214Y-11251357D01*
X17512500Y-11308500D01*
X17512500Y-11379929D01*
X17498214Y-11437071D01*
X17483928Y-11465643D01*
X17469643Y-11479929D01*
X17441071Y-11494214D01*
X17412500Y-11494214D01*
X17383928Y-11479929D01*
X17369643Y-11465643D01*
X17355357Y-11437071D01*
X17341071Y-11379929D01*
X17341071Y-11308500D01*
X17355357Y-11251357D01*
X17369643Y-11222786D01*
X17383928Y-11208500D01*
X17412500Y-11194214D01*
X17641071Y-11465643D02*
X17655357Y-11479929D01*
X17641071Y-11494214D01*
X17626786Y-11479929D01*
X17641071Y-11465643D01*
X17641071Y-11494214D01*
X17841071Y-11194214D02*
X17869643Y-11194214D01*
X17898214Y-11208500D01*
X17912500Y-11222786D01*
X17926786Y-11251357D01*
X17941071Y-11308500D01*
X17941071Y-11379929D01*
X17926786Y-11437071D01*
X17912500Y-11465643D01*
X17898214Y-11479929D01*
X17869643Y-11494214D01*
X17841071Y-11494214D01*
X17812500Y-11479929D01*
X17798214Y-11465643D01*
X17783928Y-11437071D01*
X17769643Y-11379929D01*
X17769643Y-11308500D01*
X17783928Y-11251357D01*
X17798214Y-11222786D01*
X17812500Y-11208500D01*
X17841071Y-11194214D01*
X18226786Y-11494214D02*
X18055357Y-11494214D01*
X18141071Y-11494214D02*
X18141071Y-11194214D01*
X18112500Y-11237071D01*
X18083928Y-11265643D01*
X18055357Y-11279929D01*
X18483928Y-11194214D02*
X18426786Y-11194214D01*
X18398214Y-11208500D01*
X18383928Y-11222786D01*
X18355357Y-11265643D01*
X18341071Y-11322786D01*
X18341071Y-11437071D01*
X18355357Y-11465643D01*
X18369643Y-11479929D01*
X18398214Y-11494214D01*
X18455357Y-11494214D01*
X18483928Y-11479929D01*
X18498214Y-11465643D01*
X18512500Y-11437071D01*
X18512500Y-11365643D01*
X18498214Y-11337071D01*
X18483928Y-11322786D01*
X18455357Y-11308500D01*
X18398214Y-11308500D01*
X18369643Y-11322786D01*
X18355357Y-11337071D01*
X18341071Y-11365643D01*
X18626786Y-11194214D02*
X18626786Y-11251357D01*
X18741071Y-11194214D02*
X18741071Y-11251357D01*
X19183928Y-11608500D02*
X19169643Y-11594214D01*
X19141071Y-11551357D01*
X19126786Y-11522786D01*
X19112500Y-11479929D01*
X19098214Y-11408500D01*
X19098214Y-11351357D01*
X19112500Y-11279929D01*
X19126786Y-11237071D01*
X19141071Y-11208500D01*
X19169643Y-11165643D01*
X19183928Y-11151357D01*
X19341071Y-11322786D02*
X19312500Y-11308500D01*
X19298214Y-11294214D01*
X19283928Y-11265643D01*
X19283928Y-11251357D01*
X19298214Y-11222786D01*
X19312500Y-11208500D01*
X19341071Y-11194214D01*
X19398214Y-11194214D01*
X19426786Y-11208500D01*
X19441071Y-11222786D01*
X19455357Y-11251357D01*
X19455357Y-11265643D01*
X19441071Y-11294214D01*
X19426786Y-11308500D01*
X19398214Y-11322786D01*
X19341071Y-11322786D01*
X19312500Y-11337071D01*
X19298214Y-11351357D01*
X19283928Y-11379929D01*
X19283928Y-11437071D01*
X19298214Y-11465643D01*
X19312500Y-11479929D01*
X19341071Y-11494214D01*
X19398214Y-11494214D01*
X19426786Y-11479929D01*
X19441071Y-11465643D01*
X19455357Y-11437071D01*
X19455357Y-11379929D01*
X19441071Y-11351357D01*
X19426786Y-11337071D01*
X19398214Y-11322786D01*
X19812500Y-11494214D02*
X19812500Y-11194214D01*
X19941071Y-11494214D02*
X19941071Y-11337071D01*
X19926786Y-11308500D01*
X19898214Y-11294214D01*
X19855357Y-11294214D01*
X19826786Y-11308500D01*
X19812500Y-11322786D01*
X20126786Y-11494214D02*
X20098214Y-11479929D01*
X20083928Y-11465643D01*
X20069643Y-11437071D01*
X20069643Y-11351357D01*
X20083928Y-11322786D01*
X20098214Y-11308500D01*
X20126786Y-11294214D01*
X20169643Y-11294214D01*
X20198214Y-11308500D01*
X20212500Y-11322786D01*
X20226786Y-11351357D01*
X20226786Y-11437071D01*
X20212500Y-11465643D01*
X20198214Y-11479929D01*
X20169643Y-11494214D01*
X20126786Y-11494214D01*
X20398214Y-11494214D02*
X20369643Y-11479929D01*
X20355357Y-11451357D01*
X20355357Y-11194214D01*
X20626786Y-11479929D02*
X20598214Y-11494214D01*
X20541071Y-11494214D01*
X20512500Y-11479929D01*
X20498214Y-11451357D01*
X20498214Y-11337071D01*
X20512500Y-11308500D01*
X20541071Y-11294214D01*
X20598214Y-11294214D01*
X20626786Y-11308500D01*
X20641071Y-11337071D01*
X20641071Y-11365643D01*
X20498214Y-11394214D01*
X20755357Y-11479929D02*
X20783928Y-11494214D01*
X20841071Y-11494214D01*
X20869643Y-11479929D01*
X20883928Y-11451357D01*
X20883928Y-11437071D01*
X20869643Y-11408500D01*
X20841071Y-11394214D01*
X20798214Y-11394214D01*
X20769643Y-11379929D01*
X20755357Y-11351357D01*
X20755357Y-11337071D01*
X20769643Y-11308500D01*
X20798214Y-11294214D01*
X20841071Y-11294214D01*
X20869643Y-11308500D01*
X20983928Y-11608500D02*
X20998214Y-11594214D01*
X21026786Y-11551357D01*
X21041071Y-11522786D01*
X21055357Y-11479929D01*
X21069643Y-11408500D01*
X21069643Y-11351357D01*
X21055357Y-11279929D01*
X21041071Y-11237071D01*
X21026786Y-11208500D01*
X20998214Y-11165643D01*
X20983928Y-11151357D01*
X14467500Y-11724500D02*
X14467500Y-11784500D01*
X14437500Y-11754500D02*
X14497500Y-11754500D01*
X14841071Y-11590214D02*
X14869643Y-11590214D01*
X14898214Y-11604500D01*
X14912500Y-11618786D01*
X14926786Y-11647357D01*
X14941071Y-11704500D01*
X14941071Y-11775929D01*
X14926786Y-11833071D01*
X14912500Y-11861643D01*
X14898214Y-11875929D01*
X14869643Y-11890214D01*
X14841071Y-11890214D01*
X14812500Y-11875929D01*
X14798214Y-11861643D01*
X14783928Y-11833071D01*
X14769643Y-11775929D01*
X14769643Y-11704500D01*
X14783928Y-11647357D01*
X14798214Y-11618786D01*
X14812500Y-11604500D01*
X14841071Y-11590214D01*
X15069643Y-11861643D02*
X15083928Y-11875929D01*
X15069643Y-11890214D01*
X15055357Y-11875929D01*
X15069643Y-11861643D01*
X15069643Y-11890214D01*
X15341071Y-11590214D02*
X15283928Y-11590214D01*
X15255357Y-11604500D01*
X15241071Y-11618786D01*
X15212500Y-11661643D01*
X15198214Y-11718786D01*
X15198214Y-11833071D01*
X15212500Y-11861643D01*
X15226786Y-11875929D01*
X15255357Y-11890214D01*
X15312500Y-11890214D01*
X15341071Y-11875929D01*
X15355357Y-11861643D01*
X15369643Y-11833071D01*
X15369643Y-11761643D01*
X15355357Y-11733071D01*
X15341071Y-11718786D01*
X15312500Y-11704500D01*
X15255357Y-11704500D01*
X15226786Y-11718786D01*
X15212500Y-11733071D01*
X15198214Y-11761643D01*
X15555357Y-11590214D02*
X15583928Y-11590214D01*
X15612500Y-11604500D01*
X15626786Y-11618786D01*
X15641071Y-11647357D01*
X15655357Y-11704500D01*
X15655357Y-11775929D01*
X15641071Y-11833071D01*
X15626786Y-11861643D01*
X15612500Y-11875929D01*
X15583928Y-11890214D01*
X15555357Y-11890214D01*
X15526786Y-11875929D01*
X15512500Y-11861643D01*
X15498214Y-11833071D01*
X15483928Y-11775929D01*
X15483928Y-11704500D01*
X15498214Y-11647357D01*
X15512500Y-11618786D01*
X15526786Y-11604500D01*
X15555357Y-11590214D01*
X15783928Y-11890214D02*
X15783928Y-11690214D01*
X15783928Y-11718786D02*
X15798214Y-11704500D01*
X15826786Y-11690214D01*
X15869643Y-11690214D01*
X15898214Y-11704500D01*
X15912500Y-11733071D01*
X15912500Y-11890214D01*
X15912500Y-11733071D02*
X15926786Y-11704500D01*
X15955357Y-11690214D01*
X15998214Y-11690214D01*
X16026786Y-11704500D01*
X16041071Y-11733071D01*
X16041071Y-11890214D01*
X16183928Y-11890214D02*
X16183928Y-11690214D01*
X16183928Y-11718786D02*
X16198214Y-11704500D01*
X16226786Y-11690214D01*
X16269643Y-11690214D01*
X16298214Y-11704500D01*
X16312500Y-11733071D01*
X16312500Y-11890214D01*
X16312500Y-11733071D02*
X16326786Y-11704500D01*
X16355357Y-11690214D01*
X16398214Y-11690214D01*
X16426786Y-11704500D01*
X16441071Y-11733071D01*
X16441071Y-11890214D01*
X17026786Y-11575929D02*
X16769643Y-11961643D01*
X17412500Y-11590214D02*
X17441071Y-11590214D01*
X17469643Y-11604500D01*
X17483928Y-11618786D01*
X17498214Y-11647357D01*
X17512500Y-11704500D01*
X17512500Y-11775929D01*
X17498214Y-11833071D01*
X17483928Y-11861643D01*
X17469643Y-11875929D01*
X17441071Y-11890214D01*
X17412500Y-11890214D01*
X17383928Y-11875929D01*
X17369643Y-11861643D01*
X17355357Y-11833071D01*
X17341071Y-11775929D01*
X17341071Y-11704500D01*
X17355357Y-11647357D01*
X17369643Y-11618786D01*
X17383928Y-11604500D01*
X17412500Y-11590214D01*
X17641071Y-11861643D02*
X17655357Y-11875929D01*
X17641071Y-11890214D01*
X17626786Y-11875929D01*
X17641071Y-11861643D01*
X17641071Y-11890214D01*
X17841071Y-11590214D02*
X17869643Y-11590214D01*
X17898214Y-11604500D01*
X17912500Y-11618786D01*
X17926786Y-11647357D01*
X17941071Y-11704500D01*
X17941071Y-11775929D01*
X17926786Y-11833071D01*
X17912500Y-11861643D01*
X17898214Y-11875929D01*
X17869643Y-11890214D01*
X17841071Y-11890214D01*
X17812500Y-11875929D01*
X17798214Y-11861643D01*
X17783928Y-11833071D01*
X17769643Y-11775929D01*
X17769643Y-11704500D01*
X17783928Y-11647357D01*
X17798214Y-11618786D01*
X17812500Y-11604500D01*
X17841071Y-11590214D01*
X18055357Y-11618786D02*
X18069643Y-11604500D01*
X18098214Y-11590214D01*
X18169643Y-11590214D01*
X18198214Y-11604500D01*
X18212500Y-11618786D01*
X18226786Y-11647357D01*
X18226786Y-11675929D01*
X18212500Y-11718786D01*
X18041071Y-11890214D01*
X18226786Y-11890214D01*
X18483928Y-11690214D02*
X18483928Y-11890214D01*
X18412500Y-11575929D02*
X18341071Y-11790214D01*
X18526786Y-11790214D01*
X18626786Y-11590214D02*
X18626786Y-11647357D01*
X18741071Y-11590214D02*
X18741071Y-11647357D01*
X19183928Y-12004500D02*
X19169643Y-11990214D01*
X19141071Y-11947357D01*
X19126786Y-11918786D01*
X19112500Y-11875929D01*
X19098214Y-11804500D01*
X19098214Y-11747357D01*
X19112500Y-11675929D01*
X19126786Y-11633071D01*
X19141071Y-11604500D01*
X19169643Y-11561643D01*
X19183928Y-11547357D01*
X19355357Y-11590214D02*
X19383928Y-11590214D01*
X19412500Y-11604500D01*
X19426786Y-11618786D01*
X19441071Y-11647357D01*
X19455357Y-11704500D01*
X19455357Y-11775929D01*
X19441071Y-11833071D01*
X19426786Y-11861643D01*
X19412500Y-11875929D01*
X19383928Y-11890214D01*
X19355357Y-11890214D01*
X19326786Y-11875929D01*
X19312500Y-11861643D01*
X19298214Y-11833071D01*
X19283928Y-11775929D01*
X19283928Y-11704500D01*
X19298214Y-11647357D01*
X19312500Y-11618786D01*
X19326786Y-11604500D01*
X19355357Y-11590214D01*
X19812500Y-11890214D02*
X19812500Y-11590214D01*
X19941071Y-11890214D02*
X19941071Y-11733071D01*
X19926786Y-11704500D01*
X19898214Y-11690214D01*
X19855357Y-11690214D01*
X19826786Y-11704500D01*
X19812500Y-11718786D01*
X20126786Y-11890214D02*
X20098214Y-11875929D01*
X20083928Y-11861643D01*
X20069643Y-11833071D01*
X20069643Y-11747357D01*
X20083928Y-11718786D01*
X20098214Y-11704500D01*
X20126786Y-11690214D01*
X20169643Y-11690214D01*
X20198214Y-11704500D01*
X20212500Y-11718786D01*
X20226786Y-11747357D01*
X20226786Y-11833071D01*
X20212500Y-11861643D01*
X20198214Y-11875929D01*
X20169643Y-11890214D01*
X20126786Y-11890214D01*
X20398214Y-11890214D02*
X20369643Y-11875929D01*
X20355357Y-11847357D01*
X20355357Y-11590214D01*
X20626786Y-11875929D02*
X20598214Y-11890214D01*
X20541071Y-11890214D01*
X20512500Y-11875929D01*
X20498214Y-11847357D01*
X20498214Y-11733071D01*
X20512500Y-11704500D01*
X20541071Y-11690214D01*
X20598214Y-11690214D01*
X20626786Y-11704500D01*
X20641071Y-11733071D01*
X20641071Y-11761643D01*
X20498214Y-11790214D01*
X20755357Y-11875929D02*
X20783928Y-11890214D01*
X20841071Y-11890214D01*
X20869643Y-11875929D01*
X20883928Y-11847357D01*
X20883928Y-11833071D01*
X20869643Y-11804500D01*
X20841071Y-11790214D01*
X20798214Y-11790214D01*
X20769643Y-11775929D01*
X20755357Y-11747357D01*
X20755357Y-11733071D01*
X20769643Y-11704500D01*
X20798214Y-11690214D01*
X20841071Y-11690214D01*
X20869643Y-11704500D01*
X21241071Y-11775929D02*
X21469643Y-11775929D01*
X21355357Y-11890214D02*
X21355357Y-11661643D01*
X21826786Y-11618786D02*
X21841071Y-11604500D01*
X21869643Y-11590214D01*
X21941071Y-11590214D01*
X21969643Y-11604500D01*
X21983928Y-11618786D01*
X21998214Y-11647357D01*
X21998214Y-11675929D01*
X21983928Y-11718786D01*
X21812500Y-11890214D01*
X21998214Y-11890214D01*
X22341071Y-11875929D02*
X22369643Y-11890214D01*
X22426786Y-11890214D01*
X22455357Y-11875929D01*
X22469643Y-11847357D01*
X22469643Y-11833071D01*
X22455357Y-11804500D01*
X22426786Y-11790214D01*
X22383928Y-11790214D01*
X22355357Y-11775929D01*
X22341071Y-11747357D01*
X22341071Y-11733071D01*
X22355357Y-11704500D01*
X22383928Y-11690214D01*
X22426786Y-11690214D01*
X22455357Y-11704500D01*
X22641071Y-11890214D02*
X22612500Y-11875929D01*
X22598214Y-11847357D01*
X22598214Y-11590214D01*
X22798214Y-11890214D02*
X22769643Y-11875929D01*
X22755357Y-11861643D01*
X22741071Y-11833071D01*
X22741071Y-11747357D01*
X22755357Y-11718786D01*
X22769643Y-11704500D01*
X22798214Y-11690214D01*
X22841071Y-11690214D01*
X22869643Y-11704500D01*
X22883928Y-11718786D01*
X22898214Y-11747357D01*
X22898214Y-11833071D01*
X22883928Y-11861643D01*
X22869643Y-11875929D01*
X22841071Y-11890214D01*
X22798214Y-11890214D01*
X22983928Y-11690214D02*
X23098214Y-11690214D01*
X23026786Y-11590214D02*
X23026786Y-11847357D01*
X23041071Y-11875929D01*
X23069643Y-11890214D01*
X23098214Y-11890214D01*
X23183928Y-11875929D02*
X23212500Y-11890214D01*
X23269643Y-11890214D01*
X23298214Y-11875929D01*
X23312500Y-11847357D01*
X23312500Y-11833071D01*
X23298214Y-11804500D01*
X23269643Y-11790214D01*
X23226786Y-11790214D01*
X23198214Y-11775929D01*
X23183928Y-11747357D01*
X23183928Y-11733071D01*
X23198214Y-11704500D01*
X23226786Y-11690214D01*
X23269643Y-11690214D01*
X23298214Y-11704500D01*
X23412500Y-12004500D02*
X23426786Y-11990214D01*
X23455357Y-11947357D01*
X23469643Y-11918786D01*
X23483928Y-11875929D01*
X23498214Y-11804500D01*
X23498214Y-11747357D01*
X23483928Y-11675929D01*
X23469643Y-11633071D01*
X23455357Y-11604500D01*
X23426786Y-11561643D01*
X23412500Y-11547357D01*
X14485052Y-12180552D02*
X14485052Y-12120448D01*
X14424948Y-12120448D01*
X14424948Y-12180552D01*
X14485052Y-12180552D01*
X14841071Y-11986214D02*
X14869643Y-11986214D01*
X14898214Y-12000500D01*
X14912500Y-12014786D01*
X14926786Y-12043357D01*
X14941071Y-12100500D01*
X14941071Y-12171929D01*
X14926786Y-12229071D01*
X14912500Y-12257643D01*
X14898214Y-12271929D01*
X14869643Y-12286214D01*
X14841071Y-12286214D01*
X14812500Y-12271929D01*
X14798214Y-12257643D01*
X14783928Y-12229071D01*
X14769643Y-12171929D01*
X14769643Y-12100500D01*
X14783928Y-12043357D01*
X14798214Y-12014786D01*
X14812500Y-12000500D01*
X14841071Y-11986214D01*
X15069643Y-12257643D02*
X15083928Y-12271929D01*
X15069643Y-12286214D01*
X15055357Y-12271929D01*
X15069643Y-12257643D01*
X15069643Y-12286214D01*
X15255357Y-12114786D02*
X15226786Y-12100500D01*
X15212500Y-12086214D01*
X15198214Y-12057643D01*
X15198214Y-12043357D01*
X15212500Y-12014786D01*
X15226786Y-12000500D01*
X15255357Y-11986214D01*
X15312500Y-11986214D01*
X15341071Y-12000500D01*
X15355357Y-12014786D01*
X15369643Y-12043357D01*
X15369643Y-12057643D01*
X15355357Y-12086214D01*
X15341071Y-12100500D01*
X15312500Y-12114786D01*
X15255357Y-12114786D01*
X15226786Y-12129071D01*
X15212500Y-12143357D01*
X15198214Y-12171929D01*
X15198214Y-12229071D01*
X15212500Y-12257643D01*
X15226786Y-12271929D01*
X15255357Y-12286214D01*
X15312500Y-12286214D01*
X15341071Y-12271929D01*
X15355357Y-12257643D01*
X15369643Y-12229071D01*
X15369643Y-12171929D01*
X15355357Y-12143357D01*
X15341071Y-12129071D01*
X15312500Y-12114786D01*
X15641071Y-11986214D02*
X15498214Y-11986214D01*
X15483928Y-12129071D01*
X15498214Y-12114786D01*
X15526786Y-12100500D01*
X15598214Y-12100500D01*
X15626786Y-12114786D01*
X15641071Y-12129071D01*
X15655357Y-12157643D01*
X15655357Y-12229071D01*
X15641071Y-12257643D01*
X15626786Y-12271929D01*
X15598214Y-12286214D01*
X15526786Y-12286214D01*
X15498214Y-12271929D01*
X15483928Y-12257643D01*
X15783928Y-12286214D02*
X15783928Y-12086214D01*
X15783928Y-12114786D02*
X15798214Y-12100500D01*
X15826786Y-12086214D01*
X15869643Y-12086214D01*
X15898214Y-12100500D01*
X15912500Y-12129071D01*
X15912500Y-12286214D01*
X15912500Y-12129071D02*
X15926786Y-12100500D01*
X15955357Y-12086214D01*
X15998214Y-12086214D01*
X16026786Y-12100500D01*
X16041071Y-12129071D01*
X16041071Y-12286214D01*
X16183928Y-12286214D02*
X16183928Y-12086214D01*
X16183928Y-12114786D02*
X16198214Y-12100500D01*
X16226786Y-12086214D01*
X16269643Y-12086214D01*
X16298214Y-12100500D01*
X16312500Y-12129071D01*
X16312500Y-12286214D01*
X16312500Y-12129071D02*
X16326786Y-12100500D01*
X16355357Y-12086214D01*
X16398214Y-12086214D01*
X16426786Y-12100500D01*
X16441071Y-12129071D01*
X16441071Y-12286214D01*
X17026786Y-11971929D02*
X16769643Y-12357643D01*
X17412500Y-11986214D02*
X17441071Y-11986214D01*
X17469643Y-12000500D01*
X17483928Y-12014786D01*
X17498214Y-12043357D01*
X17512500Y-12100500D01*
X17512500Y-12171929D01*
X17498214Y-12229071D01*
X17483928Y-12257643D01*
X17469643Y-12271929D01*
X17441071Y-12286214D01*
X17412500Y-12286214D01*
X17383928Y-12271929D01*
X17369643Y-12257643D01*
X17355357Y-12229071D01*
X17341071Y-12171929D01*
X17341071Y-12100500D01*
X17355357Y-12043357D01*
X17369643Y-12014786D01*
X17383928Y-12000500D01*
X17412500Y-11986214D01*
X17641071Y-12257643D02*
X17655357Y-12271929D01*
X17641071Y-12286214D01*
X17626786Y-12271929D01*
X17641071Y-12257643D01*
X17641071Y-12286214D01*
X17841071Y-11986214D02*
X17869643Y-11986214D01*
X17898214Y-12000500D01*
X17912500Y-12014786D01*
X17926786Y-12043357D01*
X17941071Y-12100500D01*
X17941071Y-12171929D01*
X17926786Y-12229071D01*
X17912500Y-12257643D01*
X17898214Y-12271929D01*
X17869643Y-12286214D01*
X17841071Y-12286214D01*
X17812500Y-12271929D01*
X17798214Y-12257643D01*
X17783928Y-12229071D01*
X17769643Y-12171929D01*
X17769643Y-12100500D01*
X17783928Y-12043357D01*
X17798214Y-12014786D01*
X17812500Y-12000500D01*
X17841071Y-11986214D01*
X18041071Y-11986214D02*
X18226786Y-11986214D01*
X18126786Y-12100500D01*
X18169643Y-12100500D01*
X18198214Y-12114786D01*
X18212500Y-12129071D01*
X18226786Y-12157643D01*
X18226786Y-12229071D01*
X18212500Y-12257643D01*
X18198214Y-12271929D01*
X18169643Y-12286214D01*
X18083928Y-12286214D01*
X18055357Y-12271929D01*
X18041071Y-12257643D01*
X18326786Y-11986214D02*
X18512500Y-11986214D01*
X18412500Y-12100500D01*
X18455357Y-12100500D01*
X18483928Y-12114786D01*
X18498214Y-12129071D01*
X18512500Y-12157643D01*
X18512500Y-12229071D01*
X18498214Y-12257643D01*
X18483928Y-12271929D01*
X18455357Y-12286214D01*
X18369643Y-12286214D01*
X18341071Y-12271929D01*
X18326786Y-12257643D01*
X18626786Y-11986214D02*
X18626786Y-12043357D01*
X18741071Y-11986214D02*
X18741071Y-12043357D01*
X19183928Y-12400500D02*
X19169643Y-12386214D01*
X19141071Y-12343357D01*
X19126786Y-12314786D01*
X19112500Y-12271929D01*
X19098214Y-12200500D01*
X19098214Y-12143357D01*
X19112500Y-12071929D01*
X19126786Y-12029071D01*
X19141071Y-12000500D01*
X19169643Y-11957643D01*
X19183928Y-11943357D01*
X19283928Y-12014786D02*
X19298214Y-12000500D01*
X19326786Y-11986214D01*
X19398214Y-11986214D01*
X19426786Y-12000500D01*
X19441071Y-12014786D01*
X19455357Y-12043357D01*
X19455357Y-12071929D01*
X19441071Y-12114786D01*
X19269643Y-12286214D01*
X19455357Y-12286214D01*
X19812500Y-12286214D02*
X19812500Y-11986214D01*
X19941071Y-12286214D02*
X19941071Y-12129071D01*
X19926786Y-12100500D01*
X19898214Y-12086214D01*
X19855357Y-12086214D01*
X19826786Y-12100500D01*
X19812500Y-12114786D01*
X20126786Y-12286214D02*
X20098214Y-12271929D01*
X20083928Y-12257643D01*
X20069643Y-12229071D01*
X20069643Y-12143357D01*
X20083928Y-12114786D01*
X20098214Y-12100500D01*
X20126786Y-12086214D01*
X20169643Y-12086214D01*
X20198214Y-12100500D01*
X20212500Y-12114786D01*
X20226786Y-12143357D01*
X20226786Y-12229071D01*
X20212500Y-12257643D01*
X20198214Y-12271929D01*
X20169643Y-12286214D01*
X20126786Y-12286214D01*
X20398214Y-12286214D02*
X20369643Y-12271929D01*
X20355357Y-12243357D01*
X20355357Y-11986214D01*
X20626786Y-12271929D02*
X20598214Y-12286214D01*
X20541071Y-12286214D01*
X20512500Y-12271929D01*
X20498214Y-12243357D01*
X20498214Y-12129071D01*
X20512500Y-12100500D01*
X20541071Y-12086214D01*
X20598214Y-12086214D01*
X20626786Y-12100500D01*
X20641071Y-12129071D01*
X20641071Y-12157643D01*
X20498214Y-12186214D01*
X20755357Y-12271929D02*
X20783928Y-12286214D01*
X20841071Y-12286214D01*
X20869643Y-12271929D01*
X20883928Y-12243357D01*
X20883928Y-12229071D01*
X20869643Y-12200500D01*
X20841071Y-12186214D01*
X20798214Y-12186214D01*
X20769643Y-12171929D01*
X20755357Y-12143357D01*
X20755357Y-12129071D01*
X20769643Y-12100500D01*
X20798214Y-12086214D01*
X20841071Y-12086214D01*
X20869643Y-12100500D01*
X20983928Y-12400500D02*
X20998214Y-12386214D01*
X21026786Y-12343357D01*
X21041071Y-12314786D01*
X21055357Y-12271929D01*
X21069643Y-12200500D01*
X21069643Y-12143357D01*
X21055357Y-12071929D01*
X21041071Y-12029071D01*
X21026786Y-12000500D01*
X20998214Y-11957643D01*
X20983928Y-11943357D01*
M02*
