%TF.GenerationSoftware,KiCad,Pcbnew,(5.1.8)-1*%
%TF.CreationDate,2020-11-26T18:41:41+08:00*%
%TF.ProjectId,The_Girls'Gift,5468655f-4769-4726-9c73-27476966742e,V0.8 Beta*%
%TF.SameCoordinates,Original*%
%TF.FileFunction,Soldermask,Bot*%
%TF.FilePolarity,Negative*%
%FSLAX46Y46*%
G04 Gerber Fmt 4.6, Leading zero omitted, Abs format (unit mm)*
G04 Created by KiCad (PCBNEW (5.1.8)-1) date 2020-11-26 18:41:41*
%MOMM*%
%LPD*%
G01*
G04 APERTURE LIST*
%ADD10C,1.500000*%
%ADD11O,1.900000X1.200000*%
%ADD12C,1.450000*%
%ADD13R,1.450000X0.450000*%
G04 APERTURE END LIST*
D10*
%TO.C,H1*%
X165000000Y-98200000D03*
%TD*%
D11*
%TO.C,J1*%
X182800000Y-76400000D03*
X182800000Y-83400000D03*
D12*
X180100000Y-77400000D03*
X180100000Y-82400000D03*
%TD*%
%TO.C,U5*%
G36*
G01*
X168550000Y-86745000D02*
X168550000Y-87045000D01*
G75*
G02*
X168400000Y-87195000I-150000J0D01*
G01*
X167050000Y-87195000D01*
G75*
G02*
X166900000Y-87045000I0J150000D01*
G01*
X166900000Y-86745000D01*
G75*
G02*
X167050000Y-86595000I150000J0D01*
G01*
X168400000Y-86595000D01*
G75*
G02*
X168550000Y-86745000I0J-150000D01*
G01*
G37*
G36*
G01*
X168550000Y-88015000D02*
X168550000Y-88315000D01*
G75*
G02*
X168400000Y-88465000I-150000J0D01*
G01*
X167050000Y-88465000D01*
G75*
G02*
X166900000Y-88315000I0J150000D01*
G01*
X166900000Y-88015000D01*
G75*
G02*
X167050000Y-87865000I150000J0D01*
G01*
X168400000Y-87865000D01*
G75*
G02*
X168550000Y-88015000I0J-150000D01*
G01*
G37*
G36*
G01*
X168550000Y-89285000D02*
X168550000Y-89585000D01*
G75*
G02*
X168400000Y-89735000I-150000J0D01*
G01*
X167050000Y-89735000D01*
G75*
G02*
X166900000Y-89585000I0J150000D01*
G01*
X166900000Y-89285000D01*
G75*
G02*
X167050000Y-89135000I150000J0D01*
G01*
X168400000Y-89135000D01*
G75*
G02*
X168550000Y-89285000I0J-150000D01*
G01*
G37*
G36*
G01*
X168550000Y-90555000D02*
X168550000Y-90855000D01*
G75*
G02*
X168400000Y-91005000I-150000J0D01*
G01*
X167050000Y-91005000D01*
G75*
G02*
X166900000Y-90855000I0J150000D01*
G01*
X166900000Y-90555000D01*
G75*
G02*
X167050000Y-90405000I150000J0D01*
G01*
X168400000Y-90405000D01*
G75*
G02*
X168550000Y-90555000I0J-150000D01*
G01*
G37*
G36*
G01*
X163300000Y-90555000D02*
X163300000Y-90855000D01*
G75*
G02*
X163150000Y-91005000I-150000J0D01*
G01*
X161800000Y-91005000D01*
G75*
G02*
X161650000Y-90855000I0J150000D01*
G01*
X161650000Y-90555000D01*
G75*
G02*
X161800000Y-90405000I150000J0D01*
G01*
X163150000Y-90405000D01*
G75*
G02*
X163300000Y-90555000I0J-150000D01*
G01*
G37*
G36*
G01*
X163300000Y-89285000D02*
X163300000Y-89585000D01*
G75*
G02*
X163150000Y-89735000I-150000J0D01*
G01*
X161800000Y-89735000D01*
G75*
G02*
X161650000Y-89585000I0J150000D01*
G01*
X161650000Y-89285000D01*
G75*
G02*
X161800000Y-89135000I150000J0D01*
G01*
X163150000Y-89135000D01*
G75*
G02*
X163300000Y-89285000I0J-150000D01*
G01*
G37*
G36*
G01*
X163300000Y-88015000D02*
X163300000Y-88315000D01*
G75*
G02*
X163150000Y-88465000I-150000J0D01*
G01*
X161800000Y-88465000D01*
G75*
G02*
X161650000Y-88315000I0J150000D01*
G01*
X161650000Y-88015000D01*
G75*
G02*
X161800000Y-87865000I150000J0D01*
G01*
X163150000Y-87865000D01*
G75*
G02*
X163300000Y-88015000I0J-150000D01*
G01*
G37*
G36*
G01*
X163300000Y-86745000D02*
X163300000Y-87045000D01*
G75*
G02*
X163150000Y-87195000I-150000J0D01*
G01*
X161800000Y-87195000D01*
G75*
G02*
X161650000Y-87045000I0J150000D01*
G01*
X161650000Y-86745000D01*
G75*
G02*
X161800000Y-86595000I150000J0D01*
G01*
X163150000Y-86595000D01*
G75*
G02*
X163300000Y-86745000I0J-150000D01*
G01*
G37*
%TD*%
D13*
%TO.C,U3*%
X162800000Y-85075000D03*
X162800000Y-84425000D03*
X162800000Y-83775000D03*
X162800000Y-83125000D03*
X167200000Y-83125000D03*
X167200000Y-83775000D03*
X167200000Y-84425000D03*
X167200000Y-85075000D03*
%TD*%
%TO.C,SW3*%
G36*
G01*
X173975000Y-81200000D02*
X174325000Y-81200000D01*
G75*
G02*
X174500000Y-81375000I0J-175000D01*
G01*
X174500000Y-82025000D01*
G75*
G02*
X174325000Y-82200000I-175000J0D01*
G01*
X173975000Y-82200000D01*
G75*
G02*
X173800000Y-82025000I0J175000D01*
G01*
X173800000Y-81375000D01*
G75*
G02*
X173975000Y-81200000I175000J0D01*
G01*
G37*
G36*
G01*
X173975000Y-75200000D02*
X174325000Y-75200000D01*
G75*
G02*
X174500000Y-75375000I0J-175000D01*
G01*
X174500000Y-76025000D01*
G75*
G02*
X174325000Y-76200000I-175000J0D01*
G01*
X173975000Y-76200000D01*
G75*
G02*
X173800000Y-76025000I0J175000D01*
G01*
X173800000Y-75375000D01*
G75*
G02*
X173975000Y-75200000I175000J0D01*
G01*
G37*
G36*
G01*
X170275000Y-75200000D02*
X170625000Y-75200000D01*
G75*
G02*
X170800000Y-75375000I0J-175000D01*
G01*
X170800000Y-76025000D01*
G75*
G02*
X170625000Y-76200000I-175000J0D01*
G01*
X170275000Y-76200000D01*
G75*
G02*
X170100000Y-76025000I0J175000D01*
G01*
X170100000Y-75375000D01*
G75*
G02*
X170275000Y-75200000I175000J0D01*
G01*
G37*
G36*
G01*
X170275000Y-81200000D02*
X170625000Y-81200000D01*
G75*
G02*
X170800000Y-81375000I0J-175000D01*
G01*
X170800000Y-82025000D01*
G75*
G02*
X170625000Y-82200000I-175000J0D01*
G01*
X170275000Y-82200000D01*
G75*
G02*
X170100000Y-82025000I0J175000D01*
G01*
X170100000Y-81375000D01*
G75*
G02*
X170275000Y-81200000I175000J0D01*
G01*
G37*
%TD*%
%TO.C,SW2*%
G36*
G01*
X159475000Y-81200000D02*
X159825000Y-81200000D01*
G75*
G02*
X160000000Y-81375000I0J-175000D01*
G01*
X160000000Y-82025000D01*
G75*
G02*
X159825000Y-82200000I-175000J0D01*
G01*
X159475000Y-82200000D01*
G75*
G02*
X159300000Y-82025000I0J175000D01*
G01*
X159300000Y-81375000D01*
G75*
G02*
X159475000Y-81200000I175000J0D01*
G01*
G37*
G36*
G01*
X159475000Y-75200000D02*
X159825000Y-75200000D01*
G75*
G02*
X160000000Y-75375000I0J-175000D01*
G01*
X160000000Y-76025000D01*
G75*
G02*
X159825000Y-76200000I-175000J0D01*
G01*
X159475000Y-76200000D01*
G75*
G02*
X159300000Y-76025000I0J175000D01*
G01*
X159300000Y-75375000D01*
G75*
G02*
X159475000Y-75200000I175000J0D01*
G01*
G37*
G36*
G01*
X155775000Y-75200000D02*
X156125000Y-75200000D01*
G75*
G02*
X156300000Y-75375000I0J-175000D01*
G01*
X156300000Y-76025000D01*
G75*
G02*
X156125000Y-76200000I-175000J0D01*
G01*
X155775000Y-76200000D01*
G75*
G02*
X155600000Y-76025000I0J175000D01*
G01*
X155600000Y-75375000D01*
G75*
G02*
X155775000Y-75200000I175000J0D01*
G01*
G37*
G36*
G01*
X155775000Y-81200000D02*
X156125000Y-81200000D01*
G75*
G02*
X156300000Y-81375000I0J-175000D01*
G01*
X156300000Y-82025000D01*
G75*
G02*
X156125000Y-82200000I-175000J0D01*
G01*
X155775000Y-82200000D01*
G75*
G02*
X155600000Y-82025000I0J175000D01*
G01*
X155600000Y-81375000D01*
G75*
G02*
X155775000Y-81200000I175000J0D01*
G01*
G37*
%TD*%
%TO.C,SW1*%
G36*
G01*
X166725000Y-81200000D02*
X167075000Y-81200000D01*
G75*
G02*
X167250000Y-81375000I0J-175000D01*
G01*
X167250000Y-82025000D01*
G75*
G02*
X167075000Y-82200000I-175000J0D01*
G01*
X166725000Y-82200000D01*
G75*
G02*
X166550000Y-82025000I0J175000D01*
G01*
X166550000Y-81375000D01*
G75*
G02*
X166725000Y-81200000I175000J0D01*
G01*
G37*
G36*
G01*
X166725000Y-75200000D02*
X167075000Y-75200000D01*
G75*
G02*
X167250000Y-75375000I0J-175000D01*
G01*
X167250000Y-76025000D01*
G75*
G02*
X167075000Y-76200000I-175000J0D01*
G01*
X166725000Y-76200000D01*
G75*
G02*
X166550000Y-76025000I0J175000D01*
G01*
X166550000Y-75375000D01*
G75*
G02*
X166725000Y-75200000I175000J0D01*
G01*
G37*
G36*
G01*
X163025000Y-75200000D02*
X163375000Y-75200000D01*
G75*
G02*
X163550000Y-75375000I0J-175000D01*
G01*
X163550000Y-76025000D01*
G75*
G02*
X163375000Y-76200000I-175000J0D01*
G01*
X163025000Y-76200000D01*
G75*
G02*
X162850000Y-76025000I0J175000D01*
G01*
X162850000Y-75375000D01*
G75*
G02*
X163025000Y-75200000I175000J0D01*
G01*
G37*
G36*
G01*
X163025000Y-81200000D02*
X163375000Y-81200000D01*
G75*
G02*
X163550000Y-81375000I0J-175000D01*
G01*
X163550000Y-82025000D01*
G75*
G02*
X163375000Y-82200000I-175000J0D01*
G01*
X163025000Y-82200000D01*
G75*
G02*
X162850000Y-82025000I0J175000D01*
G01*
X162850000Y-81375000D01*
G75*
G02*
X163025000Y-81200000I175000J0D01*
G01*
G37*
%TD*%
%TO.C,R8*%
G36*
G01*
X171075000Y-87175000D02*
X171075000Y-86625000D01*
G75*
G02*
X171275000Y-86425000I200000J0D01*
G01*
X171675000Y-86425000D01*
G75*
G02*
X171875000Y-86625000I0J-200000D01*
G01*
X171875000Y-87175000D01*
G75*
G02*
X171675000Y-87375000I-200000J0D01*
G01*
X171275000Y-87375000D01*
G75*
G02*
X171075000Y-87175000I0J200000D01*
G01*
G37*
G36*
G01*
X172725000Y-87175000D02*
X172725000Y-86625000D01*
G75*
G02*
X172925000Y-86425000I200000J0D01*
G01*
X173325000Y-86425000D01*
G75*
G02*
X173525000Y-86625000I0J-200000D01*
G01*
X173525000Y-87175000D01*
G75*
G02*
X173325000Y-87375000I-200000J0D01*
G01*
X172925000Y-87375000D01*
G75*
G02*
X172725000Y-87175000I0J200000D01*
G01*
G37*
%TD*%
%TO.C,R7*%
G36*
G01*
X160025000Y-89325000D02*
X160025000Y-89875000D01*
G75*
G02*
X159825000Y-90075000I-200000J0D01*
G01*
X159425000Y-90075000D01*
G75*
G02*
X159225000Y-89875000I0J200000D01*
G01*
X159225000Y-89325000D01*
G75*
G02*
X159425000Y-89125000I200000J0D01*
G01*
X159825000Y-89125000D01*
G75*
G02*
X160025000Y-89325000I0J-200000D01*
G01*
G37*
G36*
G01*
X158375000Y-89325000D02*
X158375000Y-89875000D01*
G75*
G02*
X158175000Y-90075000I-200000J0D01*
G01*
X157775000Y-90075000D01*
G75*
G02*
X157575000Y-89875000I0J200000D01*
G01*
X157575000Y-89325000D01*
G75*
G02*
X157775000Y-89125000I200000J0D01*
G01*
X158175000Y-89125000D01*
G75*
G02*
X158375000Y-89325000I0J-200000D01*
G01*
G37*
%TD*%
%TO.C,C10*%
G36*
G01*
X160025000Y-86650000D02*
X160025000Y-87150000D01*
G75*
G02*
X159800000Y-87375000I-225000J0D01*
G01*
X159350000Y-87375000D01*
G75*
G02*
X159125000Y-87150000I0J225000D01*
G01*
X159125000Y-86650000D01*
G75*
G02*
X159350000Y-86425000I225000J0D01*
G01*
X159800000Y-86425000D01*
G75*
G02*
X160025000Y-86650000I0J-225000D01*
G01*
G37*
G36*
G01*
X158475000Y-86650000D02*
X158475000Y-87150000D01*
G75*
G02*
X158250000Y-87375000I-225000J0D01*
G01*
X157800000Y-87375000D01*
G75*
G02*
X157575000Y-87150000I0J225000D01*
G01*
X157575000Y-86650000D01*
G75*
G02*
X157800000Y-86425000I225000J0D01*
G01*
X158250000Y-86425000D01*
G75*
G02*
X158475000Y-86650000I0J-225000D01*
G01*
G37*
%TD*%
%TO.C,C9*%
G36*
G01*
X171075000Y-84350000D02*
X171075000Y-83850000D01*
G75*
G02*
X171300000Y-83625000I225000J0D01*
G01*
X171750000Y-83625000D01*
G75*
G02*
X171975000Y-83850000I0J-225000D01*
G01*
X171975000Y-84350000D01*
G75*
G02*
X171750000Y-84575000I-225000J0D01*
G01*
X171300000Y-84575000D01*
G75*
G02*
X171075000Y-84350000I0J225000D01*
G01*
G37*
G36*
G01*
X172625000Y-84350000D02*
X172625000Y-83850000D01*
G75*
G02*
X172850000Y-83625000I225000J0D01*
G01*
X173300000Y-83625000D01*
G75*
G02*
X173525000Y-83850000I0J-225000D01*
G01*
X173525000Y-84350000D01*
G75*
G02*
X173300000Y-84575000I-225000J0D01*
G01*
X172850000Y-84575000D01*
G75*
G02*
X172625000Y-84350000I0J225000D01*
G01*
G37*
%TD*%
%TO.C,C8*%
G36*
G01*
X158025000Y-83750000D02*
X158025000Y-84250000D01*
G75*
G02*
X157800000Y-84475000I-225000J0D01*
G01*
X157350000Y-84475000D01*
G75*
G02*
X157125000Y-84250000I0J225000D01*
G01*
X157125000Y-83750000D01*
G75*
G02*
X157350000Y-83525000I225000J0D01*
G01*
X157800000Y-83525000D01*
G75*
G02*
X158025000Y-83750000I0J-225000D01*
G01*
G37*
G36*
G01*
X156475000Y-83750000D02*
X156475000Y-84250000D01*
G75*
G02*
X156250000Y-84475000I-225000J0D01*
G01*
X155800000Y-84475000D01*
G75*
G02*
X155575000Y-84250000I0J225000D01*
G01*
X155575000Y-83750000D01*
G75*
G02*
X155800000Y-83525000I225000J0D01*
G01*
X156250000Y-83525000D01*
G75*
G02*
X156475000Y-83750000I0J-225000D01*
G01*
G37*
%TD*%
M02*
