%TF.GenerationSoftware,KiCad,Pcbnew,(5.1.8)-1*%
%TF.CreationDate,2020-11-25T19:34:47+08:00*%
%TF.ProjectId,The_Girls'Gift,5468655f-4769-4726-9c73-27476966742e,V0.8 Beta*%
%TF.SameCoordinates,Original*%
%TF.FileFunction,Profile,NP*%
%FSLAX46Y46*%
G04 Gerber Fmt 4.6, Leading zero omitted, Abs format (unit mm)*
G04 Created by KiCad (PCBNEW (5.1.8)-1) date 2020-11-25 19:34:47*
%MOMM*%
%LPD*%
G01*
G04 APERTURE LIST*
%TA.AperFunction,Profile*%
%ADD10C,0.050000*%
%TD*%
G04 APERTURE END LIST*
D10*
X185000000Y-85000000D02*
G75*
G02*
X187000000Y-85000000I1000000J0D01*
G01*
X187000000Y-75000000D02*
G75*
G02*
X185000000Y-75000000I-1000000J0D01*
G01*
X207000000Y-75000000D02*
X212000000Y-70000000D01*
X222000000Y-70000000D02*
X227000000Y-75000000D01*
X202000000Y-70000000D02*
X207000000Y-75000000D01*
X192000000Y-70000000D02*
X202000000Y-70000000D01*
X207000000Y-100000000D02*
X227000000Y-85000000D01*
X187000000Y-75000000D02*
X192000000Y-70000000D01*
X212000000Y-70000000D02*
X222000000Y-70000000D01*
X227000000Y-85000000D02*
X227000000Y-80000000D01*
X227000000Y-75000000D02*
X227000000Y-80000000D01*
X187000000Y-85000000D02*
X207000000Y-100000000D01*
X165000000Y-100000000D02*
X185000000Y-85000000D01*
X145000000Y-85000000D02*
X165000000Y-100000000D01*
X145000000Y-80000000D02*
X145000000Y-85000000D01*
X145000000Y-75000000D02*
X150000000Y-70000000D01*
X145000000Y-80000000D02*
X145000000Y-75000000D01*
X180000000Y-70000000D02*
X185000000Y-75000000D01*
X170000000Y-70000000D02*
X180000000Y-70000000D01*
X165000000Y-75000000D02*
X170000000Y-70000000D01*
X160000000Y-70000000D02*
X165000000Y-75000000D01*
X150000000Y-70000000D02*
X160000000Y-70000000D01*
M02*
