%TF.GenerationSoftware,KiCad,Pcbnew,(5.1.8)-1*%
%TF.CreationDate,2020-11-25T19:34:47+08:00*%
%TF.ProjectId,The_Girls'Gift,5468655f-4769-4726-9c73-27476966742e,V0.8 Beta*%
%TF.SameCoordinates,Original*%
%TF.FileFunction,Paste,Top*%
%TF.FilePolarity,Positive*%
%FSLAX46Y46*%
G04 Gerber Fmt 4.6, Leading zero omitted, Abs format (unit mm)*
G04 Created by KiCad (PCBNEW (5.1.8)-1) date 2020-11-25 19:34:47*
%MOMM*%
%LPD*%
G01*
G04 APERTURE LIST*
%ADD10R,0.600000X0.450000*%
%ADD11R,0.900000X0.800000*%
%ADD12R,2.000000X1.100000*%
%ADD13R,1.300000X0.600000*%
%ADD14R,1.220000X0.650000*%
%ADD15R,1.900000X1.500000*%
%ADD16R,1.350000X0.400000*%
G04 APERTURE END LIST*
%TO.C,C2*%
G36*
G01*
X213175000Y-75050000D02*
X213175000Y-75550000D01*
G75*
G02*
X212950000Y-75775000I-225000J0D01*
G01*
X212500000Y-75775000D01*
G75*
G02*
X212275000Y-75550000I0J225000D01*
G01*
X212275000Y-75050000D01*
G75*
G02*
X212500000Y-74825000I225000J0D01*
G01*
X212950000Y-74825000D01*
G75*
G02*
X213175000Y-75050000I0J-225000D01*
G01*
G37*
G36*
G01*
X214725000Y-75050000D02*
X214725000Y-75550000D01*
G75*
G02*
X214500000Y-75775000I-225000J0D01*
G01*
X214050000Y-75775000D01*
G75*
G02*
X213825000Y-75550000I0J225000D01*
G01*
X213825000Y-75050000D01*
G75*
G02*
X214050000Y-74825000I225000J0D01*
G01*
X214500000Y-74825000D01*
G75*
G02*
X214725000Y-75050000I0J-225000D01*
G01*
G37*
%TD*%
%TO.C,C3*%
G36*
G01*
X219425000Y-82350000D02*
X219425000Y-81850000D01*
G75*
G02*
X219650000Y-81625000I225000J0D01*
G01*
X220100000Y-81625000D01*
G75*
G02*
X220325000Y-81850000I0J-225000D01*
G01*
X220325000Y-82350000D01*
G75*
G02*
X220100000Y-82575000I-225000J0D01*
G01*
X219650000Y-82575000D01*
G75*
G02*
X219425000Y-82350000I0J225000D01*
G01*
G37*
G36*
G01*
X217875000Y-82350000D02*
X217875000Y-81850000D01*
G75*
G02*
X218100000Y-81625000I225000J0D01*
G01*
X218550000Y-81625000D01*
G75*
G02*
X218775000Y-81850000I0J-225000D01*
G01*
X218775000Y-82350000D01*
G75*
G02*
X218550000Y-82575000I-225000J0D01*
G01*
X218100000Y-82575000D01*
G75*
G02*
X217875000Y-82350000I0J225000D01*
G01*
G37*
%TD*%
%TO.C,C4*%
G36*
G01*
X213825000Y-73850000D02*
X213825000Y-73350000D01*
G75*
G02*
X214050000Y-73125000I225000J0D01*
G01*
X214500000Y-73125000D01*
G75*
G02*
X214725000Y-73350000I0J-225000D01*
G01*
X214725000Y-73850000D01*
G75*
G02*
X214500000Y-74075000I-225000J0D01*
G01*
X214050000Y-74075000D01*
G75*
G02*
X213825000Y-73850000I0J225000D01*
G01*
G37*
G36*
G01*
X212275000Y-73850000D02*
X212275000Y-73350000D01*
G75*
G02*
X212500000Y-73125000I225000J0D01*
G01*
X212950000Y-73125000D01*
G75*
G02*
X213175000Y-73350000I0J-225000D01*
G01*
X213175000Y-73850000D01*
G75*
G02*
X212950000Y-74075000I-225000J0D01*
G01*
X212500000Y-74075000D01*
G75*
G02*
X212275000Y-73850000I0J225000D01*
G01*
G37*
%TD*%
%TO.C,C5*%
G36*
G01*
X199525000Y-84850000D02*
X199525000Y-84350000D01*
G75*
G02*
X199750000Y-84125000I225000J0D01*
G01*
X200200000Y-84125000D01*
G75*
G02*
X200425000Y-84350000I0J-225000D01*
G01*
X200425000Y-84850000D01*
G75*
G02*
X200200000Y-85075000I-225000J0D01*
G01*
X199750000Y-85075000D01*
G75*
G02*
X199525000Y-84850000I0J225000D01*
G01*
G37*
G36*
G01*
X197975000Y-84850000D02*
X197975000Y-84350000D01*
G75*
G02*
X198200000Y-84125000I225000J0D01*
G01*
X198650000Y-84125000D01*
G75*
G02*
X198875000Y-84350000I0J-225000D01*
G01*
X198875000Y-84850000D01*
G75*
G02*
X198650000Y-85075000I-225000J0D01*
G01*
X198200000Y-85075000D01*
G75*
G02*
X197975000Y-84850000I0J225000D01*
G01*
G37*
%TD*%
%TO.C,C6*%
G36*
G01*
X211450000Y-93825000D02*
X211950000Y-93825000D01*
G75*
G02*
X212175000Y-94050000I0J-225000D01*
G01*
X212175000Y-94500000D01*
G75*
G02*
X211950000Y-94725000I-225000J0D01*
G01*
X211450000Y-94725000D01*
G75*
G02*
X211225000Y-94500000I0J225000D01*
G01*
X211225000Y-94050000D01*
G75*
G02*
X211450000Y-93825000I225000J0D01*
G01*
G37*
G36*
G01*
X211450000Y-92275000D02*
X211950000Y-92275000D01*
G75*
G02*
X212175000Y-92500000I0J-225000D01*
G01*
X212175000Y-92950000D01*
G75*
G02*
X211950000Y-93175000I-225000J0D01*
G01*
X211450000Y-93175000D01*
G75*
G02*
X211225000Y-92950000I0J225000D01*
G01*
X211225000Y-92500000D01*
G75*
G02*
X211450000Y-92275000I225000J0D01*
G01*
G37*
%TD*%
%TO.C,C1*%
G36*
G01*
X213925000Y-81950000D02*
X213925000Y-81450000D01*
G75*
G02*
X214150000Y-81225000I225000J0D01*
G01*
X214600000Y-81225000D01*
G75*
G02*
X214825000Y-81450000I0J-225000D01*
G01*
X214825000Y-81950000D01*
G75*
G02*
X214600000Y-82175000I-225000J0D01*
G01*
X214150000Y-82175000D01*
G75*
G02*
X213925000Y-81950000I0J225000D01*
G01*
G37*
G36*
G01*
X212375000Y-81950000D02*
X212375000Y-81450000D01*
G75*
G02*
X212600000Y-81225000I225000J0D01*
G01*
X213050000Y-81225000D01*
G75*
G02*
X213275000Y-81450000I0J-225000D01*
G01*
X213275000Y-81950000D01*
G75*
G02*
X213050000Y-82175000I-225000J0D01*
G01*
X212600000Y-82175000D01*
G75*
G02*
X212375000Y-81950000I0J225000D01*
G01*
G37*
%TD*%
%TO.C,C7*%
G36*
G01*
X199475000Y-72950000D02*
X199475000Y-73450000D01*
G75*
G02*
X199250000Y-73675000I-225000J0D01*
G01*
X198800000Y-73675000D01*
G75*
G02*
X198575000Y-73450000I0J225000D01*
G01*
X198575000Y-72950000D01*
G75*
G02*
X198800000Y-72725000I225000J0D01*
G01*
X199250000Y-72725000D01*
G75*
G02*
X199475000Y-72950000I0J-225000D01*
G01*
G37*
G36*
G01*
X201025000Y-72950000D02*
X201025000Y-73450000D01*
G75*
G02*
X200800000Y-73675000I-225000J0D01*
G01*
X200350000Y-73675000D01*
G75*
G02*
X200125000Y-73450000I0J225000D01*
G01*
X200125000Y-72950000D01*
G75*
G02*
X200350000Y-72725000I225000J0D01*
G01*
X200800000Y-72725000D01*
G75*
G02*
X201025000Y-72950000I0J-225000D01*
G01*
G37*
%TD*%
%TO.C,BT1*%
G36*
G01*
X191700000Y-79300000D02*
X187700000Y-79300000D01*
G75*
G02*
X187200000Y-78800000I0J500000D01*
G01*
X187200000Y-77800000D01*
G75*
G02*
X187700000Y-77300000I500000J0D01*
G01*
X191700000Y-77300000D01*
G75*
G02*
X192200000Y-77800000I0J-500000D01*
G01*
X192200000Y-78800000D01*
G75*
G02*
X191700000Y-79300000I-500000J0D01*
G01*
G37*
G36*
G01*
X191700000Y-83300000D02*
X187700000Y-83300000D01*
G75*
G02*
X187200000Y-82800000I0J500000D01*
G01*
X187200000Y-81800000D01*
G75*
G02*
X187700000Y-81300000I500000J0D01*
G01*
X191700000Y-81300000D01*
G75*
G02*
X192200000Y-81800000I0J-500000D01*
G01*
X192200000Y-82800000D01*
G75*
G02*
X191700000Y-83300000I-500000J0D01*
G01*
G37*
%TD*%
%TO.C,R1*%
G36*
G01*
X195625000Y-77175000D02*
X195625000Y-76625000D01*
G75*
G02*
X195825000Y-76425000I200000J0D01*
G01*
X196225000Y-76425000D01*
G75*
G02*
X196425000Y-76625000I0J-200000D01*
G01*
X196425000Y-77175000D01*
G75*
G02*
X196225000Y-77375000I-200000J0D01*
G01*
X195825000Y-77375000D01*
G75*
G02*
X195625000Y-77175000I0J200000D01*
G01*
G37*
G36*
G01*
X193975000Y-77175000D02*
X193975000Y-76625000D01*
G75*
G02*
X194175000Y-76425000I200000J0D01*
G01*
X194575000Y-76425000D01*
G75*
G02*
X194775000Y-76625000I0J-200000D01*
G01*
X194775000Y-77175000D01*
G75*
G02*
X194575000Y-77375000I-200000J0D01*
G01*
X194175000Y-77375000D01*
G75*
G02*
X193975000Y-77175000I0J200000D01*
G01*
G37*
%TD*%
%TO.C,R4*%
G36*
G01*
X199625000Y-91975000D02*
X199625000Y-91425000D01*
G75*
G02*
X199825000Y-91225000I200000J0D01*
G01*
X200225000Y-91225000D01*
G75*
G02*
X200425000Y-91425000I0J-200000D01*
G01*
X200425000Y-91975000D01*
G75*
G02*
X200225000Y-92175000I-200000J0D01*
G01*
X199825000Y-92175000D01*
G75*
G02*
X199625000Y-91975000I0J200000D01*
G01*
G37*
G36*
G01*
X197975000Y-91975000D02*
X197975000Y-91425000D01*
G75*
G02*
X198175000Y-91225000I200000J0D01*
G01*
X198575000Y-91225000D01*
G75*
G02*
X198775000Y-91425000I0J-200000D01*
G01*
X198775000Y-91975000D01*
G75*
G02*
X198575000Y-92175000I-200000J0D01*
G01*
X198175000Y-92175000D01*
G75*
G02*
X197975000Y-91975000I0J200000D01*
G01*
G37*
%TD*%
%TO.C,R3*%
G36*
G01*
X198775000Y-89085000D02*
X198775000Y-89635000D01*
G75*
G02*
X198575000Y-89835000I-200000J0D01*
G01*
X198175000Y-89835000D01*
G75*
G02*
X197975000Y-89635000I0J200000D01*
G01*
X197975000Y-89085000D01*
G75*
G02*
X198175000Y-88885000I200000J0D01*
G01*
X198575000Y-88885000D01*
G75*
G02*
X198775000Y-89085000I0J-200000D01*
G01*
G37*
G36*
G01*
X200425000Y-89085000D02*
X200425000Y-89635000D01*
G75*
G02*
X200225000Y-89835000I-200000J0D01*
G01*
X199825000Y-89835000D01*
G75*
G02*
X199625000Y-89635000I0J200000D01*
G01*
X199625000Y-89085000D01*
G75*
G02*
X199825000Y-88885000I200000J0D01*
G01*
X200225000Y-88885000D01*
G75*
G02*
X200425000Y-89085000I0J-200000D01*
G01*
G37*
%TD*%
D10*
%TO.C,D1*%
X194450000Y-73200000D03*
X196550000Y-73200000D03*
%TD*%
D11*
%TO.C,U2*%
X214300000Y-78850000D03*
X214300000Y-76950000D03*
X212300000Y-77900000D03*
%TD*%
%TO.C,D2*%
G36*
G01*
X199550000Y-87236250D02*
X199550000Y-86723750D01*
G75*
G02*
X199768750Y-86505000I218750J0D01*
G01*
X200206250Y-86505000D01*
G75*
G02*
X200425000Y-86723750I0J-218750D01*
G01*
X200425000Y-87236250D01*
G75*
G02*
X200206250Y-87455000I-218750J0D01*
G01*
X199768750Y-87455000D01*
G75*
G02*
X199550000Y-87236250I0J218750D01*
G01*
G37*
G36*
G01*
X197975000Y-87236250D02*
X197975000Y-86723750D01*
G75*
G02*
X198193750Y-86505000I218750J0D01*
G01*
X198631250Y-86505000D01*
G75*
G02*
X198850000Y-86723750I0J-218750D01*
G01*
X198850000Y-87236250D01*
G75*
G02*
X198631250Y-87455000I-218750J0D01*
G01*
X198193750Y-87455000D01*
G75*
G02*
X197975000Y-87236250I0J218750D01*
G01*
G37*
%TD*%
D12*
%TO.C,D3*%
X209500000Y-92600000D03*
X209500000Y-94300000D03*
X209500000Y-96000000D03*
X204700000Y-96000000D03*
X204700000Y-94300000D03*
X204700000Y-92600000D03*
%TD*%
D13*
%TO.C,Q1*%
X194350000Y-80550000D03*
X194350000Y-82450000D03*
X196450000Y-81500000D03*
%TD*%
%TO.C,R2*%
G36*
G01*
X194875000Y-89125000D02*
X194875000Y-89675000D01*
G75*
G02*
X194675000Y-89875000I-200000J0D01*
G01*
X194275000Y-89875000D01*
G75*
G02*
X194075000Y-89675000I0J200000D01*
G01*
X194075000Y-89125000D01*
G75*
G02*
X194275000Y-88925000I200000J0D01*
G01*
X194675000Y-88925000D01*
G75*
G02*
X194875000Y-89125000I0J-200000D01*
G01*
G37*
G36*
G01*
X196525000Y-89125000D02*
X196525000Y-89675000D01*
G75*
G02*
X196325000Y-89875000I-200000J0D01*
G01*
X195925000Y-89875000D01*
G75*
G02*
X195725000Y-89675000I0J200000D01*
G01*
X195725000Y-89125000D01*
G75*
G02*
X195925000Y-88925000I200000J0D01*
G01*
X196325000Y-88925000D01*
G75*
G02*
X196525000Y-89125000I0J-200000D01*
G01*
G37*
%TD*%
%TO.C,U1*%
G36*
G01*
X209450000Y-76205000D02*
X209450000Y-75905000D01*
G75*
G02*
X209600000Y-75755000I150000J0D01*
G01*
X210900000Y-75755000D01*
G75*
G02*
X211050000Y-75905000I0J-150000D01*
G01*
X211050000Y-76205000D01*
G75*
G02*
X210900000Y-76355000I-150000J0D01*
G01*
X209600000Y-76355000D01*
G75*
G02*
X209450000Y-76205000I0J150000D01*
G01*
G37*
G36*
G01*
X209450000Y-77475000D02*
X209450000Y-77175000D01*
G75*
G02*
X209600000Y-77025000I150000J0D01*
G01*
X210900000Y-77025000D01*
G75*
G02*
X211050000Y-77175000I0J-150000D01*
G01*
X211050000Y-77475000D01*
G75*
G02*
X210900000Y-77625000I-150000J0D01*
G01*
X209600000Y-77625000D01*
G75*
G02*
X209450000Y-77475000I0J150000D01*
G01*
G37*
G36*
G01*
X209450000Y-78745000D02*
X209450000Y-78445000D01*
G75*
G02*
X209600000Y-78295000I150000J0D01*
G01*
X210900000Y-78295000D01*
G75*
G02*
X211050000Y-78445000I0J-150000D01*
G01*
X211050000Y-78745000D01*
G75*
G02*
X210900000Y-78895000I-150000J0D01*
G01*
X209600000Y-78895000D01*
G75*
G02*
X209450000Y-78745000I0J150000D01*
G01*
G37*
G36*
G01*
X209450000Y-80015000D02*
X209450000Y-79715000D01*
G75*
G02*
X209600000Y-79565000I150000J0D01*
G01*
X210900000Y-79565000D01*
G75*
G02*
X211050000Y-79715000I0J-150000D01*
G01*
X211050000Y-80015000D01*
G75*
G02*
X210900000Y-80165000I-150000J0D01*
G01*
X209600000Y-80165000D01*
G75*
G02*
X209450000Y-80015000I0J150000D01*
G01*
G37*
G36*
G01*
X209450000Y-81285000D02*
X209450000Y-80985000D01*
G75*
G02*
X209600000Y-80835000I150000J0D01*
G01*
X210900000Y-80835000D01*
G75*
G02*
X211050000Y-80985000I0J-150000D01*
G01*
X211050000Y-81285000D01*
G75*
G02*
X210900000Y-81435000I-150000J0D01*
G01*
X209600000Y-81435000D01*
G75*
G02*
X209450000Y-81285000I0J150000D01*
G01*
G37*
G36*
G01*
X209450000Y-82555000D02*
X209450000Y-82255000D01*
G75*
G02*
X209600000Y-82105000I150000J0D01*
G01*
X210900000Y-82105000D01*
G75*
G02*
X211050000Y-82255000I0J-150000D01*
G01*
X211050000Y-82555000D01*
G75*
G02*
X210900000Y-82705000I-150000J0D01*
G01*
X209600000Y-82705000D01*
G75*
G02*
X209450000Y-82555000I0J150000D01*
G01*
G37*
G36*
G01*
X209450000Y-83825000D02*
X209450000Y-83525000D01*
G75*
G02*
X209600000Y-83375000I150000J0D01*
G01*
X210900000Y-83375000D01*
G75*
G02*
X211050000Y-83525000I0J-150000D01*
G01*
X211050000Y-83825000D01*
G75*
G02*
X210900000Y-83975000I-150000J0D01*
G01*
X209600000Y-83975000D01*
G75*
G02*
X209450000Y-83825000I0J150000D01*
G01*
G37*
G36*
G01*
X209450000Y-85095000D02*
X209450000Y-84795000D01*
G75*
G02*
X209600000Y-84645000I150000J0D01*
G01*
X210900000Y-84645000D01*
G75*
G02*
X211050000Y-84795000I0J-150000D01*
G01*
X211050000Y-85095000D01*
G75*
G02*
X210900000Y-85245000I-150000J0D01*
G01*
X209600000Y-85245000D01*
G75*
G02*
X209450000Y-85095000I0J150000D01*
G01*
G37*
G36*
G01*
X202950000Y-85095000D02*
X202950000Y-84795000D01*
G75*
G02*
X203100000Y-84645000I150000J0D01*
G01*
X204400000Y-84645000D01*
G75*
G02*
X204550000Y-84795000I0J-150000D01*
G01*
X204550000Y-85095000D01*
G75*
G02*
X204400000Y-85245000I-150000J0D01*
G01*
X203100000Y-85245000D01*
G75*
G02*
X202950000Y-85095000I0J150000D01*
G01*
G37*
G36*
G01*
X202950000Y-83825000D02*
X202950000Y-83525000D01*
G75*
G02*
X203100000Y-83375000I150000J0D01*
G01*
X204400000Y-83375000D01*
G75*
G02*
X204550000Y-83525000I0J-150000D01*
G01*
X204550000Y-83825000D01*
G75*
G02*
X204400000Y-83975000I-150000J0D01*
G01*
X203100000Y-83975000D01*
G75*
G02*
X202950000Y-83825000I0J150000D01*
G01*
G37*
G36*
G01*
X202950000Y-82555000D02*
X202950000Y-82255000D01*
G75*
G02*
X203100000Y-82105000I150000J0D01*
G01*
X204400000Y-82105000D01*
G75*
G02*
X204550000Y-82255000I0J-150000D01*
G01*
X204550000Y-82555000D01*
G75*
G02*
X204400000Y-82705000I-150000J0D01*
G01*
X203100000Y-82705000D01*
G75*
G02*
X202950000Y-82555000I0J150000D01*
G01*
G37*
G36*
G01*
X202950000Y-81285000D02*
X202950000Y-80985000D01*
G75*
G02*
X203100000Y-80835000I150000J0D01*
G01*
X204400000Y-80835000D01*
G75*
G02*
X204550000Y-80985000I0J-150000D01*
G01*
X204550000Y-81285000D01*
G75*
G02*
X204400000Y-81435000I-150000J0D01*
G01*
X203100000Y-81435000D01*
G75*
G02*
X202950000Y-81285000I0J150000D01*
G01*
G37*
G36*
G01*
X202950000Y-80015000D02*
X202950000Y-79715000D01*
G75*
G02*
X203100000Y-79565000I150000J0D01*
G01*
X204400000Y-79565000D01*
G75*
G02*
X204550000Y-79715000I0J-150000D01*
G01*
X204550000Y-80015000D01*
G75*
G02*
X204400000Y-80165000I-150000J0D01*
G01*
X203100000Y-80165000D01*
G75*
G02*
X202950000Y-80015000I0J150000D01*
G01*
G37*
G36*
G01*
X202950000Y-78745000D02*
X202950000Y-78445000D01*
G75*
G02*
X203100000Y-78295000I150000J0D01*
G01*
X204400000Y-78295000D01*
G75*
G02*
X204550000Y-78445000I0J-150000D01*
G01*
X204550000Y-78745000D01*
G75*
G02*
X204400000Y-78895000I-150000J0D01*
G01*
X203100000Y-78895000D01*
G75*
G02*
X202950000Y-78745000I0J150000D01*
G01*
G37*
G36*
G01*
X202950000Y-77475000D02*
X202950000Y-77175000D01*
G75*
G02*
X203100000Y-77025000I150000J0D01*
G01*
X204400000Y-77025000D01*
G75*
G02*
X204550000Y-77175000I0J-150000D01*
G01*
X204550000Y-77475000D01*
G75*
G02*
X204400000Y-77625000I-150000J0D01*
G01*
X203100000Y-77625000D01*
G75*
G02*
X202950000Y-77475000I0J150000D01*
G01*
G37*
G36*
G01*
X202950000Y-76205000D02*
X202950000Y-75905000D01*
G75*
G02*
X203100000Y-75755000I150000J0D01*
G01*
X204400000Y-75755000D01*
G75*
G02*
X204550000Y-75905000I0J-150000D01*
G01*
X204550000Y-76205000D01*
G75*
G02*
X204400000Y-76355000I-150000J0D01*
G01*
X203100000Y-76355000D01*
G75*
G02*
X202950000Y-76205000I0J150000D01*
G01*
G37*
%TD*%
D14*
%TO.C,U4*%
X194090000Y-86650000D03*
X194090000Y-84750000D03*
X196710000Y-84750000D03*
X196710000Y-85700000D03*
X196710000Y-86650000D03*
%TD*%
D15*
%TO.C,J1*%
X224800000Y-78900000D03*
D16*
X222100000Y-80550000D03*
X222100000Y-81200000D03*
X222100000Y-78600000D03*
X222100000Y-79250000D03*
X222100000Y-79900000D03*
D15*
X224800000Y-80900000D03*
%TD*%
%TO.C,J1*%
X182800000Y-80900000D03*
D16*
X180100000Y-79900000D03*
X180100000Y-79250000D03*
X180100000Y-78600000D03*
X180100000Y-81200000D03*
X180100000Y-80550000D03*
D15*
X182800000Y-78900000D03*
%TD*%
D11*
%TO.C,U2*%
X170300000Y-77900000D03*
X172300000Y-76950000D03*
X172300000Y-78850000D03*
%TD*%
D10*
%TO.C,D1*%
X154550000Y-73200000D03*
X152450000Y-73200000D03*
%TD*%
D14*
%TO.C,U4*%
X154710000Y-86650000D03*
X154710000Y-85700000D03*
X154710000Y-84750000D03*
X152090000Y-84750000D03*
X152090000Y-86650000D03*
%TD*%
%TO.C,U1*%
G36*
G01*
X160950000Y-76205000D02*
X160950000Y-75905000D01*
G75*
G02*
X161100000Y-75755000I150000J0D01*
G01*
X162400000Y-75755000D01*
G75*
G02*
X162550000Y-75905000I0J-150000D01*
G01*
X162550000Y-76205000D01*
G75*
G02*
X162400000Y-76355000I-150000J0D01*
G01*
X161100000Y-76355000D01*
G75*
G02*
X160950000Y-76205000I0J150000D01*
G01*
G37*
G36*
G01*
X160950000Y-77475000D02*
X160950000Y-77175000D01*
G75*
G02*
X161100000Y-77025000I150000J0D01*
G01*
X162400000Y-77025000D01*
G75*
G02*
X162550000Y-77175000I0J-150000D01*
G01*
X162550000Y-77475000D01*
G75*
G02*
X162400000Y-77625000I-150000J0D01*
G01*
X161100000Y-77625000D01*
G75*
G02*
X160950000Y-77475000I0J150000D01*
G01*
G37*
G36*
G01*
X160950000Y-78745000D02*
X160950000Y-78445000D01*
G75*
G02*
X161100000Y-78295000I150000J0D01*
G01*
X162400000Y-78295000D01*
G75*
G02*
X162550000Y-78445000I0J-150000D01*
G01*
X162550000Y-78745000D01*
G75*
G02*
X162400000Y-78895000I-150000J0D01*
G01*
X161100000Y-78895000D01*
G75*
G02*
X160950000Y-78745000I0J150000D01*
G01*
G37*
G36*
G01*
X160950000Y-80015000D02*
X160950000Y-79715000D01*
G75*
G02*
X161100000Y-79565000I150000J0D01*
G01*
X162400000Y-79565000D01*
G75*
G02*
X162550000Y-79715000I0J-150000D01*
G01*
X162550000Y-80015000D01*
G75*
G02*
X162400000Y-80165000I-150000J0D01*
G01*
X161100000Y-80165000D01*
G75*
G02*
X160950000Y-80015000I0J150000D01*
G01*
G37*
G36*
G01*
X160950000Y-81285000D02*
X160950000Y-80985000D01*
G75*
G02*
X161100000Y-80835000I150000J0D01*
G01*
X162400000Y-80835000D01*
G75*
G02*
X162550000Y-80985000I0J-150000D01*
G01*
X162550000Y-81285000D01*
G75*
G02*
X162400000Y-81435000I-150000J0D01*
G01*
X161100000Y-81435000D01*
G75*
G02*
X160950000Y-81285000I0J150000D01*
G01*
G37*
G36*
G01*
X160950000Y-82555000D02*
X160950000Y-82255000D01*
G75*
G02*
X161100000Y-82105000I150000J0D01*
G01*
X162400000Y-82105000D01*
G75*
G02*
X162550000Y-82255000I0J-150000D01*
G01*
X162550000Y-82555000D01*
G75*
G02*
X162400000Y-82705000I-150000J0D01*
G01*
X161100000Y-82705000D01*
G75*
G02*
X160950000Y-82555000I0J150000D01*
G01*
G37*
G36*
G01*
X160950000Y-83825000D02*
X160950000Y-83525000D01*
G75*
G02*
X161100000Y-83375000I150000J0D01*
G01*
X162400000Y-83375000D01*
G75*
G02*
X162550000Y-83525000I0J-150000D01*
G01*
X162550000Y-83825000D01*
G75*
G02*
X162400000Y-83975000I-150000J0D01*
G01*
X161100000Y-83975000D01*
G75*
G02*
X160950000Y-83825000I0J150000D01*
G01*
G37*
G36*
G01*
X160950000Y-85095000D02*
X160950000Y-84795000D01*
G75*
G02*
X161100000Y-84645000I150000J0D01*
G01*
X162400000Y-84645000D01*
G75*
G02*
X162550000Y-84795000I0J-150000D01*
G01*
X162550000Y-85095000D01*
G75*
G02*
X162400000Y-85245000I-150000J0D01*
G01*
X161100000Y-85245000D01*
G75*
G02*
X160950000Y-85095000I0J150000D01*
G01*
G37*
G36*
G01*
X167450000Y-85095000D02*
X167450000Y-84795000D01*
G75*
G02*
X167600000Y-84645000I150000J0D01*
G01*
X168900000Y-84645000D01*
G75*
G02*
X169050000Y-84795000I0J-150000D01*
G01*
X169050000Y-85095000D01*
G75*
G02*
X168900000Y-85245000I-150000J0D01*
G01*
X167600000Y-85245000D01*
G75*
G02*
X167450000Y-85095000I0J150000D01*
G01*
G37*
G36*
G01*
X167450000Y-83825000D02*
X167450000Y-83525000D01*
G75*
G02*
X167600000Y-83375000I150000J0D01*
G01*
X168900000Y-83375000D01*
G75*
G02*
X169050000Y-83525000I0J-150000D01*
G01*
X169050000Y-83825000D01*
G75*
G02*
X168900000Y-83975000I-150000J0D01*
G01*
X167600000Y-83975000D01*
G75*
G02*
X167450000Y-83825000I0J150000D01*
G01*
G37*
G36*
G01*
X167450000Y-82555000D02*
X167450000Y-82255000D01*
G75*
G02*
X167600000Y-82105000I150000J0D01*
G01*
X168900000Y-82105000D01*
G75*
G02*
X169050000Y-82255000I0J-150000D01*
G01*
X169050000Y-82555000D01*
G75*
G02*
X168900000Y-82705000I-150000J0D01*
G01*
X167600000Y-82705000D01*
G75*
G02*
X167450000Y-82555000I0J150000D01*
G01*
G37*
G36*
G01*
X167450000Y-81285000D02*
X167450000Y-80985000D01*
G75*
G02*
X167600000Y-80835000I150000J0D01*
G01*
X168900000Y-80835000D01*
G75*
G02*
X169050000Y-80985000I0J-150000D01*
G01*
X169050000Y-81285000D01*
G75*
G02*
X168900000Y-81435000I-150000J0D01*
G01*
X167600000Y-81435000D01*
G75*
G02*
X167450000Y-81285000I0J150000D01*
G01*
G37*
G36*
G01*
X167450000Y-80015000D02*
X167450000Y-79715000D01*
G75*
G02*
X167600000Y-79565000I150000J0D01*
G01*
X168900000Y-79565000D01*
G75*
G02*
X169050000Y-79715000I0J-150000D01*
G01*
X169050000Y-80015000D01*
G75*
G02*
X168900000Y-80165000I-150000J0D01*
G01*
X167600000Y-80165000D01*
G75*
G02*
X167450000Y-80015000I0J150000D01*
G01*
G37*
G36*
G01*
X167450000Y-78745000D02*
X167450000Y-78445000D01*
G75*
G02*
X167600000Y-78295000I150000J0D01*
G01*
X168900000Y-78295000D01*
G75*
G02*
X169050000Y-78445000I0J-150000D01*
G01*
X169050000Y-78745000D01*
G75*
G02*
X168900000Y-78895000I-150000J0D01*
G01*
X167600000Y-78895000D01*
G75*
G02*
X167450000Y-78745000I0J150000D01*
G01*
G37*
G36*
G01*
X167450000Y-77475000D02*
X167450000Y-77175000D01*
G75*
G02*
X167600000Y-77025000I150000J0D01*
G01*
X168900000Y-77025000D01*
G75*
G02*
X169050000Y-77175000I0J-150000D01*
G01*
X169050000Y-77475000D01*
G75*
G02*
X168900000Y-77625000I-150000J0D01*
G01*
X167600000Y-77625000D01*
G75*
G02*
X167450000Y-77475000I0J150000D01*
G01*
G37*
G36*
G01*
X167450000Y-76205000D02*
X167450000Y-75905000D01*
G75*
G02*
X167600000Y-75755000I150000J0D01*
G01*
X168900000Y-75755000D01*
G75*
G02*
X169050000Y-75905000I0J-150000D01*
G01*
X169050000Y-76205000D01*
G75*
G02*
X168900000Y-76355000I-150000J0D01*
G01*
X167600000Y-76355000D01*
G75*
G02*
X167450000Y-76205000I0J150000D01*
G01*
G37*
%TD*%
%TO.C,R4*%
G36*
G01*
X155975000Y-91975000D02*
X155975000Y-91425000D01*
G75*
G02*
X156175000Y-91225000I200000J0D01*
G01*
X156575000Y-91225000D01*
G75*
G02*
X156775000Y-91425000I0J-200000D01*
G01*
X156775000Y-91975000D01*
G75*
G02*
X156575000Y-92175000I-200000J0D01*
G01*
X156175000Y-92175000D01*
G75*
G02*
X155975000Y-91975000I0J200000D01*
G01*
G37*
G36*
G01*
X157625000Y-91975000D02*
X157625000Y-91425000D01*
G75*
G02*
X157825000Y-91225000I200000J0D01*
G01*
X158225000Y-91225000D01*
G75*
G02*
X158425000Y-91425000I0J-200000D01*
G01*
X158425000Y-91975000D01*
G75*
G02*
X158225000Y-92175000I-200000J0D01*
G01*
X157825000Y-92175000D01*
G75*
G02*
X157625000Y-91975000I0J200000D01*
G01*
G37*
%TD*%
%TO.C,R3*%
G36*
G01*
X158425000Y-89085000D02*
X158425000Y-89635000D01*
G75*
G02*
X158225000Y-89835000I-200000J0D01*
G01*
X157825000Y-89835000D01*
G75*
G02*
X157625000Y-89635000I0J200000D01*
G01*
X157625000Y-89085000D01*
G75*
G02*
X157825000Y-88885000I200000J0D01*
G01*
X158225000Y-88885000D01*
G75*
G02*
X158425000Y-89085000I0J-200000D01*
G01*
G37*
G36*
G01*
X156775000Y-89085000D02*
X156775000Y-89635000D01*
G75*
G02*
X156575000Y-89835000I-200000J0D01*
G01*
X156175000Y-89835000D01*
G75*
G02*
X155975000Y-89635000I0J200000D01*
G01*
X155975000Y-89085000D01*
G75*
G02*
X156175000Y-88885000I200000J0D01*
G01*
X156575000Y-88885000D01*
G75*
G02*
X156775000Y-89085000I0J-200000D01*
G01*
G37*
%TD*%
%TO.C,R2*%
G36*
G01*
X154525000Y-89125000D02*
X154525000Y-89675000D01*
G75*
G02*
X154325000Y-89875000I-200000J0D01*
G01*
X153925000Y-89875000D01*
G75*
G02*
X153725000Y-89675000I0J200000D01*
G01*
X153725000Y-89125000D01*
G75*
G02*
X153925000Y-88925000I200000J0D01*
G01*
X154325000Y-88925000D01*
G75*
G02*
X154525000Y-89125000I0J-200000D01*
G01*
G37*
G36*
G01*
X152875000Y-89125000D02*
X152875000Y-89675000D01*
G75*
G02*
X152675000Y-89875000I-200000J0D01*
G01*
X152275000Y-89875000D01*
G75*
G02*
X152075000Y-89675000I0J200000D01*
G01*
X152075000Y-89125000D01*
G75*
G02*
X152275000Y-88925000I200000J0D01*
G01*
X152675000Y-88925000D01*
G75*
G02*
X152875000Y-89125000I0J-200000D01*
G01*
G37*
%TD*%
%TO.C,R1*%
G36*
G01*
X151975000Y-77175000D02*
X151975000Y-76625000D01*
G75*
G02*
X152175000Y-76425000I200000J0D01*
G01*
X152575000Y-76425000D01*
G75*
G02*
X152775000Y-76625000I0J-200000D01*
G01*
X152775000Y-77175000D01*
G75*
G02*
X152575000Y-77375000I-200000J0D01*
G01*
X152175000Y-77375000D01*
G75*
G02*
X151975000Y-77175000I0J200000D01*
G01*
G37*
G36*
G01*
X153625000Y-77175000D02*
X153625000Y-76625000D01*
G75*
G02*
X153825000Y-76425000I200000J0D01*
G01*
X154225000Y-76425000D01*
G75*
G02*
X154425000Y-76625000I0J-200000D01*
G01*
X154425000Y-77175000D01*
G75*
G02*
X154225000Y-77375000I-200000J0D01*
G01*
X153825000Y-77375000D01*
G75*
G02*
X153625000Y-77175000I0J200000D01*
G01*
G37*
%TD*%
D13*
%TO.C,Q1*%
X154450000Y-81500000D03*
X152350000Y-82450000D03*
X152350000Y-80550000D03*
%TD*%
D12*
%TO.C,D3*%
X162700000Y-92600000D03*
X162700000Y-94300000D03*
X162700000Y-96000000D03*
X167500000Y-96000000D03*
X167500000Y-94300000D03*
X167500000Y-92600000D03*
%TD*%
%TO.C,D2*%
G36*
G01*
X155975000Y-87236250D02*
X155975000Y-86723750D01*
G75*
G02*
X156193750Y-86505000I218750J0D01*
G01*
X156631250Y-86505000D01*
G75*
G02*
X156850000Y-86723750I0J-218750D01*
G01*
X156850000Y-87236250D01*
G75*
G02*
X156631250Y-87455000I-218750J0D01*
G01*
X156193750Y-87455000D01*
G75*
G02*
X155975000Y-87236250I0J218750D01*
G01*
G37*
G36*
G01*
X157550000Y-87236250D02*
X157550000Y-86723750D01*
G75*
G02*
X157768750Y-86505000I218750J0D01*
G01*
X158206250Y-86505000D01*
G75*
G02*
X158425000Y-86723750I0J-218750D01*
G01*
X158425000Y-87236250D01*
G75*
G02*
X158206250Y-87455000I-218750J0D01*
G01*
X157768750Y-87455000D01*
G75*
G02*
X157550000Y-87236250I0J218750D01*
G01*
G37*
%TD*%
%TO.C,C7*%
G36*
G01*
X159025000Y-72950000D02*
X159025000Y-73450000D01*
G75*
G02*
X158800000Y-73675000I-225000J0D01*
G01*
X158350000Y-73675000D01*
G75*
G02*
X158125000Y-73450000I0J225000D01*
G01*
X158125000Y-72950000D01*
G75*
G02*
X158350000Y-72725000I225000J0D01*
G01*
X158800000Y-72725000D01*
G75*
G02*
X159025000Y-72950000I0J-225000D01*
G01*
G37*
G36*
G01*
X157475000Y-72950000D02*
X157475000Y-73450000D01*
G75*
G02*
X157250000Y-73675000I-225000J0D01*
G01*
X156800000Y-73675000D01*
G75*
G02*
X156575000Y-73450000I0J225000D01*
G01*
X156575000Y-72950000D01*
G75*
G02*
X156800000Y-72725000I225000J0D01*
G01*
X157250000Y-72725000D01*
G75*
G02*
X157475000Y-72950000I0J-225000D01*
G01*
G37*
%TD*%
%TO.C,C6*%
G36*
G01*
X169450000Y-92275000D02*
X169950000Y-92275000D01*
G75*
G02*
X170175000Y-92500000I0J-225000D01*
G01*
X170175000Y-92950000D01*
G75*
G02*
X169950000Y-93175000I-225000J0D01*
G01*
X169450000Y-93175000D01*
G75*
G02*
X169225000Y-92950000I0J225000D01*
G01*
X169225000Y-92500000D01*
G75*
G02*
X169450000Y-92275000I225000J0D01*
G01*
G37*
G36*
G01*
X169450000Y-93825000D02*
X169950000Y-93825000D01*
G75*
G02*
X170175000Y-94050000I0J-225000D01*
G01*
X170175000Y-94500000D01*
G75*
G02*
X169950000Y-94725000I-225000J0D01*
G01*
X169450000Y-94725000D01*
G75*
G02*
X169225000Y-94500000I0J225000D01*
G01*
X169225000Y-94050000D01*
G75*
G02*
X169450000Y-93825000I225000J0D01*
G01*
G37*
%TD*%
%TO.C,C5*%
G36*
G01*
X155975000Y-84850000D02*
X155975000Y-84350000D01*
G75*
G02*
X156200000Y-84125000I225000J0D01*
G01*
X156650000Y-84125000D01*
G75*
G02*
X156875000Y-84350000I0J-225000D01*
G01*
X156875000Y-84850000D01*
G75*
G02*
X156650000Y-85075000I-225000J0D01*
G01*
X156200000Y-85075000D01*
G75*
G02*
X155975000Y-84850000I0J225000D01*
G01*
G37*
G36*
G01*
X157525000Y-84850000D02*
X157525000Y-84350000D01*
G75*
G02*
X157750000Y-84125000I225000J0D01*
G01*
X158200000Y-84125000D01*
G75*
G02*
X158425000Y-84350000I0J-225000D01*
G01*
X158425000Y-84850000D01*
G75*
G02*
X158200000Y-85075000I-225000J0D01*
G01*
X157750000Y-85075000D01*
G75*
G02*
X157525000Y-84850000I0J225000D01*
G01*
G37*
%TD*%
%TO.C,C4*%
G36*
G01*
X170275000Y-73850000D02*
X170275000Y-73350000D01*
G75*
G02*
X170500000Y-73125000I225000J0D01*
G01*
X170950000Y-73125000D01*
G75*
G02*
X171175000Y-73350000I0J-225000D01*
G01*
X171175000Y-73850000D01*
G75*
G02*
X170950000Y-74075000I-225000J0D01*
G01*
X170500000Y-74075000D01*
G75*
G02*
X170275000Y-73850000I0J225000D01*
G01*
G37*
G36*
G01*
X171825000Y-73850000D02*
X171825000Y-73350000D01*
G75*
G02*
X172050000Y-73125000I225000J0D01*
G01*
X172500000Y-73125000D01*
G75*
G02*
X172725000Y-73350000I0J-225000D01*
G01*
X172725000Y-73850000D01*
G75*
G02*
X172500000Y-74075000I-225000J0D01*
G01*
X172050000Y-74075000D01*
G75*
G02*
X171825000Y-73850000I0J225000D01*
G01*
G37*
%TD*%
%TO.C,C3*%
G36*
G01*
X175875000Y-82350000D02*
X175875000Y-81850000D01*
G75*
G02*
X176100000Y-81625000I225000J0D01*
G01*
X176550000Y-81625000D01*
G75*
G02*
X176775000Y-81850000I0J-225000D01*
G01*
X176775000Y-82350000D01*
G75*
G02*
X176550000Y-82575000I-225000J0D01*
G01*
X176100000Y-82575000D01*
G75*
G02*
X175875000Y-82350000I0J225000D01*
G01*
G37*
G36*
G01*
X177425000Y-82350000D02*
X177425000Y-81850000D01*
G75*
G02*
X177650000Y-81625000I225000J0D01*
G01*
X178100000Y-81625000D01*
G75*
G02*
X178325000Y-81850000I0J-225000D01*
G01*
X178325000Y-82350000D01*
G75*
G02*
X178100000Y-82575000I-225000J0D01*
G01*
X177650000Y-82575000D01*
G75*
G02*
X177425000Y-82350000I0J225000D01*
G01*
G37*
%TD*%
%TO.C,C2*%
G36*
G01*
X172725000Y-75050000D02*
X172725000Y-75550000D01*
G75*
G02*
X172500000Y-75775000I-225000J0D01*
G01*
X172050000Y-75775000D01*
G75*
G02*
X171825000Y-75550000I0J225000D01*
G01*
X171825000Y-75050000D01*
G75*
G02*
X172050000Y-74825000I225000J0D01*
G01*
X172500000Y-74825000D01*
G75*
G02*
X172725000Y-75050000I0J-225000D01*
G01*
G37*
G36*
G01*
X171175000Y-75050000D02*
X171175000Y-75550000D01*
G75*
G02*
X170950000Y-75775000I-225000J0D01*
G01*
X170500000Y-75775000D01*
G75*
G02*
X170275000Y-75550000I0J225000D01*
G01*
X170275000Y-75050000D01*
G75*
G02*
X170500000Y-74825000I225000J0D01*
G01*
X170950000Y-74825000D01*
G75*
G02*
X171175000Y-75050000I0J-225000D01*
G01*
G37*
%TD*%
%TO.C,C1*%
G36*
G01*
X170375000Y-81950000D02*
X170375000Y-81450000D01*
G75*
G02*
X170600000Y-81225000I225000J0D01*
G01*
X171050000Y-81225000D01*
G75*
G02*
X171275000Y-81450000I0J-225000D01*
G01*
X171275000Y-81950000D01*
G75*
G02*
X171050000Y-82175000I-225000J0D01*
G01*
X170600000Y-82175000D01*
G75*
G02*
X170375000Y-81950000I0J225000D01*
G01*
G37*
G36*
G01*
X171925000Y-81950000D02*
X171925000Y-81450000D01*
G75*
G02*
X172150000Y-81225000I225000J0D01*
G01*
X172600000Y-81225000D01*
G75*
G02*
X172825000Y-81450000I0J-225000D01*
G01*
X172825000Y-81950000D01*
G75*
G02*
X172600000Y-82175000I-225000J0D01*
G01*
X172150000Y-82175000D01*
G75*
G02*
X171925000Y-81950000I0J225000D01*
G01*
G37*
%TD*%
%TO.C,BT1*%
G36*
G01*
X149700000Y-83300000D02*
X145700000Y-83300000D01*
G75*
G02*
X145200000Y-82800000I0J500000D01*
G01*
X145200000Y-81800000D01*
G75*
G02*
X145700000Y-81300000I500000J0D01*
G01*
X149700000Y-81300000D01*
G75*
G02*
X150200000Y-81800000I0J-500000D01*
G01*
X150200000Y-82800000D01*
G75*
G02*
X149700000Y-83300000I-500000J0D01*
G01*
G37*
G36*
G01*
X149700000Y-79300000D02*
X145700000Y-79300000D01*
G75*
G02*
X145200000Y-78800000I0J500000D01*
G01*
X145200000Y-77800000D01*
G75*
G02*
X145700000Y-77300000I500000J0D01*
G01*
X149700000Y-77300000D01*
G75*
G02*
X150200000Y-77800000I0J-500000D01*
G01*
X150200000Y-78800000D01*
G75*
G02*
X149700000Y-79300000I-500000J0D01*
G01*
G37*
%TD*%
M02*
