%TF.GenerationSoftware,KiCad,Pcbnew,(5.1.8)-1*%
%TF.CreationDate,2020-11-26T18:41:41+08:00*%
%TF.ProjectId,The_Girls'Gift,5468655f-4769-4726-9c73-27476966742e,V0.8 Beta*%
%TF.SameCoordinates,Original*%
%TF.FileFunction,Copper,L2,Bot*%
%TF.FilePolarity,Positive*%
%FSLAX46Y46*%
G04 Gerber Fmt 4.6, Leading zero omitted, Abs format (unit mm)*
G04 Created by KiCad (PCBNEW (5.1.8)-1) date 2020-11-26 18:41:41*
%MOMM*%
%LPD*%
G01*
G04 APERTURE LIST*
%TA.AperFunction,ComponentPad*%
%ADD10O,1.900000X1.200000*%
%TD*%
%TA.AperFunction,ComponentPad*%
%ADD11C,1.450000*%
%TD*%
%TA.AperFunction,SMDPad,CuDef*%
%ADD12R,1.450000X0.450000*%
%TD*%
%TA.AperFunction,ViaPad*%
%ADD13C,0.600000*%
%TD*%
%TA.AperFunction,ViaPad*%
%ADD14C,0.800000*%
%TD*%
%TA.AperFunction,Conductor*%
%ADD15C,0.381000*%
%TD*%
%TA.AperFunction,Conductor*%
%ADD16C,0.254000*%
%TD*%
%TA.AperFunction,Conductor*%
%ADD17C,0.250000*%
%TD*%
%TA.AperFunction,Conductor*%
%ADD18C,0.508000*%
%TD*%
%TA.AperFunction,Conductor*%
%ADD19C,0.100000*%
%TD*%
%TA.AperFunction,Conductor*%
%ADD20C,0.025400*%
%TD*%
G04 APERTURE END LIST*
D10*
%TO.P,J1,6*%
%TO.N,GND*%
X182800000Y-76400000D03*
X182800000Y-83400000D03*
D11*
X180100000Y-77400000D03*
X180100000Y-82400000D03*
%TD*%
%TO.P,U5,1*%
%TO.N,/OUTR*%
%TA.AperFunction,SMDPad,CuDef*%
G36*
G01*
X168550000Y-86745000D02*
X168550000Y-87045000D01*
G75*
G02*
X168400000Y-87195000I-150000J0D01*
G01*
X167050000Y-87195000D01*
G75*
G02*
X166900000Y-87045000I0J150000D01*
G01*
X166900000Y-86745000D01*
G75*
G02*
X167050000Y-86595000I150000J0D01*
G01*
X168400000Y-86595000D01*
G75*
G02*
X168550000Y-86745000I0J-150000D01*
G01*
G37*
%TD.AperFunction*%
%TO.P,U5,2*%
%TO.N,/OUTG*%
%TA.AperFunction,SMDPad,CuDef*%
G36*
G01*
X168550000Y-88015000D02*
X168550000Y-88315000D01*
G75*
G02*
X168400000Y-88465000I-150000J0D01*
G01*
X167050000Y-88465000D01*
G75*
G02*
X166900000Y-88315000I0J150000D01*
G01*
X166900000Y-88015000D01*
G75*
G02*
X167050000Y-87865000I150000J0D01*
G01*
X168400000Y-87865000D01*
G75*
G02*
X168550000Y-88015000I0J-150000D01*
G01*
G37*
%TD.AperFunction*%
%TO.P,U5,3*%
%TO.N,/OUTB*%
%TA.AperFunction,SMDPad,CuDef*%
G36*
G01*
X168550000Y-89285000D02*
X168550000Y-89585000D01*
G75*
G02*
X168400000Y-89735000I-150000J0D01*
G01*
X167050000Y-89735000D01*
G75*
G02*
X166900000Y-89585000I0J150000D01*
G01*
X166900000Y-89285000D01*
G75*
G02*
X167050000Y-89135000I150000J0D01*
G01*
X168400000Y-89135000D01*
G75*
G02*
X168550000Y-89285000I0J-150000D01*
G01*
G37*
%TD.AperFunction*%
%TO.P,U5,4*%
%TO.N,GND*%
%TA.AperFunction,SMDPad,CuDef*%
G36*
G01*
X168550000Y-90555000D02*
X168550000Y-90855000D01*
G75*
G02*
X168400000Y-91005000I-150000J0D01*
G01*
X167050000Y-91005000D01*
G75*
G02*
X166900000Y-90855000I0J150000D01*
G01*
X166900000Y-90555000D01*
G75*
G02*
X167050000Y-90405000I150000J0D01*
G01*
X168400000Y-90405000D01*
G75*
G02*
X168550000Y-90555000I0J-150000D01*
G01*
G37*
%TD.AperFunction*%
%TO.P,U5,5*%
%TO.N,N/C*%
%TA.AperFunction,SMDPad,CuDef*%
G36*
G01*
X163300000Y-90555000D02*
X163300000Y-90855000D01*
G75*
G02*
X163150000Y-91005000I-150000J0D01*
G01*
X161800000Y-91005000D01*
G75*
G02*
X161650000Y-90855000I0J150000D01*
G01*
X161650000Y-90555000D01*
G75*
G02*
X161800000Y-90405000I150000J0D01*
G01*
X163150000Y-90405000D01*
G75*
G02*
X163300000Y-90555000I0J-150000D01*
G01*
G37*
%TD.AperFunction*%
%TO.P,U5,6*%
%TO.N,/P16*%
%TA.AperFunction,SMDPad,CuDef*%
G36*
G01*
X163300000Y-89285000D02*
X163300000Y-89585000D01*
G75*
G02*
X163150000Y-89735000I-150000J0D01*
G01*
X161800000Y-89735000D01*
G75*
G02*
X161650000Y-89585000I0J150000D01*
G01*
X161650000Y-89285000D01*
G75*
G02*
X161800000Y-89135000I150000J0D01*
G01*
X163150000Y-89135000D01*
G75*
G02*
X163300000Y-89285000I0J-150000D01*
G01*
G37*
%TD.AperFunction*%
%TO.P,U5,7*%
%TO.N,/P15*%
%TA.AperFunction,SMDPad,CuDef*%
G36*
G01*
X163300000Y-88015000D02*
X163300000Y-88315000D01*
G75*
G02*
X163150000Y-88465000I-150000J0D01*
G01*
X161800000Y-88465000D01*
G75*
G02*
X161650000Y-88315000I0J150000D01*
G01*
X161650000Y-88015000D01*
G75*
G02*
X161800000Y-87865000I150000J0D01*
G01*
X163150000Y-87865000D01*
G75*
G02*
X163300000Y-88015000I0J-150000D01*
G01*
G37*
%TD.AperFunction*%
%TO.P,U5,8*%
%TO.N,Net-(C10-Pad1)*%
%TA.AperFunction,SMDPad,CuDef*%
G36*
G01*
X163300000Y-86745000D02*
X163300000Y-87045000D01*
G75*
G02*
X163150000Y-87195000I-150000J0D01*
G01*
X161800000Y-87195000D01*
G75*
G02*
X161650000Y-87045000I0J150000D01*
G01*
X161650000Y-86745000D01*
G75*
G02*
X161800000Y-86595000I150000J0D01*
G01*
X163150000Y-86595000D01*
G75*
G02*
X163300000Y-86745000I0J-150000D01*
G01*
G37*
%TD.AperFunction*%
%TD*%
D12*
%TO.P,U3,1*%
%TO.N,/P17*%
X162800000Y-85075000D03*
%TO.P,U3,2*%
%TO.N,/P14*%
X162800000Y-84425000D03*
%TO.P,U3,3*%
%TO.N,/P33*%
X162800000Y-83775000D03*
%TO.P,U3,4*%
%TO.N,GND*%
X162800000Y-83125000D03*
%TO.P,U3,5*%
%TO.N,/P11*%
X167200000Y-83125000D03*
%TO.P,U3,6*%
X167200000Y-83775000D03*
%TO.P,U3,7*%
X167200000Y-84425000D03*
%TO.P,U3,8*%
%TO.N,VCC*%
X167200000Y-85075000D03*
%TD*%
%TO.P,SW3,2*%
%TO.N,GND*%
%TA.AperFunction,SMDPad,CuDef*%
G36*
G01*
X173975000Y-81200000D02*
X174325000Y-81200000D01*
G75*
G02*
X174500000Y-81375000I0J-175000D01*
G01*
X174500000Y-82025000D01*
G75*
G02*
X174325000Y-82200000I-175000J0D01*
G01*
X173975000Y-82200000D01*
G75*
G02*
X173800000Y-82025000I0J175000D01*
G01*
X173800000Y-81375000D01*
G75*
G02*
X173975000Y-81200000I175000J0D01*
G01*
G37*
%TD.AperFunction*%
%TA.AperFunction,SMDPad,CuDef*%
G36*
G01*
X173975000Y-75200000D02*
X174325000Y-75200000D01*
G75*
G02*
X174500000Y-75375000I0J-175000D01*
G01*
X174500000Y-76025000D01*
G75*
G02*
X174325000Y-76200000I-175000J0D01*
G01*
X173975000Y-76200000D01*
G75*
G02*
X173800000Y-76025000I0J175000D01*
G01*
X173800000Y-75375000D01*
G75*
G02*
X173975000Y-75200000I175000J0D01*
G01*
G37*
%TD.AperFunction*%
%TO.P,SW3,1*%
%TO.N,/P32*%
%TA.AperFunction,SMDPad,CuDef*%
G36*
G01*
X170275000Y-75200000D02*
X170625000Y-75200000D01*
G75*
G02*
X170800000Y-75375000I0J-175000D01*
G01*
X170800000Y-76025000D01*
G75*
G02*
X170625000Y-76200000I-175000J0D01*
G01*
X170275000Y-76200000D01*
G75*
G02*
X170100000Y-76025000I0J175000D01*
G01*
X170100000Y-75375000D01*
G75*
G02*
X170275000Y-75200000I175000J0D01*
G01*
G37*
%TD.AperFunction*%
%TA.AperFunction,SMDPad,CuDef*%
G36*
G01*
X170275000Y-81200000D02*
X170625000Y-81200000D01*
G75*
G02*
X170800000Y-81375000I0J-175000D01*
G01*
X170800000Y-82025000D01*
G75*
G02*
X170625000Y-82200000I-175000J0D01*
G01*
X170275000Y-82200000D01*
G75*
G02*
X170100000Y-82025000I0J175000D01*
G01*
X170100000Y-81375000D01*
G75*
G02*
X170275000Y-81200000I175000J0D01*
G01*
G37*
%TD.AperFunction*%
%TD*%
%TO.P,SW2,2*%
%TO.N,/RST*%
%TA.AperFunction,SMDPad,CuDef*%
G36*
G01*
X159475000Y-81200000D02*
X159825000Y-81200000D01*
G75*
G02*
X160000000Y-81375000I0J-175000D01*
G01*
X160000000Y-82025000D01*
G75*
G02*
X159825000Y-82200000I-175000J0D01*
G01*
X159475000Y-82200000D01*
G75*
G02*
X159300000Y-82025000I0J175000D01*
G01*
X159300000Y-81375000D01*
G75*
G02*
X159475000Y-81200000I175000J0D01*
G01*
G37*
%TD.AperFunction*%
%TA.AperFunction,SMDPad,CuDef*%
G36*
G01*
X159475000Y-75200000D02*
X159825000Y-75200000D01*
G75*
G02*
X160000000Y-75375000I0J-175000D01*
G01*
X160000000Y-76025000D01*
G75*
G02*
X159825000Y-76200000I-175000J0D01*
G01*
X159475000Y-76200000D01*
G75*
G02*
X159300000Y-76025000I0J175000D01*
G01*
X159300000Y-75375000D01*
G75*
G02*
X159475000Y-75200000I175000J0D01*
G01*
G37*
%TD.AperFunction*%
%TO.P,SW2,1*%
%TO.N,+3V3*%
%TA.AperFunction,SMDPad,CuDef*%
G36*
G01*
X155775000Y-75200000D02*
X156125000Y-75200000D01*
G75*
G02*
X156300000Y-75375000I0J-175000D01*
G01*
X156300000Y-76025000D01*
G75*
G02*
X156125000Y-76200000I-175000J0D01*
G01*
X155775000Y-76200000D01*
G75*
G02*
X155600000Y-76025000I0J175000D01*
G01*
X155600000Y-75375000D01*
G75*
G02*
X155775000Y-75200000I175000J0D01*
G01*
G37*
%TD.AperFunction*%
%TA.AperFunction,SMDPad,CuDef*%
G36*
G01*
X155775000Y-81200000D02*
X156125000Y-81200000D01*
G75*
G02*
X156300000Y-81375000I0J-175000D01*
G01*
X156300000Y-82025000D01*
G75*
G02*
X156125000Y-82200000I-175000J0D01*
G01*
X155775000Y-82200000D01*
G75*
G02*
X155600000Y-82025000I0J175000D01*
G01*
X155600000Y-81375000D01*
G75*
G02*
X155775000Y-81200000I175000J0D01*
G01*
G37*
%TD.AperFunction*%
%TD*%
%TO.P,SW1,2*%
%TO.N,Net-(C9-Pad2)*%
%TA.AperFunction,SMDPad,CuDef*%
G36*
G01*
X166725000Y-81200000D02*
X167075000Y-81200000D01*
G75*
G02*
X167250000Y-81375000I0J-175000D01*
G01*
X167250000Y-82025000D01*
G75*
G02*
X167075000Y-82200000I-175000J0D01*
G01*
X166725000Y-82200000D01*
G75*
G02*
X166550000Y-82025000I0J175000D01*
G01*
X166550000Y-81375000D01*
G75*
G02*
X166725000Y-81200000I175000J0D01*
G01*
G37*
%TD.AperFunction*%
%TA.AperFunction,SMDPad,CuDef*%
G36*
G01*
X166725000Y-75200000D02*
X167075000Y-75200000D01*
G75*
G02*
X167250000Y-75375000I0J-175000D01*
G01*
X167250000Y-76025000D01*
G75*
G02*
X167075000Y-76200000I-175000J0D01*
G01*
X166725000Y-76200000D01*
G75*
G02*
X166550000Y-76025000I0J175000D01*
G01*
X166550000Y-75375000D01*
G75*
G02*
X166725000Y-75200000I175000J0D01*
G01*
G37*
%TD.AperFunction*%
%TO.P,SW1,1*%
%TO.N,+3V3*%
%TA.AperFunction,SMDPad,CuDef*%
G36*
G01*
X163025000Y-75200000D02*
X163375000Y-75200000D01*
G75*
G02*
X163550000Y-75375000I0J-175000D01*
G01*
X163550000Y-76025000D01*
G75*
G02*
X163375000Y-76200000I-175000J0D01*
G01*
X163025000Y-76200000D01*
G75*
G02*
X162850000Y-76025000I0J175000D01*
G01*
X162850000Y-75375000D01*
G75*
G02*
X163025000Y-75200000I175000J0D01*
G01*
G37*
%TD.AperFunction*%
%TA.AperFunction,SMDPad,CuDef*%
G36*
G01*
X163025000Y-81200000D02*
X163375000Y-81200000D01*
G75*
G02*
X163550000Y-81375000I0J-175000D01*
G01*
X163550000Y-82025000D01*
G75*
G02*
X163375000Y-82200000I-175000J0D01*
G01*
X163025000Y-82200000D01*
G75*
G02*
X162850000Y-82025000I0J175000D01*
G01*
X162850000Y-81375000D01*
G75*
G02*
X163025000Y-81200000I175000J0D01*
G01*
G37*
%TD.AperFunction*%
%TD*%
%TO.P,R8,1*%
%TO.N,/P36*%
%TA.AperFunction,SMDPad,CuDef*%
G36*
G01*
X171075000Y-87175000D02*
X171075000Y-86625000D01*
G75*
G02*
X171275000Y-86425000I200000J0D01*
G01*
X171675000Y-86425000D01*
G75*
G02*
X171875000Y-86625000I0J-200000D01*
G01*
X171875000Y-87175000D01*
G75*
G02*
X171675000Y-87375000I-200000J0D01*
G01*
X171275000Y-87375000D01*
G75*
G02*
X171075000Y-87175000I0J200000D01*
G01*
G37*
%TD.AperFunction*%
%TO.P,R8,2*%
%TO.N,Net-(C9-Pad2)*%
%TA.AperFunction,SMDPad,CuDef*%
G36*
G01*
X172725000Y-87175000D02*
X172725000Y-86625000D01*
G75*
G02*
X172925000Y-86425000I200000J0D01*
G01*
X173325000Y-86425000D01*
G75*
G02*
X173525000Y-86625000I0J-200000D01*
G01*
X173525000Y-87175000D01*
G75*
G02*
X173325000Y-87375000I-200000J0D01*
G01*
X172925000Y-87375000D01*
G75*
G02*
X172725000Y-87175000I0J200000D01*
G01*
G37*
%TD.AperFunction*%
%TD*%
%TO.P,R7,1*%
%TO.N,Net-(C10-Pad1)*%
%TA.AperFunction,SMDPad,CuDef*%
G36*
G01*
X160025000Y-89325000D02*
X160025000Y-89875000D01*
G75*
G02*
X159825000Y-90075000I-200000J0D01*
G01*
X159425000Y-90075000D01*
G75*
G02*
X159225000Y-89875000I0J200000D01*
G01*
X159225000Y-89325000D01*
G75*
G02*
X159425000Y-89125000I200000J0D01*
G01*
X159825000Y-89125000D01*
G75*
G02*
X160025000Y-89325000I0J-200000D01*
G01*
G37*
%TD.AperFunction*%
%TO.P,R7,2*%
%TO.N,+5V*%
%TA.AperFunction,SMDPad,CuDef*%
G36*
G01*
X158375000Y-89325000D02*
X158375000Y-89875000D01*
G75*
G02*
X158175000Y-90075000I-200000J0D01*
G01*
X157775000Y-90075000D01*
G75*
G02*
X157575000Y-89875000I0J200000D01*
G01*
X157575000Y-89325000D01*
G75*
G02*
X157775000Y-89125000I200000J0D01*
G01*
X158175000Y-89125000D01*
G75*
G02*
X158375000Y-89325000I0J-200000D01*
G01*
G37*
%TD.AperFunction*%
%TD*%
%TO.P,C10,1*%
%TO.N,Net-(C10-Pad1)*%
%TA.AperFunction,SMDPad,CuDef*%
G36*
G01*
X160025000Y-86650000D02*
X160025000Y-87150000D01*
G75*
G02*
X159800000Y-87375000I-225000J0D01*
G01*
X159350000Y-87375000D01*
G75*
G02*
X159125000Y-87150000I0J225000D01*
G01*
X159125000Y-86650000D01*
G75*
G02*
X159350000Y-86425000I225000J0D01*
G01*
X159800000Y-86425000D01*
G75*
G02*
X160025000Y-86650000I0J-225000D01*
G01*
G37*
%TD.AperFunction*%
%TO.P,C10,2*%
%TO.N,GND*%
%TA.AperFunction,SMDPad,CuDef*%
G36*
G01*
X158475000Y-86650000D02*
X158475000Y-87150000D01*
G75*
G02*
X158250000Y-87375000I-225000J0D01*
G01*
X157800000Y-87375000D01*
G75*
G02*
X157575000Y-87150000I0J225000D01*
G01*
X157575000Y-86650000D01*
G75*
G02*
X157800000Y-86425000I225000J0D01*
G01*
X158250000Y-86425000D01*
G75*
G02*
X158475000Y-86650000I0J-225000D01*
G01*
G37*
%TD.AperFunction*%
%TD*%
%TO.P,C9,1*%
%TO.N,GND*%
%TA.AperFunction,SMDPad,CuDef*%
G36*
G01*
X171075000Y-84350000D02*
X171075000Y-83850000D01*
G75*
G02*
X171300000Y-83625000I225000J0D01*
G01*
X171750000Y-83625000D01*
G75*
G02*
X171975000Y-83850000I0J-225000D01*
G01*
X171975000Y-84350000D01*
G75*
G02*
X171750000Y-84575000I-225000J0D01*
G01*
X171300000Y-84575000D01*
G75*
G02*
X171075000Y-84350000I0J225000D01*
G01*
G37*
%TD.AperFunction*%
%TO.P,C9,2*%
%TO.N,Net-(C9-Pad2)*%
%TA.AperFunction,SMDPad,CuDef*%
G36*
G01*
X172625000Y-84350000D02*
X172625000Y-83850000D01*
G75*
G02*
X172850000Y-83625000I225000J0D01*
G01*
X173300000Y-83625000D01*
G75*
G02*
X173525000Y-83850000I0J-225000D01*
G01*
X173525000Y-84350000D01*
G75*
G02*
X173300000Y-84575000I-225000J0D01*
G01*
X172850000Y-84575000D01*
G75*
G02*
X172625000Y-84350000I0J225000D01*
G01*
G37*
%TD.AperFunction*%
%TD*%
%TO.P,C8,1*%
%TO.N,/RST*%
%TA.AperFunction,SMDPad,CuDef*%
G36*
G01*
X158025000Y-83750000D02*
X158025000Y-84250000D01*
G75*
G02*
X157800000Y-84475000I-225000J0D01*
G01*
X157350000Y-84475000D01*
G75*
G02*
X157125000Y-84250000I0J225000D01*
G01*
X157125000Y-83750000D01*
G75*
G02*
X157350000Y-83525000I225000J0D01*
G01*
X157800000Y-83525000D01*
G75*
G02*
X158025000Y-83750000I0J-225000D01*
G01*
G37*
%TD.AperFunction*%
%TO.P,C8,2*%
%TO.N,+3V3*%
%TA.AperFunction,SMDPad,CuDef*%
G36*
G01*
X156475000Y-83750000D02*
X156475000Y-84250000D01*
G75*
G02*
X156250000Y-84475000I-225000J0D01*
G01*
X155800000Y-84475000D01*
G75*
G02*
X155575000Y-84250000I0J225000D01*
G01*
X155575000Y-83750000D01*
G75*
G02*
X155800000Y-83525000I225000J0D01*
G01*
X156250000Y-83525000D01*
G75*
G02*
X156475000Y-83750000I0J-225000D01*
G01*
G37*
%TD.AperFunction*%
%TD*%
D13*
%TO.N,GND*%
X157900000Y-79100000D03*
X158900000Y-79100000D03*
X157900000Y-80100000D03*
X158900000Y-80100000D03*
D14*
X154700000Y-91100000D03*
X157600000Y-93400000D03*
%TO.N,VCC*%
X170387057Y-83118645D03*
D13*
X157025000Y-75975000D03*
X165800000Y-77300000D03*
%TO.N,+3V3*%
X165800000Y-76000000D03*
D14*
%TO.N,+5V*%
X159240501Y-91659499D03*
X152400000Y-78600000D03*
D13*
%TO.N,/RST*%
X159575000Y-82825000D03*
D14*
%TO.N,/OUTB*%
X164400000Y-96000000D03*
%TO.N,/OUTG*%
X164399990Y-94300000D03*
%TO.N,/OUTR*%
X164299994Y-92600000D03*
D13*
%TO.N,/P36*%
X175100000Y-80700000D03*
X177000000Y-79900000D03*
X170300000Y-86900000D03*
%TO.N,/P32*%
X169200000Y-74700000D03*
%TO.N,/P33*%
X164075000Y-83800000D03*
%TO.N,/P11*%
X169600000Y-84000000D03*
%TO.N,/P17*%
X160300000Y-80400000D03*
%TO.N,/P16*%
X165425010Y-79828784D03*
%TO.N,/P15*%
X164400000Y-78600000D03*
%TO.N,/P14*%
X163400000Y-77970000D03*
%TD*%
D15*
%TO.N,VCC*%
X170387057Y-84234885D02*
X170387057Y-83118645D01*
X167200000Y-85075000D02*
X169546942Y-85075000D01*
X169546942Y-85075000D02*
X170387057Y-84234885D01*
X158250000Y-77200000D02*
X157025000Y-75975000D01*
X165700000Y-77200000D02*
X158250000Y-77200000D01*
X165800000Y-77300000D02*
X165700000Y-77200000D01*
D16*
X169841411Y-82572999D02*
X170387057Y-83118645D01*
X166563047Y-82572999D02*
X169841411Y-82572999D01*
X166222990Y-82232942D02*
X166563047Y-82572999D01*
X166222990Y-77722990D02*
X166222990Y-82232942D01*
X165800000Y-77300000D02*
X166222990Y-77722990D01*
D17*
%TO.N,+3V3*%
X155950000Y-75700000D02*
X155950000Y-81700000D01*
D15*
X163500000Y-76000000D02*
X163200000Y-75700000D01*
X165800000Y-76000000D02*
X163500000Y-76000000D01*
X162309490Y-74809490D02*
X156840510Y-74809490D01*
X156840510Y-74809490D02*
X155950000Y-75700000D01*
X163200000Y-75700000D02*
X162309490Y-74809490D01*
D18*
X155950000Y-83925000D02*
X156025000Y-84000000D01*
X155950000Y-81700000D02*
X155950000Y-83925000D01*
%TO.N,+5V*%
X158000000Y-89625000D02*
X157975000Y-89600000D01*
X158000000Y-90418998D02*
X158000000Y-89625000D01*
X159240501Y-91659499D02*
X158000000Y-90418998D01*
X152400000Y-88100000D02*
X152400000Y-78600000D01*
X153900000Y-89600000D02*
X152400000Y-88100000D01*
X157975000Y-89600000D02*
X153900000Y-89600000D01*
D17*
%TO.N,/RST*%
X159575000Y-81775000D02*
X159650000Y-81700000D01*
X159575000Y-82825000D02*
X159575000Y-81775000D01*
D16*
X158400000Y-84000000D02*
X157575000Y-84000000D01*
X159575000Y-82825000D02*
X158400000Y-84000000D01*
D17*
%TO.N,Net-(C9-Pad2)*%
X173075000Y-86850000D02*
X173125000Y-86900000D01*
X173075000Y-84100000D02*
X173075000Y-86850000D01*
X166900000Y-81700000D02*
X167725010Y-80874990D01*
X170832114Y-80874990D02*
X173075000Y-83117876D01*
X167725010Y-80874990D02*
X170832114Y-80874990D01*
X173075000Y-83117876D02*
X173075000Y-84100000D01*
D15*
%TO.N,Net-(C10-Pad1)*%
X159625000Y-86950000D02*
X159575000Y-86900000D01*
X159625000Y-89600000D02*
X159625000Y-86950000D01*
X159580000Y-86895000D02*
X159575000Y-86900000D01*
X162475000Y-86895000D02*
X159580000Y-86895000D01*
%TO.N,/OUTB*%
X167725000Y-89435000D02*
X166900000Y-89435000D01*
X166900000Y-89435000D02*
X166462022Y-89872978D01*
X166462022Y-89872978D02*
X166462022Y-93937978D01*
X166462022Y-93937978D02*
X164400000Y-96000000D01*
%TO.N,/OUTG*%
X167725000Y-88165000D02*
X166535000Y-88165000D01*
X166535000Y-88165000D02*
X165881011Y-88818989D01*
X165881011Y-88818989D02*
X165881011Y-92818979D01*
X165881011Y-92818979D02*
X164399990Y-94300000D01*
%TO.N,/OUTR*%
X165300000Y-88495000D02*
X165300000Y-91599994D01*
X166900000Y-86895000D02*
X165300000Y-88495000D01*
X165300000Y-91599994D02*
X164299994Y-92600000D01*
X167725000Y-86895000D02*
X166900000Y-86895000D01*
D16*
%TO.N,/P36*%
X175100000Y-80700000D02*
X176200000Y-80700000D01*
X176200000Y-80700000D02*
X177000000Y-79900000D01*
X170300000Y-86900000D02*
X171475000Y-86900000D01*
%TO.N,/P32*%
X169450000Y-74700000D02*
X170450000Y-75700000D01*
X169200000Y-74700000D02*
X169450000Y-74700000D01*
D17*
%TO.N,/P33*%
X164050000Y-83775000D02*
X164075000Y-83800000D01*
X162800000Y-83775000D02*
X164050000Y-83775000D01*
%TO.N,/P11*%
X167200000Y-83125000D02*
X167200000Y-84425000D01*
X168200000Y-83800000D02*
X167225000Y-83800000D01*
X168400000Y-84000000D02*
X168200000Y-83800000D01*
X167225000Y-83800000D02*
X167200000Y-83775000D01*
X169600000Y-84000000D02*
X168400000Y-84000000D01*
%TO.N,/P17*%
X161749999Y-84999999D02*
X161749999Y-81849999D01*
X161825000Y-85075000D02*
X161749999Y-84999999D01*
X161749999Y-81849999D02*
X160300000Y-80400000D01*
X162800000Y-85075000D02*
X161825000Y-85075000D01*
%TO.N,/P16*%
X165700000Y-87035000D02*
X165700000Y-80103774D01*
X163300000Y-89435000D02*
X165700000Y-87035000D01*
X162475000Y-89435000D02*
X163300000Y-89435000D01*
X165700000Y-80103774D02*
X165425010Y-79828784D01*
%TO.N,/P15*%
X162475000Y-88165000D02*
X163535000Y-88165000D01*
X163535000Y-88165000D02*
X165249989Y-86450011D01*
X165249989Y-86450011D02*
X165249989Y-80574253D01*
X165249989Y-80574253D02*
X164400000Y-79724264D01*
X164400000Y-79724264D02*
X164400000Y-78600000D01*
%TO.N,/P14*%
X163400000Y-79360674D02*
X163400000Y-77970000D01*
X164700001Y-80660675D02*
X163400000Y-79360674D01*
X164700001Y-84200000D02*
X164700001Y-80660675D01*
X164475001Y-84425000D02*
X164700001Y-84200000D01*
X162800000Y-84425000D02*
X164475001Y-84425000D01*
%TD*%
D16*
%TO.N,GND*%
X164698814Y-75272984D02*
X164711526Y-75288474D01*
X164737573Y-75309850D01*
X164773347Y-75339209D01*
X164843878Y-75376909D01*
X164920410Y-75400125D01*
X165000000Y-75407963D01*
X165079589Y-75400125D01*
X165156121Y-75376909D01*
X165226652Y-75339209D01*
X165288474Y-75288474D01*
X165301191Y-75272978D01*
X165941242Y-74632927D01*
X168519000Y-74632927D01*
X168519000Y-74767073D01*
X168545171Y-74898640D01*
X168596506Y-75022574D01*
X168671033Y-75134112D01*
X168765888Y-75228967D01*
X168877426Y-75303494D01*
X169001360Y-75354829D01*
X169132927Y-75381000D01*
X169198820Y-75381000D01*
X169208413Y-75381242D01*
X169220187Y-75382186D01*
X169240970Y-75384699D01*
X169269153Y-75388993D01*
X169303978Y-75395174D01*
X169344708Y-75403232D01*
X169391018Y-75413180D01*
X169442541Y-75424984D01*
X169461024Y-75429444D01*
X169705416Y-75673836D01*
X169714662Y-75683748D01*
X169717157Y-75686845D01*
X169717157Y-76025000D01*
X169727876Y-76133830D01*
X169759620Y-76238477D01*
X169811170Y-76334921D01*
X169880545Y-76419455D01*
X169965079Y-76488830D01*
X170061523Y-76540380D01*
X170166170Y-76572124D01*
X170275000Y-76582843D01*
X170625000Y-76582843D01*
X170733830Y-76572124D01*
X170838477Y-76540380D01*
X170934921Y-76488830D01*
X171019455Y-76419455D01*
X171088830Y-76334921D01*
X171140380Y-76238477D01*
X171172124Y-76133830D01*
X171182843Y-76025000D01*
X171182843Y-75375000D01*
X171172124Y-75266170D01*
X171140380Y-75161523D01*
X171088830Y-75065079D01*
X171019455Y-74980545D01*
X170934921Y-74911170D01*
X170838477Y-74859620D01*
X170733830Y-74827876D01*
X170625000Y-74817157D01*
X170285577Y-74817157D01*
X169826855Y-74358435D01*
X169810948Y-74339052D01*
X169737673Y-74278918D01*
X169728967Y-74265888D01*
X169634112Y-74171033D01*
X169522574Y-74096506D01*
X169398640Y-74045171D01*
X169267073Y-74019000D01*
X169132927Y-74019000D01*
X169001360Y-74045171D01*
X168877426Y-74096506D01*
X168765888Y-74171033D01*
X168671033Y-74265888D01*
X168596506Y-74377426D01*
X168545171Y-74501360D01*
X168519000Y-74632927D01*
X165941242Y-74632927D01*
X170168170Y-70406000D01*
X179831831Y-70406000D01*
X184594000Y-75168170D01*
X184594001Y-84796999D01*
X165995499Y-98745876D01*
X166002279Y-98735729D01*
X166087536Y-98529900D01*
X166131000Y-98311394D01*
X166131000Y-98088606D01*
X166087536Y-97870100D01*
X166002279Y-97664271D01*
X165878505Y-97479030D01*
X165720970Y-97321495D01*
X165535729Y-97197721D01*
X165329900Y-97112464D01*
X165111394Y-97069000D01*
X164888606Y-97069000D01*
X164670100Y-97112464D01*
X164464271Y-97197721D01*
X164279030Y-97321495D01*
X164121495Y-97479030D01*
X163997721Y-97664271D01*
X163912464Y-97870100D01*
X163869000Y-98088606D01*
X163869000Y-98311394D01*
X163912464Y-98529900D01*
X163997721Y-98735729D01*
X164004501Y-98745876D01*
X145406000Y-84797001D01*
X145406000Y-78523078D01*
X151619000Y-78523078D01*
X151619000Y-78676922D01*
X151649013Y-78827809D01*
X151707887Y-78969942D01*
X151764066Y-79054020D01*
X151764123Y-79055449D01*
X151764767Y-79085397D01*
X151765001Y-79121394D01*
X151765000Y-88068819D01*
X151761929Y-88100000D01*
X151765000Y-88131181D01*
X151765000Y-88131191D01*
X151774188Y-88224481D01*
X151810498Y-88344179D01*
X151869463Y-88454493D01*
X151948815Y-88551185D01*
X151973050Y-88571074D01*
X153428930Y-90026955D01*
X153448815Y-90051185D01*
X153491973Y-90086604D01*
X153545505Y-90130537D01*
X153566214Y-90141606D01*
X153655820Y-90189502D01*
X153775518Y-90225812D01*
X153868808Y-90235000D01*
X153868818Y-90235000D01*
X153899999Y-90238071D01*
X153931180Y-90235000D01*
X157320084Y-90235000D01*
X157362868Y-90287132D01*
X157365000Y-90288882D01*
X157365000Y-90387817D01*
X157361929Y-90418998D01*
X157365000Y-90450179D01*
X157365000Y-90450189D01*
X157374188Y-90543479D01*
X157410498Y-90663177D01*
X157469463Y-90773491D01*
X157548815Y-90870183D01*
X157573050Y-90890072D01*
X158422859Y-91739882D01*
X158448101Y-91765455D01*
X158468777Y-91787039D01*
X158469787Y-91788133D01*
X158489514Y-91887308D01*
X158548388Y-92029441D01*
X158633859Y-92157358D01*
X158742642Y-92266141D01*
X158870559Y-92351612D01*
X159012692Y-92410486D01*
X159163579Y-92440499D01*
X159317423Y-92440499D01*
X159468310Y-92410486D01*
X159610443Y-92351612D01*
X159738360Y-92266141D01*
X159847143Y-92157358D01*
X159932614Y-92029441D01*
X159991488Y-91887308D01*
X160021501Y-91736421D01*
X160021501Y-91582577D01*
X159991488Y-91431690D01*
X159932614Y-91289557D01*
X159847143Y-91161640D01*
X159738360Y-91052857D01*
X159610443Y-90967386D01*
X159468310Y-90908512D01*
X159369135Y-90888785D01*
X159368041Y-90887775D01*
X159346457Y-90867099D01*
X159320884Y-90841857D01*
X158665963Y-90186936D01*
X158713477Y-90098044D01*
X158746644Y-89988707D01*
X158757843Y-89875000D01*
X158757843Y-89325000D01*
X158746644Y-89211293D01*
X158713477Y-89101956D01*
X158659616Y-89001190D01*
X158587132Y-88912868D01*
X158498810Y-88840384D01*
X158398044Y-88786523D01*
X158288707Y-88753356D01*
X158175000Y-88742157D01*
X157775000Y-88742157D01*
X157661293Y-88753356D01*
X157551956Y-88786523D01*
X157451190Y-88840384D01*
X157362868Y-88912868D01*
X157320084Y-88965000D01*
X154163025Y-88965000D01*
X153035000Y-87836976D01*
X153035000Y-83750000D01*
X155192157Y-83750000D01*
X155192157Y-84250000D01*
X155203837Y-84368584D01*
X155238426Y-84482611D01*
X155294597Y-84587699D01*
X155370190Y-84679810D01*
X155462301Y-84755403D01*
X155567389Y-84811574D01*
X155681416Y-84846163D01*
X155800000Y-84857843D01*
X156250000Y-84857843D01*
X156368584Y-84846163D01*
X156482611Y-84811574D01*
X156587699Y-84755403D01*
X156679810Y-84679810D01*
X156755403Y-84587699D01*
X156800000Y-84504264D01*
X156844597Y-84587699D01*
X156920190Y-84679810D01*
X157012301Y-84755403D01*
X157117389Y-84811574D01*
X157231416Y-84846163D01*
X157350000Y-84857843D01*
X157800000Y-84857843D01*
X157918584Y-84846163D01*
X158032611Y-84811574D01*
X158137699Y-84755403D01*
X158229810Y-84679810D01*
X158305403Y-84587699D01*
X158347748Y-84508477D01*
X158361433Y-84508000D01*
X158375056Y-84508000D01*
X158400000Y-84510457D01*
X158424944Y-84508000D01*
X158424947Y-84508000D01*
X158499585Y-84500649D01*
X158595343Y-84471601D01*
X158683595Y-84424429D01*
X158760948Y-84360948D01*
X158776855Y-84341565D01*
X159612421Y-83506000D01*
X159642073Y-83506000D01*
X159773640Y-83479829D01*
X159897574Y-83428494D01*
X160009112Y-83353967D01*
X160103967Y-83259112D01*
X160178494Y-83147574D01*
X160229829Y-83023640D01*
X160256000Y-82892073D01*
X160256000Y-82757927D01*
X160229829Y-82626360D01*
X160178494Y-82502426D01*
X160157195Y-82470550D01*
X160219455Y-82419455D01*
X160288830Y-82334921D01*
X160340380Y-82238477D01*
X160372124Y-82133830D01*
X160382843Y-82025000D01*
X160382843Y-81375000D01*
X160372124Y-81266170D01*
X160340380Y-81161523D01*
X160334005Y-81149596D01*
X161244000Y-82059592D01*
X161243999Y-84975153D01*
X161241552Y-84999999D01*
X161243999Y-85024845D01*
X161243999Y-85024852D01*
X161251321Y-85099191D01*
X161280254Y-85194573D01*
X161327240Y-85282478D01*
X161390472Y-85359526D01*
X161409784Y-85375375D01*
X161449624Y-85415215D01*
X161465473Y-85434527D01*
X161542521Y-85497759D01*
X161630425Y-85544745D01*
X161725807Y-85573678D01*
X161800146Y-85581000D01*
X161800153Y-85581000D01*
X161819100Y-85582866D01*
X161862304Y-85618322D01*
X161928492Y-85653701D01*
X162000311Y-85675487D01*
X162075000Y-85682843D01*
X163525000Y-85682843D01*
X163599689Y-85675487D01*
X163671508Y-85653701D01*
X163737696Y-85618322D01*
X163795711Y-85570711D01*
X163843322Y-85512696D01*
X163878701Y-85446508D01*
X163900487Y-85374689D01*
X163907843Y-85300000D01*
X163907843Y-84931000D01*
X164450155Y-84931000D01*
X164475001Y-84933447D01*
X164499847Y-84931000D01*
X164499855Y-84931000D01*
X164574194Y-84923678D01*
X164669576Y-84894745D01*
X164743989Y-84854970D01*
X164743989Y-86240419D01*
X163424149Y-87560260D01*
X163367536Y-87530000D01*
X163446032Y-87488043D01*
X163526777Y-87421777D01*
X163593043Y-87341032D01*
X163642283Y-87248910D01*
X163672605Y-87148953D01*
X163682843Y-87045000D01*
X163682843Y-86745000D01*
X163672605Y-86641047D01*
X163642283Y-86541090D01*
X163593043Y-86448968D01*
X163526777Y-86368223D01*
X163446032Y-86301957D01*
X163353910Y-86252717D01*
X163253953Y-86222395D01*
X163150000Y-86212157D01*
X161800000Y-86212157D01*
X161696047Y-86222395D01*
X161596090Y-86252717D01*
X161503968Y-86301957D01*
X161477718Y-86323500D01*
X160311389Y-86323500D01*
X160305403Y-86312301D01*
X160229810Y-86220190D01*
X160137699Y-86144597D01*
X160032611Y-86088426D01*
X159918584Y-86053837D01*
X159800000Y-86042157D01*
X159350000Y-86042157D01*
X159231416Y-86053837D01*
X159117389Y-86088426D01*
X159012301Y-86144597D01*
X158920190Y-86220190D01*
X158844597Y-86312301D01*
X158788426Y-86417389D01*
X158753837Y-86531416D01*
X158742157Y-86650000D01*
X158742157Y-87150000D01*
X158753837Y-87268584D01*
X158788426Y-87382611D01*
X158844597Y-87487699D01*
X158920190Y-87579810D01*
X159012301Y-87655403D01*
X159053501Y-87677425D01*
X159053500Y-88879522D01*
X159012868Y-88912868D01*
X158940384Y-89001190D01*
X158886523Y-89101956D01*
X158853356Y-89211293D01*
X158842157Y-89325000D01*
X158842157Y-89875000D01*
X158853356Y-89988707D01*
X158886523Y-90098044D01*
X158940384Y-90198810D01*
X159012868Y-90287132D01*
X159101190Y-90359616D01*
X159201956Y-90413477D01*
X159311293Y-90446644D01*
X159425000Y-90457843D01*
X159825000Y-90457843D01*
X159938707Y-90446644D01*
X160048044Y-90413477D01*
X160148810Y-90359616D01*
X160237132Y-90287132D01*
X160309616Y-90198810D01*
X160363477Y-90098044D01*
X160396644Y-89988707D01*
X160407843Y-89875000D01*
X160407843Y-89325000D01*
X160396644Y-89211293D01*
X160363477Y-89101956D01*
X160309616Y-89001190D01*
X160237132Y-88912868D01*
X160196500Y-88879522D01*
X160196500Y-87607147D01*
X160229810Y-87579810D01*
X160305403Y-87487699D01*
X160316734Y-87466500D01*
X161477718Y-87466500D01*
X161503968Y-87488043D01*
X161582464Y-87530000D01*
X161503968Y-87571957D01*
X161423223Y-87638223D01*
X161356957Y-87718968D01*
X161307717Y-87811090D01*
X161277395Y-87911047D01*
X161267157Y-88015000D01*
X161267157Y-88315000D01*
X161277395Y-88418953D01*
X161307717Y-88518910D01*
X161356957Y-88611032D01*
X161423223Y-88691777D01*
X161503968Y-88758043D01*
X161582464Y-88800000D01*
X161503968Y-88841957D01*
X161423223Y-88908223D01*
X161356957Y-88988968D01*
X161307717Y-89081090D01*
X161277395Y-89181047D01*
X161267157Y-89285000D01*
X161267157Y-89585000D01*
X161277395Y-89688953D01*
X161307717Y-89788910D01*
X161356957Y-89881032D01*
X161423223Y-89961777D01*
X161503968Y-90028043D01*
X161582464Y-90070000D01*
X161503968Y-90111957D01*
X161423223Y-90178223D01*
X161356957Y-90258968D01*
X161307717Y-90351090D01*
X161277395Y-90451047D01*
X161267157Y-90555000D01*
X161267157Y-90855000D01*
X161277395Y-90958953D01*
X161307717Y-91058910D01*
X161356957Y-91151032D01*
X161423223Y-91231777D01*
X161503968Y-91298043D01*
X161596090Y-91347283D01*
X161696047Y-91377605D01*
X161800000Y-91387843D01*
X163150000Y-91387843D01*
X163253953Y-91377605D01*
X163353910Y-91347283D01*
X163446032Y-91298043D01*
X163526777Y-91231777D01*
X163593043Y-91151032D01*
X163642283Y-91058910D01*
X163672605Y-90958953D01*
X163682843Y-90855000D01*
X163682843Y-90555000D01*
X163672605Y-90451047D01*
X163642283Y-90351090D01*
X163593043Y-90258968D01*
X163526777Y-90178223D01*
X163446032Y-90111957D01*
X163367536Y-90070000D01*
X163446032Y-90028043D01*
X163526777Y-89961777D01*
X163593043Y-89881032D01*
X163623459Y-89824127D01*
X163659527Y-89794527D01*
X163675376Y-89775215D01*
X164728500Y-88722091D01*
X164728501Y-91363270D01*
X164272772Y-91819000D01*
X164223072Y-91819000D01*
X164072185Y-91849013D01*
X163930052Y-91907887D01*
X163802135Y-91993358D01*
X163693352Y-92102141D01*
X163607881Y-92230058D01*
X163549007Y-92372191D01*
X163518994Y-92523078D01*
X163518994Y-92676922D01*
X163549007Y-92827809D01*
X163607881Y-92969942D01*
X163693352Y-93097859D01*
X163802135Y-93206642D01*
X163930052Y-93292113D01*
X164072185Y-93350987D01*
X164223072Y-93381000D01*
X164376916Y-93381000D01*
X164527803Y-93350987D01*
X164549957Y-93341810D01*
X164372768Y-93519000D01*
X164323068Y-93519000D01*
X164172181Y-93549013D01*
X164030048Y-93607887D01*
X163902131Y-93693358D01*
X163793348Y-93802141D01*
X163707877Y-93930058D01*
X163649003Y-94072191D01*
X163618990Y-94223078D01*
X163618990Y-94376922D01*
X163649003Y-94527809D01*
X163707877Y-94669942D01*
X163793348Y-94797859D01*
X163902131Y-94906642D01*
X164030048Y-94992113D01*
X164172181Y-95050987D01*
X164323068Y-95081000D01*
X164476912Y-95081000D01*
X164519187Y-95072591D01*
X164372778Y-95219000D01*
X164323078Y-95219000D01*
X164172191Y-95249013D01*
X164030058Y-95307887D01*
X163902141Y-95393358D01*
X163793358Y-95502141D01*
X163707887Y-95630058D01*
X163649013Y-95772191D01*
X163619000Y-95923078D01*
X163619000Y-96076922D01*
X163649013Y-96227809D01*
X163707887Y-96369942D01*
X163793358Y-96497859D01*
X163902141Y-96606642D01*
X164030058Y-96692113D01*
X164172191Y-96750987D01*
X164323078Y-96781000D01*
X164476922Y-96781000D01*
X164627809Y-96750987D01*
X164769942Y-96692113D01*
X164897859Y-96606642D01*
X165006642Y-96497859D01*
X165092113Y-96369942D01*
X165150987Y-96227809D01*
X165181000Y-96076922D01*
X165181000Y-96027222D01*
X166846279Y-94361944D01*
X166868089Y-94344045D01*
X166939506Y-94257023D01*
X166992574Y-94157740D01*
X167025253Y-94050012D01*
X167033522Y-93966052D01*
X167033522Y-93966051D01*
X167036287Y-93937979D01*
X167033522Y-93909907D01*
X167033522Y-90116220D01*
X167050000Y-90117843D01*
X168400000Y-90117843D01*
X168503953Y-90107605D01*
X168603910Y-90077283D01*
X168696032Y-90028043D01*
X168776777Y-89961777D01*
X168843043Y-89881032D01*
X168892283Y-89788910D01*
X168922605Y-89688953D01*
X168932843Y-89585000D01*
X168932843Y-89285000D01*
X168922605Y-89181047D01*
X168892283Y-89081090D01*
X168843043Y-88988968D01*
X168776777Y-88908223D01*
X168696032Y-88841957D01*
X168617536Y-88800000D01*
X168696032Y-88758043D01*
X168776777Y-88691777D01*
X168843043Y-88611032D01*
X168892283Y-88518910D01*
X168922605Y-88418953D01*
X168932843Y-88315000D01*
X168932843Y-88015000D01*
X168922605Y-87911047D01*
X168892283Y-87811090D01*
X168843043Y-87718968D01*
X168776777Y-87638223D01*
X168696032Y-87571957D01*
X168617536Y-87530000D01*
X168696032Y-87488043D01*
X168776777Y-87421777D01*
X168843043Y-87341032D01*
X168892283Y-87248910D01*
X168922605Y-87148953D01*
X168932843Y-87045000D01*
X168932843Y-86832927D01*
X169619000Y-86832927D01*
X169619000Y-86967073D01*
X169645171Y-87098640D01*
X169696506Y-87222574D01*
X169771033Y-87334112D01*
X169865888Y-87428967D01*
X169977426Y-87503494D01*
X170101360Y-87554829D01*
X170232927Y-87581000D01*
X170367073Y-87581000D01*
X170498640Y-87554829D01*
X170622574Y-87503494D01*
X170734112Y-87428967D01*
X170746455Y-87416624D01*
X170790384Y-87498810D01*
X170862868Y-87587132D01*
X170951190Y-87659616D01*
X171051956Y-87713477D01*
X171161293Y-87746644D01*
X171275000Y-87757843D01*
X171675000Y-87757843D01*
X171788707Y-87746644D01*
X171898044Y-87713477D01*
X171998810Y-87659616D01*
X172087132Y-87587132D01*
X172159616Y-87498810D01*
X172213477Y-87398044D01*
X172246644Y-87288707D01*
X172257843Y-87175000D01*
X172257843Y-86625000D01*
X172246644Y-86511293D01*
X172213477Y-86401956D01*
X172159616Y-86301190D01*
X172087132Y-86212868D01*
X171998810Y-86140384D01*
X171898044Y-86086523D01*
X171788707Y-86053356D01*
X171675000Y-86042157D01*
X171275000Y-86042157D01*
X171161293Y-86053356D01*
X171051956Y-86086523D01*
X170951190Y-86140384D01*
X170862868Y-86212868D01*
X170790384Y-86301190D01*
X170746455Y-86383376D01*
X170734112Y-86371033D01*
X170622574Y-86296506D01*
X170498640Y-86245171D01*
X170367073Y-86219000D01*
X170232927Y-86219000D01*
X170101360Y-86245171D01*
X169977426Y-86296506D01*
X169865888Y-86371033D01*
X169771033Y-86465888D01*
X169696506Y-86577426D01*
X169645171Y-86701360D01*
X169619000Y-86832927D01*
X168932843Y-86832927D01*
X168932843Y-86745000D01*
X168922605Y-86641047D01*
X168892283Y-86541090D01*
X168843043Y-86448968D01*
X168776777Y-86368223D01*
X168696032Y-86301957D01*
X168603910Y-86252717D01*
X168503953Y-86222395D01*
X168400000Y-86212157D01*
X167050000Y-86212157D01*
X166946047Y-86222395D01*
X166846090Y-86252717D01*
X166753968Y-86301957D01*
X166673312Y-86368150D01*
X166580955Y-86417516D01*
X166493933Y-86488933D01*
X166476034Y-86510743D01*
X166206000Y-86780777D01*
X166206000Y-85572115D01*
X166262304Y-85618322D01*
X166328492Y-85653701D01*
X166400311Y-85675487D01*
X166475000Y-85682843D01*
X167925000Y-85682843D01*
X167999689Y-85675487D01*
X168071508Y-85653701D01*
X168084980Y-85646500D01*
X169518868Y-85646500D01*
X169546942Y-85649265D01*
X169575016Y-85646500D01*
X169658976Y-85638231D01*
X169766704Y-85605552D01*
X169865987Y-85552484D01*
X169953009Y-85481067D01*
X169970912Y-85459252D01*
X170771315Y-84658850D01*
X170793124Y-84640952D01*
X170864541Y-84553930D01*
X170917609Y-84454647D01*
X170950288Y-84346919D01*
X170954638Y-84302751D01*
X170961322Y-84234886D01*
X170958557Y-84206812D01*
X170958557Y-83651646D01*
X170993699Y-83616504D01*
X171079170Y-83488587D01*
X171138044Y-83346454D01*
X171168057Y-83195567D01*
X171168057Y-83041723D01*
X171138044Y-82890836D01*
X171079170Y-82748703D01*
X170993699Y-82620786D01*
X170887233Y-82514320D01*
X170934921Y-82488830D01*
X171019455Y-82419455D01*
X171088830Y-82334921D01*
X171140380Y-82238477D01*
X171172124Y-82133830D01*
X171182843Y-82025000D01*
X171182843Y-81941310D01*
X172560413Y-83318881D01*
X172512301Y-83344597D01*
X172420190Y-83420190D01*
X172344597Y-83512301D01*
X172288426Y-83617389D01*
X172253837Y-83731416D01*
X172242157Y-83850000D01*
X172242157Y-84350000D01*
X172253837Y-84468584D01*
X172288426Y-84582611D01*
X172344597Y-84687699D01*
X172420190Y-84779810D01*
X172512301Y-84855403D01*
X172568803Y-84885604D01*
X172569000Y-84891273D01*
X172569001Y-86166801D01*
X172512868Y-86212868D01*
X172440384Y-86301190D01*
X172386523Y-86401956D01*
X172353356Y-86511293D01*
X172342157Y-86625000D01*
X172342157Y-87175000D01*
X172353356Y-87288707D01*
X172386523Y-87398044D01*
X172440384Y-87498810D01*
X172512868Y-87587132D01*
X172601190Y-87659616D01*
X172701956Y-87713477D01*
X172811293Y-87746644D01*
X172925000Y-87757843D01*
X173325000Y-87757843D01*
X173438707Y-87746644D01*
X173548044Y-87713477D01*
X173648810Y-87659616D01*
X173737132Y-87587132D01*
X173809616Y-87498810D01*
X173863477Y-87398044D01*
X173896644Y-87288707D01*
X173907843Y-87175000D01*
X173907843Y-86625000D01*
X173896644Y-86511293D01*
X173863477Y-86401956D01*
X173809616Y-86301190D01*
X173737132Y-86212868D01*
X173648810Y-86140384D01*
X173581000Y-86104138D01*
X173581000Y-84891265D01*
X173581197Y-84885604D01*
X173637699Y-84855403D01*
X173729810Y-84779810D01*
X173805403Y-84687699D01*
X173861574Y-84582611D01*
X173896163Y-84468584D01*
X173907843Y-84350000D01*
X173907843Y-83850000D01*
X173896163Y-83731416D01*
X173861574Y-83617389D01*
X173805403Y-83512301D01*
X173729810Y-83420190D01*
X173637699Y-83344597D01*
X173581197Y-83314396D01*
X173581000Y-83308734D01*
X173581000Y-83142730D01*
X173583448Y-83117876D01*
X173573678Y-83018683D01*
X173544745Y-82923301D01*
X173524124Y-82884723D01*
X173497759Y-82835397D01*
X173434527Y-82758349D01*
X173415220Y-82742504D01*
X171305643Y-80632927D01*
X174419000Y-80632927D01*
X174419000Y-80767073D01*
X174445171Y-80898640D01*
X174496506Y-81022574D01*
X174571033Y-81134112D01*
X174665888Y-81228967D01*
X174777426Y-81303494D01*
X174901360Y-81354829D01*
X175032927Y-81381000D01*
X175167073Y-81381000D01*
X175298640Y-81354829D01*
X175422574Y-81303494D01*
X175534112Y-81228967D01*
X175555079Y-81208000D01*
X176175056Y-81208000D01*
X176200000Y-81210457D01*
X176224944Y-81208000D01*
X176224947Y-81208000D01*
X176299585Y-81200649D01*
X176395343Y-81171601D01*
X176483595Y-81124429D01*
X176560948Y-81060948D01*
X176576855Y-81041565D01*
X177037420Y-80581000D01*
X177067073Y-80581000D01*
X177198640Y-80554829D01*
X177322574Y-80503494D01*
X177434112Y-80428967D01*
X177528967Y-80334112D01*
X177603494Y-80222574D01*
X177654829Y-80098640D01*
X177681000Y-79967073D01*
X177681000Y-79832927D01*
X177654829Y-79701360D01*
X177603494Y-79577426D01*
X177528967Y-79465888D01*
X177434112Y-79371033D01*
X177322574Y-79296506D01*
X177198640Y-79245171D01*
X177067073Y-79219000D01*
X176932927Y-79219000D01*
X176801360Y-79245171D01*
X176677426Y-79296506D01*
X176565888Y-79371033D01*
X176471033Y-79465888D01*
X176396506Y-79577426D01*
X176345171Y-79701360D01*
X176319000Y-79832927D01*
X176319000Y-79862580D01*
X175989580Y-80192000D01*
X175555079Y-80192000D01*
X175534112Y-80171033D01*
X175422574Y-80096506D01*
X175298640Y-80045171D01*
X175167073Y-80019000D01*
X175032927Y-80019000D01*
X174901360Y-80045171D01*
X174777426Y-80096506D01*
X174665888Y-80171033D01*
X174571033Y-80265888D01*
X174496506Y-80377426D01*
X174445171Y-80501360D01*
X174419000Y-80632927D01*
X171305643Y-80632927D01*
X171207490Y-80534775D01*
X171191641Y-80515463D01*
X171114593Y-80452231D01*
X171026689Y-80405245D01*
X170931307Y-80376312D01*
X170856968Y-80368990D01*
X170856960Y-80368990D01*
X170832114Y-80366543D01*
X170807268Y-80368990D01*
X167749855Y-80368990D01*
X167725009Y-80366543D01*
X167700163Y-80368990D01*
X167700156Y-80368990D01*
X167639818Y-80374933D01*
X167625816Y-80376312D01*
X167614720Y-80379678D01*
X167530435Y-80405245D01*
X167442531Y-80452231D01*
X167365483Y-80515463D01*
X167349638Y-80534770D01*
X167067251Y-80817157D01*
X166730990Y-80817157D01*
X166730990Y-77747933D01*
X166733447Y-77722989D01*
X166730990Y-77698043D01*
X166723639Y-77623405D01*
X166694591Y-77527647D01*
X166679950Y-77500255D01*
X166647419Y-77439394D01*
X166599840Y-77381419D01*
X166583938Y-77362042D01*
X166564560Y-77346139D01*
X166481000Y-77262579D01*
X166481000Y-77232927D01*
X166454829Y-77101360D01*
X166403494Y-76977426D01*
X166328967Y-76865888D01*
X166234112Y-76771033D01*
X166122574Y-76696506D01*
X166010298Y-76650000D01*
X166122574Y-76603494D01*
X166234112Y-76528967D01*
X166328967Y-76434112D01*
X166335851Y-76423809D01*
X166415079Y-76488830D01*
X166511523Y-76540380D01*
X166616170Y-76572124D01*
X166725000Y-76582843D01*
X167075000Y-76582843D01*
X167183830Y-76572124D01*
X167288477Y-76540380D01*
X167384921Y-76488830D01*
X167469455Y-76419455D01*
X167538830Y-76334921D01*
X167590380Y-76238477D01*
X167622124Y-76133830D01*
X167632843Y-76025000D01*
X167632843Y-75375000D01*
X167622124Y-75266170D01*
X167590380Y-75161523D01*
X167538830Y-75065079D01*
X167469455Y-74980545D01*
X167384921Y-74911170D01*
X167288477Y-74859620D01*
X167183830Y-74827876D01*
X167075000Y-74817157D01*
X166725000Y-74817157D01*
X166616170Y-74827876D01*
X166511523Y-74859620D01*
X166415079Y-74911170D01*
X166330545Y-74980545D01*
X166261170Y-75065079D01*
X166209620Y-75161523D01*
X166177876Y-75266170D01*
X166167157Y-75375000D01*
X166167157Y-75426295D01*
X166122574Y-75396506D01*
X165998640Y-75345171D01*
X165867073Y-75319000D01*
X165732927Y-75319000D01*
X165601360Y-75345171D01*
X165477426Y-75396506D01*
X165429748Y-75428364D01*
X165408752Y-75428500D01*
X163932843Y-75428500D01*
X163932843Y-75375000D01*
X163922124Y-75266170D01*
X163890380Y-75161523D01*
X163838830Y-75065079D01*
X163769455Y-74980545D01*
X163684921Y-74911170D01*
X163588477Y-74859620D01*
X163483830Y-74827876D01*
X163375000Y-74817157D01*
X163125379Y-74817157D01*
X162733460Y-74425238D01*
X162715557Y-74403423D01*
X162628535Y-74332006D01*
X162529252Y-74278938D01*
X162421524Y-74246259D01*
X162337564Y-74237990D01*
X162309490Y-74235225D01*
X162281416Y-74237990D01*
X156868581Y-74237990D01*
X156840509Y-74235225D01*
X156812437Y-74237990D01*
X156812436Y-74237990D01*
X156728476Y-74246259D01*
X156620748Y-74278938D01*
X156521465Y-74332006D01*
X156434443Y-74403423D01*
X156416544Y-74425233D01*
X156024620Y-74817157D01*
X155775000Y-74817157D01*
X155666170Y-74827876D01*
X155561523Y-74859620D01*
X155465079Y-74911170D01*
X155380545Y-74980545D01*
X155311170Y-75065079D01*
X155259620Y-75161523D01*
X155227876Y-75266170D01*
X155217157Y-75375000D01*
X155217157Y-76025000D01*
X155227876Y-76133830D01*
X155259620Y-76238477D01*
X155311170Y-76334921D01*
X155380545Y-76419455D01*
X155444000Y-76471531D01*
X155444001Y-80928468D01*
X155380545Y-80980545D01*
X155311170Y-81065079D01*
X155259620Y-81161523D01*
X155227876Y-81266170D01*
X155217157Y-81375000D01*
X155217157Y-82025000D01*
X155227876Y-82133830D01*
X155259620Y-82238477D01*
X155311170Y-82334921D01*
X155315000Y-82339588D01*
X155315001Y-83387439D01*
X155294597Y-83412301D01*
X155238426Y-83517389D01*
X155203837Y-83631416D01*
X155192157Y-83750000D01*
X153035000Y-83750000D01*
X153035000Y-79121249D01*
X153035233Y-79085397D01*
X153035877Y-79055449D01*
X153035934Y-79054020D01*
X153092113Y-78969942D01*
X153150987Y-78827809D01*
X153181000Y-78676922D01*
X153181000Y-78523078D01*
X153150987Y-78372191D01*
X153092113Y-78230058D01*
X153006642Y-78102141D01*
X152897859Y-77993358D01*
X152769942Y-77907887D01*
X152627809Y-77849013D01*
X152476922Y-77819000D01*
X152323078Y-77819000D01*
X152172191Y-77849013D01*
X152030058Y-77907887D01*
X151902141Y-77993358D01*
X151793358Y-78102141D01*
X151707887Y-78230058D01*
X151649013Y-78372191D01*
X151619000Y-78523078D01*
X145406000Y-78523078D01*
X145406000Y-75168169D01*
X150168170Y-70406000D01*
X159831831Y-70406000D01*
X164698814Y-75272984D01*
%TA.AperFunction,Conductor*%
D19*
G36*
X164698814Y-75272984D02*
G01*
X164711526Y-75288474D01*
X164737573Y-75309850D01*
X164773347Y-75339209D01*
X164843878Y-75376909D01*
X164920410Y-75400125D01*
X165000000Y-75407963D01*
X165079589Y-75400125D01*
X165156121Y-75376909D01*
X165226652Y-75339209D01*
X165288474Y-75288474D01*
X165301191Y-75272978D01*
X165941242Y-74632927D01*
X168519000Y-74632927D01*
X168519000Y-74767073D01*
X168545171Y-74898640D01*
X168596506Y-75022574D01*
X168671033Y-75134112D01*
X168765888Y-75228967D01*
X168877426Y-75303494D01*
X169001360Y-75354829D01*
X169132927Y-75381000D01*
X169198820Y-75381000D01*
X169208413Y-75381242D01*
X169220187Y-75382186D01*
X169240970Y-75384699D01*
X169269153Y-75388993D01*
X169303978Y-75395174D01*
X169344708Y-75403232D01*
X169391018Y-75413180D01*
X169442541Y-75424984D01*
X169461024Y-75429444D01*
X169705416Y-75673836D01*
X169714662Y-75683748D01*
X169717157Y-75686845D01*
X169717157Y-76025000D01*
X169727876Y-76133830D01*
X169759620Y-76238477D01*
X169811170Y-76334921D01*
X169880545Y-76419455D01*
X169965079Y-76488830D01*
X170061523Y-76540380D01*
X170166170Y-76572124D01*
X170275000Y-76582843D01*
X170625000Y-76582843D01*
X170733830Y-76572124D01*
X170838477Y-76540380D01*
X170934921Y-76488830D01*
X171019455Y-76419455D01*
X171088830Y-76334921D01*
X171140380Y-76238477D01*
X171172124Y-76133830D01*
X171182843Y-76025000D01*
X171182843Y-75375000D01*
X171172124Y-75266170D01*
X171140380Y-75161523D01*
X171088830Y-75065079D01*
X171019455Y-74980545D01*
X170934921Y-74911170D01*
X170838477Y-74859620D01*
X170733830Y-74827876D01*
X170625000Y-74817157D01*
X170285577Y-74817157D01*
X169826855Y-74358435D01*
X169810948Y-74339052D01*
X169737673Y-74278918D01*
X169728967Y-74265888D01*
X169634112Y-74171033D01*
X169522574Y-74096506D01*
X169398640Y-74045171D01*
X169267073Y-74019000D01*
X169132927Y-74019000D01*
X169001360Y-74045171D01*
X168877426Y-74096506D01*
X168765888Y-74171033D01*
X168671033Y-74265888D01*
X168596506Y-74377426D01*
X168545171Y-74501360D01*
X168519000Y-74632927D01*
X165941242Y-74632927D01*
X170168170Y-70406000D01*
X179831831Y-70406000D01*
X184594000Y-75168170D01*
X184594001Y-84796999D01*
X165995499Y-98745876D01*
X166002279Y-98735729D01*
X166087536Y-98529900D01*
X166131000Y-98311394D01*
X166131000Y-98088606D01*
X166087536Y-97870100D01*
X166002279Y-97664271D01*
X165878505Y-97479030D01*
X165720970Y-97321495D01*
X165535729Y-97197721D01*
X165329900Y-97112464D01*
X165111394Y-97069000D01*
X164888606Y-97069000D01*
X164670100Y-97112464D01*
X164464271Y-97197721D01*
X164279030Y-97321495D01*
X164121495Y-97479030D01*
X163997721Y-97664271D01*
X163912464Y-97870100D01*
X163869000Y-98088606D01*
X163869000Y-98311394D01*
X163912464Y-98529900D01*
X163997721Y-98735729D01*
X164004501Y-98745876D01*
X145406000Y-84797001D01*
X145406000Y-78523078D01*
X151619000Y-78523078D01*
X151619000Y-78676922D01*
X151649013Y-78827809D01*
X151707887Y-78969942D01*
X151764066Y-79054020D01*
X151764123Y-79055449D01*
X151764767Y-79085397D01*
X151765001Y-79121394D01*
X151765000Y-88068819D01*
X151761929Y-88100000D01*
X151765000Y-88131181D01*
X151765000Y-88131191D01*
X151774188Y-88224481D01*
X151810498Y-88344179D01*
X151869463Y-88454493D01*
X151948815Y-88551185D01*
X151973050Y-88571074D01*
X153428930Y-90026955D01*
X153448815Y-90051185D01*
X153491973Y-90086604D01*
X153545505Y-90130537D01*
X153566214Y-90141606D01*
X153655820Y-90189502D01*
X153775518Y-90225812D01*
X153868808Y-90235000D01*
X153868818Y-90235000D01*
X153899999Y-90238071D01*
X153931180Y-90235000D01*
X157320084Y-90235000D01*
X157362868Y-90287132D01*
X157365000Y-90288882D01*
X157365000Y-90387817D01*
X157361929Y-90418998D01*
X157365000Y-90450179D01*
X157365000Y-90450189D01*
X157374188Y-90543479D01*
X157410498Y-90663177D01*
X157469463Y-90773491D01*
X157548815Y-90870183D01*
X157573050Y-90890072D01*
X158422859Y-91739882D01*
X158448101Y-91765455D01*
X158468777Y-91787039D01*
X158469787Y-91788133D01*
X158489514Y-91887308D01*
X158548388Y-92029441D01*
X158633859Y-92157358D01*
X158742642Y-92266141D01*
X158870559Y-92351612D01*
X159012692Y-92410486D01*
X159163579Y-92440499D01*
X159317423Y-92440499D01*
X159468310Y-92410486D01*
X159610443Y-92351612D01*
X159738360Y-92266141D01*
X159847143Y-92157358D01*
X159932614Y-92029441D01*
X159991488Y-91887308D01*
X160021501Y-91736421D01*
X160021501Y-91582577D01*
X159991488Y-91431690D01*
X159932614Y-91289557D01*
X159847143Y-91161640D01*
X159738360Y-91052857D01*
X159610443Y-90967386D01*
X159468310Y-90908512D01*
X159369135Y-90888785D01*
X159368041Y-90887775D01*
X159346457Y-90867099D01*
X159320884Y-90841857D01*
X158665963Y-90186936D01*
X158713477Y-90098044D01*
X158746644Y-89988707D01*
X158757843Y-89875000D01*
X158757843Y-89325000D01*
X158746644Y-89211293D01*
X158713477Y-89101956D01*
X158659616Y-89001190D01*
X158587132Y-88912868D01*
X158498810Y-88840384D01*
X158398044Y-88786523D01*
X158288707Y-88753356D01*
X158175000Y-88742157D01*
X157775000Y-88742157D01*
X157661293Y-88753356D01*
X157551956Y-88786523D01*
X157451190Y-88840384D01*
X157362868Y-88912868D01*
X157320084Y-88965000D01*
X154163025Y-88965000D01*
X153035000Y-87836976D01*
X153035000Y-83750000D01*
X155192157Y-83750000D01*
X155192157Y-84250000D01*
X155203837Y-84368584D01*
X155238426Y-84482611D01*
X155294597Y-84587699D01*
X155370190Y-84679810D01*
X155462301Y-84755403D01*
X155567389Y-84811574D01*
X155681416Y-84846163D01*
X155800000Y-84857843D01*
X156250000Y-84857843D01*
X156368584Y-84846163D01*
X156482611Y-84811574D01*
X156587699Y-84755403D01*
X156679810Y-84679810D01*
X156755403Y-84587699D01*
X156800000Y-84504264D01*
X156844597Y-84587699D01*
X156920190Y-84679810D01*
X157012301Y-84755403D01*
X157117389Y-84811574D01*
X157231416Y-84846163D01*
X157350000Y-84857843D01*
X157800000Y-84857843D01*
X157918584Y-84846163D01*
X158032611Y-84811574D01*
X158137699Y-84755403D01*
X158229810Y-84679810D01*
X158305403Y-84587699D01*
X158347748Y-84508477D01*
X158361433Y-84508000D01*
X158375056Y-84508000D01*
X158400000Y-84510457D01*
X158424944Y-84508000D01*
X158424947Y-84508000D01*
X158499585Y-84500649D01*
X158595343Y-84471601D01*
X158683595Y-84424429D01*
X158760948Y-84360948D01*
X158776855Y-84341565D01*
X159612421Y-83506000D01*
X159642073Y-83506000D01*
X159773640Y-83479829D01*
X159897574Y-83428494D01*
X160009112Y-83353967D01*
X160103967Y-83259112D01*
X160178494Y-83147574D01*
X160229829Y-83023640D01*
X160256000Y-82892073D01*
X160256000Y-82757927D01*
X160229829Y-82626360D01*
X160178494Y-82502426D01*
X160157195Y-82470550D01*
X160219455Y-82419455D01*
X160288830Y-82334921D01*
X160340380Y-82238477D01*
X160372124Y-82133830D01*
X160382843Y-82025000D01*
X160382843Y-81375000D01*
X160372124Y-81266170D01*
X160340380Y-81161523D01*
X160334005Y-81149596D01*
X161244000Y-82059592D01*
X161243999Y-84975153D01*
X161241552Y-84999999D01*
X161243999Y-85024845D01*
X161243999Y-85024852D01*
X161251321Y-85099191D01*
X161280254Y-85194573D01*
X161327240Y-85282478D01*
X161390472Y-85359526D01*
X161409784Y-85375375D01*
X161449624Y-85415215D01*
X161465473Y-85434527D01*
X161542521Y-85497759D01*
X161630425Y-85544745D01*
X161725807Y-85573678D01*
X161800146Y-85581000D01*
X161800153Y-85581000D01*
X161819100Y-85582866D01*
X161862304Y-85618322D01*
X161928492Y-85653701D01*
X162000311Y-85675487D01*
X162075000Y-85682843D01*
X163525000Y-85682843D01*
X163599689Y-85675487D01*
X163671508Y-85653701D01*
X163737696Y-85618322D01*
X163795711Y-85570711D01*
X163843322Y-85512696D01*
X163878701Y-85446508D01*
X163900487Y-85374689D01*
X163907843Y-85300000D01*
X163907843Y-84931000D01*
X164450155Y-84931000D01*
X164475001Y-84933447D01*
X164499847Y-84931000D01*
X164499855Y-84931000D01*
X164574194Y-84923678D01*
X164669576Y-84894745D01*
X164743989Y-84854970D01*
X164743989Y-86240419D01*
X163424149Y-87560260D01*
X163367536Y-87530000D01*
X163446032Y-87488043D01*
X163526777Y-87421777D01*
X163593043Y-87341032D01*
X163642283Y-87248910D01*
X163672605Y-87148953D01*
X163682843Y-87045000D01*
X163682843Y-86745000D01*
X163672605Y-86641047D01*
X163642283Y-86541090D01*
X163593043Y-86448968D01*
X163526777Y-86368223D01*
X163446032Y-86301957D01*
X163353910Y-86252717D01*
X163253953Y-86222395D01*
X163150000Y-86212157D01*
X161800000Y-86212157D01*
X161696047Y-86222395D01*
X161596090Y-86252717D01*
X161503968Y-86301957D01*
X161477718Y-86323500D01*
X160311389Y-86323500D01*
X160305403Y-86312301D01*
X160229810Y-86220190D01*
X160137699Y-86144597D01*
X160032611Y-86088426D01*
X159918584Y-86053837D01*
X159800000Y-86042157D01*
X159350000Y-86042157D01*
X159231416Y-86053837D01*
X159117389Y-86088426D01*
X159012301Y-86144597D01*
X158920190Y-86220190D01*
X158844597Y-86312301D01*
X158788426Y-86417389D01*
X158753837Y-86531416D01*
X158742157Y-86650000D01*
X158742157Y-87150000D01*
X158753837Y-87268584D01*
X158788426Y-87382611D01*
X158844597Y-87487699D01*
X158920190Y-87579810D01*
X159012301Y-87655403D01*
X159053501Y-87677425D01*
X159053500Y-88879522D01*
X159012868Y-88912868D01*
X158940384Y-89001190D01*
X158886523Y-89101956D01*
X158853356Y-89211293D01*
X158842157Y-89325000D01*
X158842157Y-89875000D01*
X158853356Y-89988707D01*
X158886523Y-90098044D01*
X158940384Y-90198810D01*
X159012868Y-90287132D01*
X159101190Y-90359616D01*
X159201956Y-90413477D01*
X159311293Y-90446644D01*
X159425000Y-90457843D01*
X159825000Y-90457843D01*
X159938707Y-90446644D01*
X160048044Y-90413477D01*
X160148810Y-90359616D01*
X160237132Y-90287132D01*
X160309616Y-90198810D01*
X160363477Y-90098044D01*
X160396644Y-89988707D01*
X160407843Y-89875000D01*
X160407843Y-89325000D01*
X160396644Y-89211293D01*
X160363477Y-89101956D01*
X160309616Y-89001190D01*
X160237132Y-88912868D01*
X160196500Y-88879522D01*
X160196500Y-87607147D01*
X160229810Y-87579810D01*
X160305403Y-87487699D01*
X160316734Y-87466500D01*
X161477718Y-87466500D01*
X161503968Y-87488043D01*
X161582464Y-87530000D01*
X161503968Y-87571957D01*
X161423223Y-87638223D01*
X161356957Y-87718968D01*
X161307717Y-87811090D01*
X161277395Y-87911047D01*
X161267157Y-88015000D01*
X161267157Y-88315000D01*
X161277395Y-88418953D01*
X161307717Y-88518910D01*
X161356957Y-88611032D01*
X161423223Y-88691777D01*
X161503968Y-88758043D01*
X161582464Y-88800000D01*
X161503968Y-88841957D01*
X161423223Y-88908223D01*
X161356957Y-88988968D01*
X161307717Y-89081090D01*
X161277395Y-89181047D01*
X161267157Y-89285000D01*
X161267157Y-89585000D01*
X161277395Y-89688953D01*
X161307717Y-89788910D01*
X161356957Y-89881032D01*
X161423223Y-89961777D01*
X161503968Y-90028043D01*
X161582464Y-90070000D01*
X161503968Y-90111957D01*
X161423223Y-90178223D01*
X161356957Y-90258968D01*
X161307717Y-90351090D01*
X161277395Y-90451047D01*
X161267157Y-90555000D01*
X161267157Y-90855000D01*
X161277395Y-90958953D01*
X161307717Y-91058910D01*
X161356957Y-91151032D01*
X161423223Y-91231777D01*
X161503968Y-91298043D01*
X161596090Y-91347283D01*
X161696047Y-91377605D01*
X161800000Y-91387843D01*
X163150000Y-91387843D01*
X163253953Y-91377605D01*
X163353910Y-91347283D01*
X163446032Y-91298043D01*
X163526777Y-91231777D01*
X163593043Y-91151032D01*
X163642283Y-91058910D01*
X163672605Y-90958953D01*
X163682843Y-90855000D01*
X163682843Y-90555000D01*
X163672605Y-90451047D01*
X163642283Y-90351090D01*
X163593043Y-90258968D01*
X163526777Y-90178223D01*
X163446032Y-90111957D01*
X163367536Y-90070000D01*
X163446032Y-90028043D01*
X163526777Y-89961777D01*
X163593043Y-89881032D01*
X163623459Y-89824127D01*
X163659527Y-89794527D01*
X163675376Y-89775215D01*
X164728500Y-88722091D01*
X164728501Y-91363270D01*
X164272772Y-91819000D01*
X164223072Y-91819000D01*
X164072185Y-91849013D01*
X163930052Y-91907887D01*
X163802135Y-91993358D01*
X163693352Y-92102141D01*
X163607881Y-92230058D01*
X163549007Y-92372191D01*
X163518994Y-92523078D01*
X163518994Y-92676922D01*
X163549007Y-92827809D01*
X163607881Y-92969942D01*
X163693352Y-93097859D01*
X163802135Y-93206642D01*
X163930052Y-93292113D01*
X164072185Y-93350987D01*
X164223072Y-93381000D01*
X164376916Y-93381000D01*
X164527803Y-93350987D01*
X164549957Y-93341810D01*
X164372768Y-93519000D01*
X164323068Y-93519000D01*
X164172181Y-93549013D01*
X164030048Y-93607887D01*
X163902131Y-93693358D01*
X163793348Y-93802141D01*
X163707877Y-93930058D01*
X163649003Y-94072191D01*
X163618990Y-94223078D01*
X163618990Y-94376922D01*
X163649003Y-94527809D01*
X163707877Y-94669942D01*
X163793348Y-94797859D01*
X163902131Y-94906642D01*
X164030048Y-94992113D01*
X164172181Y-95050987D01*
X164323068Y-95081000D01*
X164476912Y-95081000D01*
X164519187Y-95072591D01*
X164372778Y-95219000D01*
X164323078Y-95219000D01*
X164172191Y-95249013D01*
X164030058Y-95307887D01*
X163902141Y-95393358D01*
X163793358Y-95502141D01*
X163707887Y-95630058D01*
X163649013Y-95772191D01*
X163619000Y-95923078D01*
X163619000Y-96076922D01*
X163649013Y-96227809D01*
X163707887Y-96369942D01*
X163793358Y-96497859D01*
X163902141Y-96606642D01*
X164030058Y-96692113D01*
X164172191Y-96750987D01*
X164323078Y-96781000D01*
X164476922Y-96781000D01*
X164627809Y-96750987D01*
X164769942Y-96692113D01*
X164897859Y-96606642D01*
X165006642Y-96497859D01*
X165092113Y-96369942D01*
X165150987Y-96227809D01*
X165181000Y-96076922D01*
X165181000Y-96027222D01*
X166846279Y-94361944D01*
X166868089Y-94344045D01*
X166939506Y-94257023D01*
X166992574Y-94157740D01*
X167025253Y-94050012D01*
X167033522Y-93966052D01*
X167033522Y-93966051D01*
X167036287Y-93937979D01*
X167033522Y-93909907D01*
X167033522Y-90116220D01*
X167050000Y-90117843D01*
X168400000Y-90117843D01*
X168503953Y-90107605D01*
X168603910Y-90077283D01*
X168696032Y-90028043D01*
X168776777Y-89961777D01*
X168843043Y-89881032D01*
X168892283Y-89788910D01*
X168922605Y-89688953D01*
X168932843Y-89585000D01*
X168932843Y-89285000D01*
X168922605Y-89181047D01*
X168892283Y-89081090D01*
X168843043Y-88988968D01*
X168776777Y-88908223D01*
X168696032Y-88841957D01*
X168617536Y-88800000D01*
X168696032Y-88758043D01*
X168776777Y-88691777D01*
X168843043Y-88611032D01*
X168892283Y-88518910D01*
X168922605Y-88418953D01*
X168932843Y-88315000D01*
X168932843Y-88015000D01*
X168922605Y-87911047D01*
X168892283Y-87811090D01*
X168843043Y-87718968D01*
X168776777Y-87638223D01*
X168696032Y-87571957D01*
X168617536Y-87530000D01*
X168696032Y-87488043D01*
X168776777Y-87421777D01*
X168843043Y-87341032D01*
X168892283Y-87248910D01*
X168922605Y-87148953D01*
X168932843Y-87045000D01*
X168932843Y-86832927D01*
X169619000Y-86832927D01*
X169619000Y-86967073D01*
X169645171Y-87098640D01*
X169696506Y-87222574D01*
X169771033Y-87334112D01*
X169865888Y-87428967D01*
X169977426Y-87503494D01*
X170101360Y-87554829D01*
X170232927Y-87581000D01*
X170367073Y-87581000D01*
X170498640Y-87554829D01*
X170622574Y-87503494D01*
X170734112Y-87428967D01*
X170746455Y-87416624D01*
X170790384Y-87498810D01*
X170862868Y-87587132D01*
X170951190Y-87659616D01*
X171051956Y-87713477D01*
X171161293Y-87746644D01*
X171275000Y-87757843D01*
X171675000Y-87757843D01*
X171788707Y-87746644D01*
X171898044Y-87713477D01*
X171998810Y-87659616D01*
X172087132Y-87587132D01*
X172159616Y-87498810D01*
X172213477Y-87398044D01*
X172246644Y-87288707D01*
X172257843Y-87175000D01*
X172257843Y-86625000D01*
X172246644Y-86511293D01*
X172213477Y-86401956D01*
X172159616Y-86301190D01*
X172087132Y-86212868D01*
X171998810Y-86140384D01*
X171898044Y-86086523D01*
X171788707Y-86053356D01*
X171675000Y-86042157D01*
X171275000Y-86042157D01*
X171161293Y-86053356D01*
X171051956Y-86086523D01*
X170951190Y-86140384D01*
X170862868Y-86212868D01*
X170790384Y-86301190D01*
X170746455Y-86383376D01*
X170734112Y-86371033D01*
X170622574Y-86296506D01*
X170498640Y-86245171D01*
X170367073Y-86219000D01*
X170232927Y-86219000D01*
X170101360Y-86245171D01*
X169977426Y-86296506D01*
X169865888Y-86371033D01*
X169771033Y-86465888D01*
X169696506Y-86577426D01*
X169645171Y-86701360D01*
X169619000Y-86832927D01*
X168932843Y-86832927D01*
X168932843Y-86745000D01*
X168922605Y-86641047D01*
X168892283Y-86541090D01*
X168843043Y-86448968D01*
X168776777Y-86368223D01*
X168696032Y-86301957D01*
X168603910Y-86252717D01*
X168503953Y-86222395D01*
X168400000Y-86212157D01*
X167050000Y-86212157D01*
X166946047Y-86222395D01*
X166846090Y-86252717D01*
X166753968Y-86301957D01*
X166673312Y-86368150D01*
X166580955Y-86417516D01*
X166493933Y-86488933D01*
X166476034Y-86510743D01*
X166206000Y-86780777D01*
X166206000Y-85572115D01*
X166262304Y-85618322D01*
X166328492Y-85653701D01*
X166400311Y-85675487D01*
X166475000Y-85682843D01*
X167925000Y-85682843D01*
X167999689Y-85675487D01*
X168071508Y-85653701D01*
X168084980Y-85646500D01*
X169518868Y-85646500D01*
X169546942Y-85649265D01*
X169575016Y-85646500D01*
X169658976Y-85638231D01*
X169766704Y-85605552D01*
X169865987Y-85552484D01*
X169953009Y-85481067D01*
X169970912Y-85459252D01*
X170771315Y-84658850D01*
X170793124Y-84640952D01*
X170864541Y-84553930D01*
X170917609Y-84454647D01*
X170950288Y-84346919D01*
X170954638Y-84302751D01*
X170961322Y-84234886D01*
X170958557Y-84206812D01*
X170958557Y-83651646D01*
X170993699Y-83616504D01*
X171079170Y-83488587D01*
X171138044Y-83346454D01*
X171168057Y-83195567D01*
X171168057Y-83041723D01*
X171138044Y-82890836D01*
X171079170Y-82748703D01*
X170993699Y-82620786D01*
X170887233Y-82514320D01*
X170934921Y-82488830D01*
X171019455Y-82419455D01*
X171088830Y-82334921D01*
X171140380Y-82238477D01*
X171172124Y-82133830D01*
X171182843Y-82025000D01*
X171182843Y-81941310D01*
X172560413Y-83318881D01*
X172512301Y-83344597D01*
X172420190Y-83420190D01*
X172344597Y-83512301D01*
X172288426Y-83617389D01*
X172253837Y-83731416D01*
X172242157Y-83850000D01*
X172242157Y-84350000D01*
X172253837Y-84468584D01*
X172288426Y-84582611D01*
X172344597Y-84687699D01*
X172420190Y-84779810D01*
X172512301Y-84855403D01*
X172568803Y-84885604D01*
X172569000Y-84891273D01*
X172569001Y-86166801D01*
X172512868Y-86212868D01*
X172440384Y-86301190D01*
X172386523Y-86401956D01*
X172353356Y-86511293D01*
X172342157Y-86625000D01*
X172342157Y-87175000D01*
X172353356Y-87288707D01*
X172386523Y-87398044D01*
X172440384Y-87498810D01*
X172512868Y-87587132D01*
X172601190Y-87659616D01*
X172701956Y-87713477D01*
X172811293Y-87746644D01*
X172925000Y-87757843D01*
X173325000Y-87757843D01*
X173438707Y-87746644D01*
X173548044Y-87713477D01*
X173648810Y-87659616D01*
X173737132Y-87587132D01*
X173809616Y-87498810D01*
X173863477Y-87398044D01*
X173896644Y-87288707D01*
X173907843Y-87175000D01*
X173907843Y-86625000D01*
X173896644Y-86511293D01*
X173863477Y-86401956D01*
X173809616Y-86301190D01*
X173737132Y-86212868D01*
X173648810Y-86140384D01*
X173581000Y-86104138D01*
X173581000Y-84891265D01*
X173581197Y-84885604D01*
X173637699Y-84855403D01*
X173729810Y-84779810D01*
X173805403Y-84687699D01*
X173861574Y-84582611D01*
X173896163Y-84468584D01*
X173907843Y-84350000D01*
X173907843Y-83850000D01*
X173896163Y-83731416D01*
X173861574Y-83617389D01*
X173805403Y-83512301D01*
X173729810Y-83420190D01*
X173637699Y-83344597D01*
X173581197Y-83314396D01*
X173581000Y-83308734D01*
X173581000Y-83142730D01*
X173583448Y-83117876D01*
X173573678Y-83018683D01*
X173544745Y-82923301D01*
X173524124Y-82884723D01*
X173497759Y-82835397D01*
X173434527Y-82758349D01*
X173415220Y-82742504D01*
X171305643Y-80632927D01*
X174419000Y-80632927D01*
X174419000Y-80767073D01*
X174445171Y-80898640D01*
X174496506Y-81022574D01*
X174571033Y-81134112D01*
X174665888Y-81228967D01*
X174777426Y-81303494D01*
X174901360Y-81354829D01*
X175032927Y-81381000D01*
X175167073Y-81381000D01*
X175298640Y-81354829D01*
X175422574Y-81303494D01*
X175534112Y-81228967D01*
X175555079Y-81208000D01*
X176175056Y-81208000D01*
X176200000Y-81210457D01*
X176224944Y-81208000D01*
X176224947Y-81208000D01*
X176299585Y-81200649D01*
X176395343Y-81171601D01*
X176483595Y-81124429D01*
X176560948Y-81060948D01*
X176576855Y-81041565D01*
X177037420Y-80581000D01*
X177067073Y-80581000D01*
X177198640Y-80554829D01*
X177322574Y-80503494D01*
X177434112Y-80428967D01*
X177528967Y-80334112D01*
X177603494Y-80222574D01*
X177654829Y-80098640D01*
X177681000Y-79967073D01*
X177681000Y-79832927D01*
X177654829Y-79701360D01*
X177603494Y-79577426D01*
X177528967Y-79465888D01*
X177434112Y-79371033D01*
X177322574Y-79296506D01*
X177198640Y-79245171D01*
X177067073Y-79219000D01*
X176932927Y-79219000D01*
X176801360Y-79245171D01*
X176677426Y-79296506D01*
X176565888Y-79371033D01*
X176471033Y-79465888D01*
X176396506Y-79577426D01*
X176345171Y-79701360D01*
X176319000Y-79832927D01*
X176319000Y-79862580D01*
X175989580Y-80192000D01*
X175555079Y-80192000D01*
X175534112Y-80171033D01*
X175422574Y-80096506D01*
X175298640Y-80045171D01*
X175167073Y-80019000D01*
X175032927Y-80019000D01*
X174901360Y-80045171D01*
X174777426Y-80096506D01*
X174665888Y-80171033D01*
X174571033Y-80265888D01*
X174496506Y-80377426D01*
X174445171Y-80501360D01*
X174419000Y-80632927D01*
X171305643Y-80632927D01*
X171207490Y-80534775D01*
X171191641Y-80515463D01*
X171114593Y-80452231D01*
X171026689Y-80405245D01*
X170931307Y-80376312D01*
X170856968Y-80368990D01*
X170856960Y-80368990D01*
X170832114Y-80366543D01*
X170807268Y-80368990D01*
X167749855Y-80368990D01*
X167725009Y-80366543D01*
X167700163Y-80368990D01*
X167700156Y-80368990D01*
X167639818Y-80374933D01*
X167625816Y-80376312D01*
X167614720Y-80379678D01*
X167530435Y-80405245D01*
X167442531Y-80452231D01*
X167365483Y-80515463D01*
X167349638Y-80534770D01*
X167067251Y-80817157D01*
X166730990Y-80817157D01*
X166730990Y-77747933D01*
X166733447Y-77722989D01*
X166730990Y-77698043D01*
X166723639Y-77623405D01*
X166694591Y-77527647D01*
X166679950Y-77500255D01*
X166647419Y-77439394D01*
X166599840Y-77381419D01*
X166583938Y-77362042D01*
X166564560Y-77346139D01*
X166481000Y-77262579D01*
X166481000Y-77232927D01*
X166454829Y-77101360D01*
X166403494Y-76977426D01*
X166328967Y-76865888D01*
X166234112Y-76771033D01*
X166122574Y-76696506D01*
X166010298Y-76650000D01*
X166122574Y-76603494D01*
X166234112Y-76528967D01*
X166328967Y-76434112D01*
X166335851Y-76423809D01*
X166415079Y-76488830D01*
X166511523Y-76540380D01*
X166616170Y-76572124D01*
X166725000Y-76582843D01*
X167075000Y-76582843D01*
X167183830Y-76572124D01*
X167288477Y-76540380D01*
X167384921Y-76488830D01*
X167469455Y-76419455D01*
X167538830Y-76334921D01*
X167590380Y-76238477D01*
X167622124Y-76133830D01*
X167632843Y-76025000D01*
X167632843Y-75375000D01*
X167622124Y-75266170D01*
X167590380Y-75161523D01*
X167538830Y-75065079D01*
X167469455Y-74980545D01*
X167384921Y-74911170D01*
X167288477Y-74859620D01*
X167183830Y-74827876D01*
X167075000Y-74817157D01*
X166725000Y-74817157D01*
X166616170Y-74827876D01*
X166511523Y-74859620D01*
X166415079Y-74911170D01*
X166330545Y-74980545D01*
X166261170Y-75065079D01*
X166209620Y-75161523D01*
X166177876Y-75266170D01*
X166167157Y-75375000D01*
X166167157Y-75426295D01*
X166122574Y-75396506D01*
X165998640Y-75345171D01*
X165867073Y-75319000D01*
X165732927Y-75319000D01*
X165601360Y-75345171D01*
X165477426Y-75396506D01*
X165429748Y-75428364D01*
X165408752Y-75428500D01*
X163932843Y-75428500D01*
X163932843Y-75375000D01*
X163922124Y-75266170D01*
X163890380Y-75161523D01*
X163838830Y-75065079D01*
X163769455Y-74980545D01*
X163684921Y-74911170D01*
X163588477Y-74859620D01*
X163483830Y-74827876D01*
X163375000Y-74817157D01*
X163125379Y-74817157D01*
X162733460Y-74425238D01*
X162715557Y-74403423D01*
X162628535Y-74332006D01*
X162529252Y-74278938D01*
X162421524Y-74246259D01*
X162337564Y-74237990D01*
X162309490Y-74235225D01*
X162281416Y-74237990D01*
X156868581Y-74237990D01*
X156840509Y-74235225D01*
X156812437Y-74237990D01*
X156812436Y-74237990D01*
X156728476Y-74246259D01*
X156620748Y-74278938D01*
X156521465Y-74332006D01*
X156434443Y-74403423D01*
X156416544Y-74425233D01*
X156024620Y-74817157D01*
X155775000Y-74817157D01*
X155666170Y-74827876D01*
X155561523Y-74859620D01*
X155465079Y-74911170D01*
X155380545Y-74980545D01*
X155311170Y-75065079D01*
X155259620Y-75161523D01*
X155227876Y-75266170D01*
X155217157Y-75375000D01*
X155217157Y-76025000D01*
X155227876Y-76133830D01*
X155259620Y-76238477D01*
X155311170Y-76334921D01*
X155380545Y-76419455D01*
X155444000Y-76471531D01*
X155444001Y-80928468D01*
X155380545Y-80980545D01*
X155311170Y-81065079D01*
X155259620Y-81161523D01*
X155227876Y-81266170D01*
X155217157Y-81375000D01*
X155217157Y-82025000D01*
X155227876Y-82133830D01*
X155259620Y-82238477D01*
X155311170Y-82334921D01*
X155315000Y-82339588D01*
X155315001Y-83387439D01*
X155294597Y-83412301D01*
X155238426Y-83517389D01*
X155203837Y-83631416D01*
X155192157Y-83750000D01*
X153035000Y-83750000D01*
X153035000Y-79121249D01*
X153035233Y-79085397D01*
X153035877Y-79055449D01*
X153035934Y-79054020D01*
X153092113Y-78969942D01*
X153150987Y-78827809D01*
X153181000Y-78676922D01*
X153181000Y-78523078D01*
X153150987Y-78372191D01*
X153092113Y-78230058D01*
X153006642Y-78102141D01*
X152897859Y-77993358D01*
X152769942Y-77907887D01*
X152627809Y-77849013D01*
X152476922Y-77819000D01*
X152323078Y-77819000D01*
X152172191Y-77849013D01*
X152030058Y-77907887D01*
X151902141Y-77993358D01*
X151793358Y-78102141D01*
X151707887Y-78230058D01*
X151649013Y-78372191D01*
X151619000Y-78523078D01*
X145406000Y-78523078D01*
X145406000Y-75168169D01*
X150168170Y-70406000D01*
X159831831Y-70406000D01*
X164698814Y-75272984D01*
G37*
%TD.AperFunction*%
D16*
X156590888Y-76503967D02*
X156702426Y-76578494D01*
X156826360Y-76629829D01*
X156882599Y-76641016D01*
X156897630Y-76655852D01*
X157826034Y-77584257D01*
X157843933Y-77606067D01*
X157913801Y-77663406D01*
X157930955Y-77677484D01*
X158030238Y-77730552D01*
X158137966Y-77763231D01*
X158250000Y-77774265D01*
X158278074Y-77771500D01*
X162745143Y-77771500D01*
X162719000Y-77902927D01*
X162719000Y-78037073D01*
X162745171Y-78168640D01*
X162796506Y-78292574D01*
X162871033Y-78404112D01*
X162894001Y-78427080D01*
X162894000Y-79335827D01*
X162891553Y-79360674D01*
X162894000Y-79385520D01*
X162894000Y-79385527D01*
X162901322Y-79459866D01*
X162930255Y-79555248D01*
X162977241Y-79643153D01*
X163040473Y-79720201D01*
X163059785Y-79736050D01*
X164194002Y-80870268D01*
X164194001Y-83129329D01*
X164142073Y-83119000D01*
X164007927Y-83119000D01*
X163876360Y-83145171D01*
X163752426Y-83196506D01*
X163716635Y-83220421D01*
X163671508Y-83196299D01*
X163599689Y-83174513D01*
X163525000Y-83167157D01*
X162255999Y-83167157D01*
X162255999Y-81874844D01*
X162258446Y-81849998D01*
X162255999Y-81825152D01*
X162255999Y-81825145D01*
X162248677Y-81750806D01*
X162219744Y-81655424D01*
X162172758Y-81567520D01*
X162109526Y-81490472D01*
X162090219Y-81474627D01*
X161990592Y-81375000D01*
X162467157Y-81375000D01*
X162467157Y-82025000D01*
X162477876Y-82133830D01*
X162509620Y-82238477D01*
X162561170Y-82334921D01*
X162630545Y-82419455D01*
X162715079Y-82488830D01*
X162811523Y-82540380D01*
X162916170Y-82572124D01*
X163025000Y-82582843D01*
X163375000Y-82582843D01*
X163483830Y-82572124D01*
X163588477Y-82540380D01*
X163684921Y-82488830D01*
X163769455Y-82419455D01*
X163838830Y-82334921D01*
X163890380Y-82238477D01*
X163922124Y-82133830D01*
X163932843Y-82025000D01*
X163932843Y-81375000D01*
X163922124Y-81266170D01*
X163890380Y-81161523D01*
X163838830Y-81065079D01*
X163769455Y-80980545D01*
X163684921Y-80911170D01*
X163588477Y-80859620D01*
X163483830Y-80827876D01*
X163375000Y-80817157D01*
X163025000Y-80817157D01*
X162916170Y-80827876D01*
X162811523Y-80859620D01*
X162715079Y-80911170D01*
X162630545Y-80980545D01*
X162561170Y-81065079D01*
X162509620Y-81161523D01*
X162477876Y-81266170D01*
X162467157Y-81375000D01*
X161990592Y-81375000D01*
X160981000Y-80365409D01*
X160981000Y-80332927D01*
X160954829Y-80201360D01*
X160903494Y-80077426D01*
X160828967Y-79965888D01*
X160734112Y-79871033D01*
X160622574Y-79796506D01*
X160498640Y-79745171D01*
X160367073Y-79719000D01*
X160232927Y-79719000D01*
X160101360Y-79745171D01*
X159977426Y-79796506D01*
X159865888Y-79871033D01*
X159771033Y-79965888D01*
X159696506Y-80077426D01*
X159645171Y-80201360D01*
X159619000Y-80332927D01*
X159619000Y-80467073D01*
X159645171Y-80598640D01*
X159696506Y-80722574D01*
X159759704Y-80817157D01*
X159475000Y-80817157D01*
X159366170Y-80827876D01*
X159261523Y-80859620D01*
X159165079Y-80911170D01*
X159080545Y-80980545D01*
X159011170Y-81065079D01*
X158959620Y-81161523D01*
X158927876Y-81266170D01*
X158917157Y-81375000D01*
X158917157Y-82025000D01*
X158927876Y-82133830D01*
X158959620Y-82238477D01*
X159011170Y-82334921D01*
X159052112Y-82384809D01*
X159046033Y-82390888D01*
X158971506Y-82502426D01*
X158920171Y-82626360D01*
X158894000Y-82757927D01*
X158894000Y-82787579D01*
X158289120Y-83392460D01*
X158229810Y-83320190D01*
X158137699Y-83244597D01*
X158032611Y-83188426D01*
X157918584Y-83153837D01*
X157800000Y-83142157D01*
X157350000Y-83142157D01*
X157231416Y-83153837D01*
X157117389Y-83188426D01*
X157012301Y-83244597D01*
X156920190Y-83320190D01*
X156844597Y-83412301D01*
X156800000Y-83495736D01*
X156755403Y-83412301D01*
X156679810Y-83320190D01*
X156587699Y-83244597D01*
X156585000Y-83243154D01*
X156585000Y-82339588D01*
X156588830Y-82334921D01*
X156640380Y-82238477D01*
X156672124Y-82133830D01*
X156682843Y-82025000D01*
X156682843Y-81375000D01*
X156672124Y-81266170D01*
X156640380Y-81161523D01*
X156588830Y-81065079D01*
X156519455Y-80980545D01*
X156456000Y-80928469D01*
X156456000Y-76471531D01*
X156512271Y-76425350D01*
X156590888Y-76503967D01*
%TA.AperFunction,Conductor*%
D19*
G36*
X156590888Y-76503967D02*
G01*
X156702426Y-76578494D01*
X156826360Y-76629829D01*
X156882599Y-76641016D01*
X156897630Y-76655852D01*
X157826034Y-77584257D01*
X157843933Y-77606067D01*
X157913801Y-77663406D01*
X157930955Y-77677484D01*
X158030238Y-77730552D01*
X158137966Y-77763231D01*
X158250000Y-77774265D01*
X158278074Y-77771500D01*
X162745143Y-77771500D01*
X162719000Y-77902927D01*
X162719000Y-78037073D01*
X162745171Y-78168640D01*
X162796506Y-78292574D01*
X162871033Y-78404112D01*
X162894001Y-78427080D01*
X162894000Y-79335827D01*
X162891553Y-79360674D01*
X162894000Y-79385520D01*
X162894000Y-79385527D01*
X162901322Y-79459866D01*
X162930255Y-79555248D01*
X162977241Y-79643153D01*
X163040473Y-79720201D01*
X163059785Y-79736050D01*
X164194002Y-80870268D01*
X164194001Y-83129329D01*
X164142073Y-83119000D01*
X164007927Y-83119000D01*
X163876360Y-83145171D01*
X163752426Y-83196506D01*
X163716635Y-83220421D01*
X163671508Y-83196299D01*
X163599689Y-83174513D01*
X163525000Y-83167157D01*
X162255999Y-83167157D01*
X162255999Y-81874844D01*
X162258446Y-81849998D01*
X162255999Y-81825152D01*
X162255999Y-81825145D01*
X162248677Y-81750806D01*
X162219744Y-81655424D01*
X162172758Y-81567520D01*
X162109526Y-81490472D01*
X162090219Y-81474627D01*
X161990592Y-81375000D01*
X162467157Y-81375000D01*
X162467157Y-82025000D01*
X162477876Y-82133830D01*
X162509620Y-82238477D01*
X162561170Y-82334921D01*
X162630545Y-82419455D01*
X162715079Y-82488830D01*
X162811523Y-82540380D01*
X162916170Y-82572124D01*
X163025000Y-82582843D01*
X163375000Y-82582843D01*
X163483830Y-82572124D01*
X163588477Y-82540380D01*
X163684921Y-82488830D01*
X163769455Y-82419455D01*
X163838830Y-82334921D01*
X163890380Y-82238477D01*
X163922124Y-82133830D01*
X163932843Y-82025000D01*
X163932843Y-81375000D01*
X163922124Y-81266170D01*
X163890380Y-81161523D01*
X163838830Y-81065079D01*
X163769455Y-80980545D01*
X163684921Y-80911170D01*
X163588477Y-80859620D01*
X163483830Y-80827876D01*
X163375000Y-80817157D01*
X163025000Y-80817157D01*
X162916170Y-80827876D01*
X162811523Y-80859620D01*
X162715079Y-80911170D01*
X162630545Y-80980545D01*
X162561170Y-81065079D01*
X162509620Y-81161523D01*
X162477876Y-81266170D01*
X162467157Y-81375000D01*
X161990592Y-81375000D01*
X160981000Y-80365409D01*
X160981000Y-80332927D01*
X160954829Y-80201360D01*
X160903494Y-80077426D01*
X160828967Y-79965888D01*
X160734112Y-79871033D01*
X160622574Y-79796506D01*
X160498640Y-79745171D01*
X160367073Y-79719000D01*
X160232927Y-79719000D01*
X160101360Y-79745171D01*
X159977426Y-79796506D01*
X159865888Y-79871033D01*
X159771033Y-79965888D01*
X159696506Y-80077426D01*
X159645171Y-80201360D01*
X159619000Y-80332927D01*
X159619000Y-80467073D01*
X159645171Y-80598640D01*
X159696506Y-80722574D01*
X159759704Y-80817157D01*
X159475000Y-80817157D01*
X159366170Y-80827876D01*
X159261523Y-80859620D01*
X159165079Y-80911170D01*
X159080545Y-80980545D01*
X159011170Y-81065079D01*
X158959620Y-81161523D01*
X158927876Y-81266170D01*
X158917157Y-81375000D01*
X158917157Y-82025000D01*
X158927876Y-82133830D01*
X158959620Y-82238477D01*
X159011170Y-82334921D01*
X159052112Y-82384809D01*
X159046033Y-82390888D01*
X158971506Y-82502426D01*
X158920171Y-82626360D01*
X158894000Y-82757927D01*
X158894000Y-82787579D01*
X158289120Y-83392460D01*
X158229810Y-83320190D01*
X158137699Y-83244597D01*
X158032611Y-83188426D01*
X157918584Y-83153837D01*
X157800000Y-83142157D01*
X157350000Y-83142157D01*
X157231416Y-83153837D01*
X157117389Y-83188426D01*
X157012301Y-83244597D01*
X156920190Y-83320190D01*
X156844597Y-83412301D01*
X156800000Y-83495736D01*
X156755403Y-83412301D01*
X156679810Y-83320190D01*
X156587699Y-83244597D01*
X156585000Y-83243154D01*
X156585000Y-82339588D01*
X156588830Y-82334921D01*
X156640380Y-82238477D01*
X156672124Y-82133830D01*
X156682843Y-82025000D01*
X156682843Y-81375000D01*
X156672124Y-81266170D01*
X156640380Y-81161523D01*
X156588830Y-81065079D01*
X156519455Y-80980545D01*
X156456000Y-80928469D01*
X156456000Y-76471531D01*
X156512271Y-76425350D01*
X156590888Y-76503967D01*
G37*
%TD.AperFunction*%
%TD*%
D20*
%TO.N,VCC*%
X170651350Y-83402484D02*
X170640787Y-83413748D01*
X170640075Y-83414576D01*
X170624860Y-83433888D01*
X170624213Y-83434788D01*
X170610788Y-83455278D01*
X170610222Y-83456230D01*
X170598587Y-83477897D01*
X170598113Y-83478879D01*
X170588268Y-83501725D01*
X170587890Y-83502714D01*
X170579835Y-83526737D01*
X170579551Y-83527710D01*
X170573286Y-83552910D01*
X170573090Y-83553850D01*
X170568615Y-83580229D01*
X170568496Y-83581121D01*
X170565811Y-83608677D01*
X170565757Y-83609514D01*
X170565246Y-83625944D01*
X170208868Y-83625944D01*
X170208356Y-83609514D01*
X170208302Y-83608677D01*
X170205617Y-83581121D01*
X170205498Y-83580229D01*
X170201023Y-83553850D01*
X170200827Y-83552910D01*
X170194562Y-83527710D01*
X170194278Y-83526737D01*
X170186223Y-83502714D01*
X170185845Y-83501725D01*
X170176000Y-83478879D01*
X170175526Y-83477897D01*
X170163891Y-83456230D01*
X170163325Y-83455278D01*
X170149900Y-83434788D01*
X170149253Y-83433888D01*
X170134038Y-83414576D01*
X170133326Y-83413749D01*
X170122763Y-83402485D01*
X170387057Y-82944071D01*
X170651350Y-83402484D01*
%TA.AperFunction,Conductor*%
D19*
G36*
X170651350Y-83402484D02*
G01*
X170640787Y-83413748D01*
X170640075Y-83414576D01*
X170624860Y-83433888D01*
X170624213Y-83434788D01*
X170610788Y-83455278D01*
X170610222Y-83456230D01*
X170598587Y-83477897D01*
X170598113Y-83478879D01*
X170588268Y-83501725D01*
X170587890Y-83502714D01*
X170579835Y-83526737D01*
X170579551Y-83527710D01*
X170573286Y-83552910D01*
X170573090Y-83553850D01*
X170568615Y-83580229D01*
X170568496Y-83581121D01*
X170565811Y-83608677D01*
X170565757Y-83609514D01*
X170565246Y-83625944D01*
X170208868Y-83625944D01*
X170208356Y-83609514D01*
X170208302Y-83608677D01*
X170205617Y-83581121D01*
X170205498Y-83580229D01*
X170201023Y-83553850D01*
X170200827Y-83552910D01*
X170194562Y-83527710D01*
X170194278Y-83526737D01*
X170186223Y-83502714D01*
X170185845Y-83501725D01*
X170176000Y-83478879D01*
X170175526Y-83477897D01*
X170163891Y-83456230D01*
X170163325Y-83455278D01*
X170149900Y-83434788D01*
X170149253Y-83433888D01*
X170134038Y-83414576D01*
X170133326Y-83413749D01*
X170122763Y-83402485D01*
X170387057Y-82944071D01*
X170651350Y-83402484D01*
G37*
%TD.AperFunction*%
%TD*%
D20*
%TO.N,VCC*%
X157314032Y-75988208D02*
X157314294Y-75989128D01*
X157317571Y-75997092D01*
X157318285Y-75998553D01*
X157323782Y-76008187D01*
X157324325Y-76009055D01*
X157332043Y-76020358D01*
X157332450Y-76020920D01*
X157342389Y-76033892D01*
X157342700Y-76034282D01*
X157354859Y-76048924D01*
X157355103Y-76049209D01*
X157369483Y-76065519D01*
X157369678Y-76065735D01*
X157386279Y-76083715D01*
X157386439Y-76083885D01*
X157405261Y-76103533D01*
X157405393Y-76103670D01*
X157417573Y-76116009D01*
X157166009Y-76367573D01*
X157153670Y-76355393D01*
X157153533Y-76355261D01*
X157133885Y-76336439D01*
X157133715Y-76336279D01*
X157115735Y-76319678D01*
X157115519Y-76319483D01*
X157099209Y-76305103D01*
X157098924Y-76304859D01*
X157084282Y-76292700D01*
X157083892Y-76292389D01*
X157070920Y-76282450D01*
X157070358Y-76282043D01*
X157059055Y-76274325D01*
X157058187Y-76273782D01*
X157048553Y-76268285D01*
X157047092Y-76267571D01*
X157039128Y-76264294D01*
X157038208Y-76264032D01*
X156936913Y-75886913D01*
X157314032Y-75988208D01*
%TA.AperFunction,Conductor*%
D19*
G36*
X157314032Y-75988208D02*
G01*
X157314294Y-75989128D01*
X157317571Y-75997092D01*
X157318285Y-75998553D01*
X157323782Y-76008187D01*
X157324325Y-76009055D01*
X157332043Y-76020358D01*
X157332450Y-76020920D01*
X157342389Y-76033892D01*
X157342700Y-76034282D01*
X157354859Y-76048924D01*
X157355103Y-76049209D01*
X157369483Y-76065519D01*
X157369678Y-76065735D01*
X157386279Y-76083715D01*
X157386439Y-76083885D01*
X157405261Y-76103533D01*
X157405393Y-76103670D01*
X157417573Y-76116009D01*
X157166009Y-76367573D01*
X157153670Y-76355393D01*
X157153533Y-76355261D01*
X157133885Y-76336439D01*
X157133715Y-76336279D01*
X157115735Y-76319678D01*
X157115519Y-76319483D01*
X157099209Y-76305103D01*
X157098924Y-76304859D01*
X157084282Y-76292700D01*
X157083892Y-76292389D01*
X157070920Y-76282450D01*
X157070358Y-76282043D01*
X157059055Y-76274325D01*
X157058187Y-76273782D01*
X157048553Y-76268285D01*
X157047092Y-76267571D01*
X157039128Y-76264294D01*
X157038208Y-76264032D01*
X156936913Y-75886913D01*
X157314032Y-75988208D01*
G37*
%TD.AperFunction*%
%TD*%
D20*
%TO.N,VCC*%
X165354399Y-77040160D02*
X165354532Y-77040211D01*
X165398735Y-77056626D01*
X165398902Y-77056686D01*
X165438354Y-77070711D01*
X165438571Y-77070786D01*
X165473273Y-77082421D01*
X165473564Y-77082515D01*
X165503515Y-77091760D01*
X165503928Y-77091880D01*
X165529129Y-77098735D01*
X165529753Y-77098888D01*
X165550202Y-77103353D01*
X165551247Y-77103536D01*
X165566947Y-77105611D01*
X165568976Y-77105715D01*
X165579924Y-77105400D01*
X165582394Y-77105085D01*
X165584638Y-77104345D01*
X165584966Y-77104202D01*
X165924574Y-77300000D01*
X165586681Y-77494809D01*
X165585905Y-77494293D01*
X165574957Y-77487978D01*
X165574334Y-77487642D01*
X165558634Y-77479717D01*
X165558278Y-77479544D01*
X165537829Y-77470009D01*
X165537599Y-77469904D01*
X165512398Y-77458759D01*
X165512237Y-77458689D01*
X165482286Y-77445934D01*
X165482167Y-77445885D01*
X165447465Y-77431520D01*
X165447375Y-77431482D01*
X165407923Y-77415507D01*
X165407851Y-77415479D01*
X165363648Y-77397894D01*
X165363589Y-77397870D01*
X165322700Y-77381838D01*
X165322700Y-77027983D01*
X165354399Y-77040160D01*
%TA.AperFunction,Conductor*%
D19*
G36*
X165354399Y-77040160D02*
G01*
X165354532Y-77040211D01*
X165398735Y-77056626D01*
X165398902Y-77056686D01*
X165438354Y-77070711D01*
X165438571Y-77070786D01*
X165473273Y-77082421D01*
X165473564Y-77082515D01*
X165503515Y-77091760D01*
X165503928Y-77091880D01*
X165529129Y-77098735D01*
X165529753Y-77098888D01*
X165550202Y-77103353D01*
X165551247Y-77103536D01*
X165566947Y-77105611D01*
X165568976Y-77105715D01*
X165579924Y-77105400D01*
X165582394Y-77105085D01*
X165584638Y-77104345D01*
X165584966Y-77104202D01*
X165924574Y-77300000D01*
X165586681Y-77494809D01*
X165585905Y-77494293D01*
X165574957Y-77487978D01*
X165574334Y-77487642D01*
X165558634Y-77479717D01*
X165558278Y-77479544D01*
X165537829Y-77470009D01*
X165537599Y-77469904D01*
X165512398Y-77458759D01*
X165512237Y-77458689D01*
X165482286Y-77445934D01*
X165482167Y-77445885D01*
X165447465Y-77431520D01*
X165447375Y-77431482D01*
X165407923Y-77415507D01*
X165407851Y-77415479D01*
X165363648Y-77397894D01*
X165363589Y-77397870D01*
X165322700Y-77381838D01*
X165322700Y-77027983D01*
X165354399Y-77040160D01*
G37*
%TD.AperFunction*%
%TD*%
D20*
%TO.N,VCC*%
X170034322Y-82602091D02*
X170035021Y-82602697D01*
X170068309Y-82629493D01*
X170069091Y-82630074D01*
X170103502Y-82653667D01*
X170104363Y-82654208D01*
X170139900Y-82674599D01*
X170140830Y-82675083D01*
X170177491Y-82692270D01*
X170178474Y-82692681D01*
X170216260Y-82706666D01*
X170217277Y-82706995D01*
X170256187Y-82717777D01*
X170257216Y-82718016D01*
X170297251Y-82725595D01*
X170298271Y-82725746D01*
X170339430Y-82730121D01*
X170340420Y-82730187D01*
X170373247Y-82731098D01*
X170510499Y-83242087D01*
X169999510Y-83104835D01*
X169998599Y-83072008D01*
X169998533Y-83071018D01*
X169994158Y-83029859D01*
X169994007Y-83028839D01*
X169986428Y-82988804D01*
X169986189Y-82987775D01*
X169975407Y-82948865D01*
X169975078Y-82947848D01*
X169961093Y-82910062D01*
X169960682Y-82909079D01*
X169943495Y-82872418D01*
X169943011Y-82871488D01*
X169922620Y-82835951D01*
X169922079Y-82835090D01*
X169898486Y-82800679D01*
X169897905Y-82799897D01*
X169871109Y-82766609D01*
X169870503Y-82765910D01*
X169848870Y-82742718D01*
X170011130Y-82580458D01*
X170034322Y-82602091D01*
%TA.AperFunction,Conductor*%
D19*
G36*
X170034322Y-82602091D02*
G01*
X170035021Y-82602697D01*
X170068309Y-82629493D01*
X170069091Y-82630074D01*
X170103502Y-82653667D01*
X170104363Y-82654208D01*
X170139900Y-82674599D01*
X170140830Y-82675083D01*
X170177491Y-82692270D01*
X170178474Y-82692681D01*
X170216260Y-82706666D01*
X170217277Y-82706995D01*
X170256187Y-82717777D01*
X170257216Y-82718016D01*
X170297251Y-82725595D01*
X170298271Y-82725746D01*
X170339430Y-82730121D01*
X170340420Y-82730187D01*
X170373247Y-82731098D01*
X170510499Y-83242087D01*
X169999510Y-83104835D01*
X169998599Y-83072008D01*
X169998533Y-83071018D01*
X169994158Y-83029859D01*
X169994007Y-83028839D01*
X169986428Y-82988804D01*
X169986189Y-82987775D01*
X169975407Y-82948865D01*
X169975078Y-82947848D01*
X169961093Y-82910062D01*
X169960682Y-82909079D01*
X169943495Y-82872418D01*
X169943011Y-82871488D01*
X169922620Y-82835951D01*
X169922079Y-82835090D01*
X169898486Y-82800679D01*
X169897905Y-82799897D01*
X169871109Y-82766609D01*
X169870503Y-82765910D01*
X169848870Y-82742718D01*
X170011130Y-82580458D01*
X170034322Y-82602091D01*
G37*
%TD.AperFunction*%
%TD*%
D20*
%TO.N,VCC*%
X166087554Y-77312811D02*
X166087931Y-77326299D01*
X166087998Y-77327296D01*
X166090390Y-77349642D01*
X166090542Y-77350666D01*
X166094683Y-77372414D01*
X166094925Y-77373445D01*
X166100815Y-77394595D01*
X166101145Y-77395613D01*
X166108785Y-77416164D01*
X166109198Y-77417146D01*
X166118587Y-77437100D01*
X166119071Y-77438028D01*
X166130210Y-77457383D01*
X166130750Y-77458240D01*
X166143638Y-77476997D01*
X166144217Y-77477775D01*
X166158855Y-77495934D01*
X166159458Y-77496629D01*
X166167475Y-77505220D01*
X166005220Y-77667475D01*
X165996629Y-77659458D01*
X165995934Y-77658855D01*
X165977775Y-77644217D01*
X165976997Y-77643638D01*
X165958240Y-77630750D01*
X165957383Y-77630210D01*
X165938028Y-77619071D01*
X165937100Y-77618587D01*
X165917146Y-77609198D01*
X165916164Y-77608785D01*
X165895613Y-77601145D01*
X165894595Y-77600815D01*
X165873445Y-77594925D01*
X165872414Y-77594683D01*
X165850666Y-77590542D01*
X165849642Y-77590390D01*
X165827296Y-77587998D01*
X165826299Y-77587931D01*
X165812811Y-77587554D01*
X165711913Y-77211913D01*
X166087554Y-77312811D01*
%TA.AperFunction,Conductor*%
D19*
G36*
X166087554Y-77312811D02*
G01*
X166087931Y-77326299D01*
X166087998Y-77327296D01*
X166090390Y-77349642D01*
X166090542Y-77350666D01*
X166094683Y-77372414D01*
X166094925Y-77373445D01*
X166100815Y-77394595D01*
X166101145Y-77395613D01*
X166108785Y-77416164D01*
X166109198Y-77417146D01*
X166118587Y-77437100D01*
X166119071Y-77438028D01*
X166130210Y-77457383D01*
X166130750Y-77458240D01*
X166143638Y-77476997D01*
X166144217Y-77477775D01*
X166158855Y-77495934D01*
X166159458Y-77496629D01*
X166167475Y-77505220D01*
X166005220Y-77667475D01*
X165996629Y-77659458D01*
X165995934Y-77658855D01*
X165977775Y-77644217D01*
X165976997Y-77643638D01*
X165958240Y-77630750D01*
X165957383Y-77630210D01*
X165938028Y-77619071D01*
X165937100Y-77618587D01*
X165917146Y-77609198D01*
X165916164Y-77608785D01*
X165895613Y-77601145D01*
X165894595Y-77600815D01*
X165873445Y-77594925D01*
X165872414Y-77594683D01*
X165850666Y-77590542D01*
X165849642Y-77590390D01*
X165827296Y-77587998D01*
X165826299Y-77587931D01*
X165812811Y-77587554D01*
X165711913Y-77211913D01*
X166087554Y-77312811D01*
G37*
%TD.AperFunction*%
%TD*%
D20*
%TO.N,+3V3*%
X156179271Y-75948095D02*
X156162973Y-75965326D01*
X156162318Y-75966075D01*
X156141918Y-75991340D01*
X156141303Y-75992168D01*
X156123303Y-76018593D01*
X156122744Y-76019491D01*
X156107144Y-76047075D01*
X156106658Y-76048027D01*
X156093458Y-76076772D01*
X156093054Y-76077758D01*
X156082254Y-76107663D01*
X156081939Y-76108662D01*
X156073539Y-76139726D01*
X156073314Y-76140716D01*
X156067314Y-76172941D01*
X156067172Y-76173904D01*
X156063572Y-76207288D01*
X156063507Y-76208209D01*
X156062733Y-76230495D01*
X155837266Y-76230495D01*
X155836492Y-76208209D01*
X155836427Y-76207288D01*
X155832827Y-76173904D01*
X155832685Y-76172941D01*
X155826685Y-76140716D01*
X155826460Y-76139726D01*
X155818060Y-76108662D01*
X155817745Y-76107663D01*
X155806945Y-76077758D01*
X155806541Y-76076772D01*
X155793341Y-76048027D01*
X155792855Y-76047075D01*
X155777255Y-76019491D01*
X155776696Y-76018593D01*
X155758696Y-75992168D01*
X155758081Y-75991340D01*
X155737681Y-75966075D01*
X155737027Y-75965326D01*
X155720729Y-75948095D01*
X155950000Y-75550426D01*
X156179271Y-75948095D01*
%TA.AperFunction,Conductor*%
D19*
G36*
X156179271Y-75948095D02*
G01*
X156162973Y-75965326D01*
X156162318Y-75966075D01*
X156141918Y-75991340D01*
X156141303Y-75992168D01*
X156123303Y-76018593D01*
X156122744Y-76019491D01*
X156107144Y-76047075D01*
X156106658Y-76048027D01*
X156093458Y-76076772D01*
X156093054Y-76077758D01*
X156082254Y-76107663D01*
X156081939Y-76108662D01*
X156073539Y-76139726D01*
X156073314Y-76140716D01*
X156067314Y-76172941D01*
X156067172Y-76173904D01*
X156063572Y-76207288D01*
X156063507Y-76208209D01*
X156062733Y-76230495D01*
X155837266Y-76230495D01*
X155836492Y-76208209D01*
X155836427Y-76207288D01*
X155832827Y-76173904D01*
X155832685Y-76172941D01*
X155826685Y-76140716D01*
X155826460Y-76139726D01*
X155818060Y-76108662D01*
X155817745Y-76107663D01*
X155806945Y-76077758D01*
X155806541Y-76076772D01*
X155793341Y-76048027D01*
X155792855Y-76047075D01*
X155777255Y-76019491D01*
X155776696Y-76018593D01*
X155758696Y-75992168D01*
X155758081Y-75991340D01*
X155737681Y-75966075D01*
X155737027Y-75965326D01*
X155720729Y-75948095D01*
X155950000Y-75550426D01*
X156179271Y-75948095D01*
G37*
%TD.AperFunction*%
%TD*%
D20*
%TO.N,+3V3*%
X156063507Y-81191790D02*
X156063572Y-81192711D01*
X156067172Y-81226095D01*
X156067314Y-81227058D01*
X156073314Y-81259283D01*
X156073539Y-81260273D01*
X156081939Y-81291337D01*
X156082254Y-81292336D01*
X156093054Y-81322241D01*
X156093458Y-81323227D01*
X156106658Y-81351972D01*
X156107144Y-81352924D01*
X156122744Y-81380508D01*
X156123303Y-81381406D01*
X156141303Y-81407831D01*
X156141918Y-81408659D01*
X156162318Y-81433924D01*
X156162972Y-81434673D01*
X156179271Y-81451905D01*
X155950000Y-81849574D01*
X155720729Y-81451905D01*
X155737027Y-81434673D01*
X155737681Y-81433924D01*
X155758081Y-81408659D01*
X155758696Y-81407831D01*
X155776696Y-81381406D01*
X155777255Y-81380508D01*
X155792855Y-81352924D01*
X155793341Y-81351972D01*
X155806541Y-81323227D01*
X155806945Y-81322241D01*
X155817745Y-81292336D01*
X155818060Y-81291337D01*
X155826460Y-81260273D01*
X155826685Y-81259283D01*
X155832685Y-81227058D01*
X155832827Y-81226095D01*
X155836427Y-81192711D01*
X155836492Y-81191790D01*
X155837266Y-81169505D01*
X156062734Y-81169505D01*
X156063507Y-81191790D01*
%TA.AperFunction,Conductor*%
D19*
G36*
X156063507Y-81191790D02*
G01*
X156063572Y-81192711D01*
X156067172Y-81226095D01*
X156067314Y-81227058D01*
X156073314Y-81259283D01*
X156073539Y-81260273D01*
X156081939Y-81291337D01*
X156082254Y-81292336D01*
X156093054Y-81322241D01*
X156093458Y-81323227D01*
X156106658Y-81351972D01*
X156107144Y-81352924D01*
X156122744Y-81380508D01*
X156123303Y-81381406D01*
X156141303Y-81407831D01*
X156141918Y-81408659D01*
X156162318Y-81433924D01*
X156162972Y-81434673D01*
X156179271Y-81451905D01*
X155950000Y-81849574D01*
X155720729Y-81451905D01*
X155737027Y-81434673D01*
X155737681Y-81433924D01*
X155758081Y-81408659D01*
X155758696Y-81407831D01*
X155776696Y-81381406D01*
X155777255Y-81380508D01*
X155792855Y-81352924D01*
X155793341Y-81351972D01*
X155806541Y-81323227D01*
X155806945Y-81322241D01*
X155817745Y-81292336D01*
X155818060Y-81291337D01*
X155826460Y-81260273D01*
X155826685Y-81259283D01*
X155832685Y-81227058D01*
X155832827Y-81226095D01*
X155836427Y-81192711D01*
X155836492Y-81191790D01*
X155837266Y-81169505D01*
X156062734Y-81169505D01*
X156063507Y-81191790D01*
G37*
%TD.AperFunction*%
%TD*%
D20*
%TO.N,+3V3*%
X165924574Y-76000000D02*
X165586284Y-76195038D01*
X165585448Y-76194573D01*
X165577500Y-76191258D01*
X165575960Y-76190728D01*
X165565260Y-76187803D01*
X165564263Y-76187574D01*
X165550814Y-76185039D01*
X165550129Y-76184929D01*
X165533928Y-76182784D01*
X165533432Y-76182728D01*
X165514481Y-76180973D01*
X165514107Y-76180944D01*
X165492405Y-76179579D01*
X165492114Y-76179564D01*
X165467662Y-76178589D01*
X165467429Y-76178582D01*
X165440226Y-76177997D01*
X165440035Y-76177994D01*
X165422700Y-76177882D01*
X165422700Y-75822118D01*
X165440036Y-75822005D01*
X165440226Y-75822002D01*
X165467429Y-75821417D01*
X165467662Y-75821410D01*
X165492114Y-75820435D01*
X165492405Y-75820420D01*
X165514107Y-75819055D01*
X165514481Y-75819026D01*
X165533432Y-75817271D01*
X165533928Y-75817215D01*
X165550129Y-75815070D01*
X165550814Y-75814960D01*
X165564263Y-75812425D01*
X165565260Y-75812196D01*
X165575960Y-75809271D01*
X165577500Y-75808741D01*
X165585448Y-75805426D01*
X165586283Y-75804962D01*
X165924574Y-76000000D01*
%TA.AperFunction,Conductor*%
D19*
G36*
X165924574Y-76000000D02*
G01*
X165586284Y-76195038D01*
X165585448Y-76194573D01*
X165577500Y-76191258D01*
X165575960Y-76190728D01*
X165565260Y-76187803D01*
X165564263Y-76187574D01*
X165550814Y-76185039D01*
X165550129Y-76184929D01*
X165533928Y-76182784D01*
X165533432Y-76182728D01*
X165514481Y-76180973D01*
X165514107Y-76180944D01*
X165492405Y-76179579D01*
X165492114Y-76179564D01*
X165467662Y-76178589D01*
X165467429Y-76178582D01*
X165440226Y-76177997D01*
X165440035Y-76177994D01*
X165422700Y-76177882D01*
X165422700Y-75822118D01*
X165440036Y-75822005D01*
X165440226Y-75822002D01*
X165467429Y-75821417D01*
X165467662Y-75821410D01*
X165492114Y-75820435D01*
X165492405Y-75820420D01*
X165514107Y-75819055D01*
X165514481Y-75819026D01*
X165533432Y-75817271D01*
X165533928Y-75817215D01*
X165550129Y-75815070D01*
X165550814Y-75814960D01*
X165564263Y-75812425D01*
X165565260Y-75812196D01*
X165575960Y-75809271D01*
X165577500Y-75808741D01*
X165585448Y-75805426D01*
X165586283Y-75804962D01*
X165924574Y-76000000D01*
G37*
%TD.AperFunction*%
%TD*%
D20*
%TO.N,+3V3*%
X156388642Y-75513136D02*
X156376928Y-75525293D01*
X156376573Y-75525676D01*
X156358369Y-75546192D01*
X156357983Y-75546649D01*
X156341938Y-75566548D01*
X156341518Y-75567098D01*
X156327633Y-75586378D01*
X156327185Y-75587044D01*
X156315460Y-75605706D01*
X156314993Y-75606513D01*
X156305427Y-75624557D01*
X156304960Y-75625538D01*
X156297554Y-75642963D01*
X156297119Y-75644147D01*
X156291873Y-75660955D01*
X156291521Y-75662360D01*
X156288434Y-75678549D01*
X156288231Y-75680173D01*
X156287848Y-75686609D01*
X155844236Y-75805764D01*
X155963391Y-75362152D01*
X155969827Y-75361768D01*
X155971450Y-75361565D01*
X155987639Y-75358478D01*
X155989044Y-75358126D01*
X156005852Y-75352880D01*
X156007036Y-75352445D01*
X156024461Y-75345039D01*
X156025442Y-75344572D01*
X156043486Y-75335006D01*
X156044293Y-75334539D01*
X156062955Y-75322814D01*
X156063621Y-75322366D01*
X156082901Y-75308481D01*
X156083451Y-75308061D01*
X156103350Y-75292016D01*
X156103807Y-75291630D01*
X156124323Y-75273426D01*
X156124706Y-75273072D01*
X156136864Y-75261358D01*
X156388642Y-75513136D01*
%TA.AperFunction,Conductor*%
D19*
G36*
X156388642Y-75513136D02*
G01*
X156376928Y-75525293D01*
X156376573Y-75525676D01*
X156358369Y-75546192D01*
X156357983Y-75546649D01*
X156341938Y-75566548D01*
X156341518Y-75567098D01*
X156327633Y-75586378D01*
X156327185Y-75587044D01*
X156315460Y-75605706D01*
X156314993Y-75606513D01*
X156305427Y-75624557D01*
X156304960Y-75625538D01*
X156297554Y-75642963D01*
X156297119Y-75644147D01*
X156291873Y-75660955D01*
X156291521Y-75662360D01*
X156288434Y-75678549D01*
X156288231Y-75680173D01*
X156287848Y-75686609D01*
X155844236Y-75805764D01*
X155963391Y-75362152D01*
X155969827Y-75361768D01*
X155971450Y-75361565D01*
X155987639Y-75358478D01*
X155989044Y-75358126D01*
X156005852Y-75352880D01*
X156007036Y-75352445D01*
X156024461Y-75345039D01*
X156025442Y-75344572D01*
X156043486Y-75335006D01*
X156044293Y-75334539D01*
X156062955Y-75322814D01*
X156063621Y-75322366D01*
X156082901Y-75308481D01*
X156083451Y-75308061D01*
X156103350Y-75292016D01*
X156103807Y-75291630D01*
X156124323Y-75273426D01*
X156124706Y-75273072D01*
X156136864Y-75261358D01*
X156388642Y-75513136D01*
G37*
%TD.AperFunction*%
%TD*%
D20*
%TO.N,+3V3*%
X163025293Y-75273072D02*
X163025676Y-75273426D01*
X163046192Y-75291630D01*
X163046649Y-75292016D01*
X163066548Y-75308061D01*
X163067098Y-75308481D01*
X163086378Y-75322366D01*
X163087044Y-75322814D01*
X163105706Y-75334539D01*
X163106513Y-75335006D01*
X163124557Y-75344572D01*
X163125538Y-75345039D01*
X163142963Y-75352445D01*
X163144147Y-75352880D01*
X163160955Y-75358126D01*
X163162360Y-75358478D01*
X163178549Y-75361565D01*
X163180172Y-75361768D01*
X163186609Y-75362152D01*
X163305764Y-75805764D01*
X162862152Y-75686609D01*
X162861768Y-75680172D01*
X162861565Y-75678549D01*
X162858478Y-75662360D01*
X162858126Y-75660955D01*
X162852880Y-75644147D01*
X162852445Y-75642963D01*
X162845039Y-75625538D01*
X162844572Y-75624557D01*
X162835006Y-75606513D01*
X162834539Y-75605706D01*
X162822814Y-75587044D01*
X162822366Y-75586378D01*
X162808481Y-75567098D01*
X162808061Y-75566548D01*
X162792016Y-75546649D01*
X162791630Y-75546192D01*
X162773426Y-75525676D01*
X162773072Y-75525293D01*
X162761358Y-75513136D01*
X163013136Y-75261358D01*
X163025293Y-75273072D01*
%TA.AperFunction,Conductor*%
D19*
G36*
X163025293Y-75273072D02*
G01*
X163025676Y-75273426D01*
X163046192Y-75291630D01*
X163046649Y-75292016D01*
X163066548Y-75308061D01*
X163067098Y-75308481D01*
X163086378Y-75322366D01*
X163087044Y-75322814D01*
X163105706Y-75334539D01*
X163106513Y-75335006D01*
X163124557Y-75344572D01*
X163125538Y-75345039D01*
X163142963Y-75352445D01*
X163144147Y-75352880D01*
X163160955Y-75358126D01*
X163162360Y-75358478D01*
X163178549Y-75361565D01*
X163180172Y-75361768D01*
X163186609Y-75362152D01*
X163305764Y-75805764D01*
X162862152Y-75686609D01*
X162861768Y-75680172D01*
X162861565Y-75678549D01*
X162858478Y-75662360D01*
X162858126Y-75660955D01*
X162852880Y-75644147D01*
X162852445Y-75642963D01*
X162845039Y-75625538D01*
X162844572Y-75624557D01*
X162835006Y-75606513D01*
X162834539Y-75605706D01*
X162822814Y-75587044D01*
X162822366Y-75586378D01*
X162808481Y-75567098D01*
X162808061Y-75566548D01*
X162792016Y-75546649D01*
X162791630Y-75546192D01*
X162773426Y-75525676D01*
X162773072Y-75525293D01*
X162761358Y-75513136D01*
X163013136Y-75261358D01*
X163025293Y-75273072D01*
G37*
%TD.AperFunction*%
%TD*%
D20*
%TO.N,+3V3*%
X156206622Y-83396972D02*
X156206683Y-83397187D01*
X156221263Y-83446384D01*
X156221341Y-83446636D01*
X156235641Y-83491452D01*
X156235741Y-83491751D01*
X156249761Y-83532186D01*
X156249893Y-83532549D01*
X156263633Y-83568604D01*
X156263812Y-83569048D01*
X156277272Y-83600721D01*
X156277524Y-83601277D01*
X156290704Y-83628569D01*
X156291074Y-83629277D01*
X156303974Y-83652188D01*
X156304543Y-83653106D01*
X156317163Y-83671636D01*
X156318089Y-83672835D01*
X156324468Y-83680150D01*
X156025000Y-84199574D01*
X155725234Y-83679634D01*
X155730921Y-83672211D01*
X155732472Y-83669584D01*
X155740592Y-83651054D01*
X155741321Y-83648870D01*
X155746721Y-83625959D01*
X155746999Y-83624287D01*
X155749679Y-83596995D01*
X155749740Y-83595738D01*
X155749700Y-83564065D01*
X155749663Y-83563112D01*
X155746903Y-83527057D01*
X155746825Y-83526320D01*
X155741345Y-83485885D01*
X155741253Y-83485305D01*
X155733053Y-83440489D01*
X155732958Y-83440023D01*
X155722038Y-83390826D01*
X155721947Y-83390445D01*
X155712338Y-83352700D01*
X156194343Y-83352700D01*
X156206622Y-83396972D01*
%TA.AperFunction,Conductor*%
D19*
G36*
X156206622Y-83396972D02*
G01*
X156206683Y-83397187D01*
X156221263Y-83446384D01*
X156221341Y-83446636D01*
X156235641Y-83491452D01*
X156235741Y-83491751D01*
X156249761Y-83532186D01*
X156249893Y-83532549D01*
X156263633Y-83568604D01*
X156263812Y-83569048D01*
X156277272Y-83600721D01*
X156277524Y-83601277D01*
X156290704Y-83628569D01*
X156291074Y-83629277D01*
X156303974Y-83652188D01*
X156304543Y-83653106D01*
X156317163Y-83671636D01*
X156318089Y-83672835D01*
X156324468Y-83680150D01*
X156025000Y-84199574D01*
X155725234Y-83679634D01*
X155730921Y-83672211D01*
X155732472Y-83669584D01*
X155740592Y-83651054D01*
X155741321Y-83648870D01*
X155746721Y-83625959D01*
X155746999Y-83624287D01*
X155749679Y-83596995D01*
X155749740Y-83595738D01*
X155749700Y-83564065D01*
X155749663Y-83563112D01*
X155746903Y-83527057D01*
X155746825Y-83526320D01*
X155741345Y-83485885D01*
X155741253Y-83485305D01*
X155733053Y-83440489D01*
X155732958Y-83440023D01*
X155722038Y-83390826D01*
X155721947Y-83390445D01*
X155712338Y-83352700D01*
X156194343Y-83352700D01*
X156206622Y-83396972D01*
G37*
%TD.AperFunction*%
%TD*%
D20*
%TO.N,+5V*%
X158240102Y-89885242D02*
X158239677Y-89885892D01*
X158238226Y-89888929D01*
X158234556Y-89900277D01*
X158234121Y-89902047D01*
X158231471Y-89917563D01*
X158231333Y-89918653D01*
X158229703Y-89938336D01*
X158229664Y-89939059D01*
X158229054Y-89962910D01*
X158229051Y-89963421D01*
X158229461Y-89991439D01*
X158229473Y-89991817D01*
X158230903Y-90024002D01*
X158230919Y-90024292D01*
X158233369Y-90060645D01*
X158233386Y-90060875D01*
X158236856Y-90101396D01*
X158236874Y-90101582D01*
X158239960Y-90132300D01*
X157757356Y-90132300D01*
X157753611Y-90098897D01*
X157753593Y-90098748D01*
X157748563Y-90058227D01*
X157748539Y-90058044D01*
X157743489Y-90021691D01*
X157743455Y-90021462D01*
X157738385Y-89989277D01*
X157738335Y-89988983D01*
X157733245Y-89960965D01*
X157733168Y-89960574D01*
X157728058Y-89936723D01*
X157727929Y-89936181D01*
X157722799Y-89916498D01*
X157722563Y-89915700D01*
X157717413Y-89900184D01*
X157716917Y-89898920D01*
X157711747Y-89887572D01*
X157710483Y-89885397D01*
X157710108Y-89884878D01*
X157975000Y-89425426D01*
X158240102Y-89885242D01*
%TA.AperFunction,Conductor*%
D19*
G36*
X158240102Y-89885242D02*
G01*
X158239677Y-89885892D01*
X158238226Y-89888929D01*
X158234556Y-89900277D01*
X158234121Y-89902047D01*
X158231471Y-89917563D01*
X158231333Y-89918653D01*
X158229703Y-89938336D01*
X158229664Y-89939059D01*
X158229054Y-89962910D01*
X158229051Y-89963421D01*
X158229461Y-89991439D01*
X158229473Y-89991817D01*
X158230903Y-90024002D01*
X158230919Y-90024292D01*
X158233369Y-90060645D01*
X158233386Y-90060875D01*
X158236856Y-90101396D01*
X158236874Y-90101582D01*
X158239960Y-90132300D01*
X157757356Y-90132300D01*
X157753611Y-90098897D01*
X157753593Y-90098748D01*
X157748563Y-90058227D01*
X157748539Y-90058044D01*
X157743489Y-90021691D01*
X157743455Y-90021462D01*
X157738385Y-89989277D01*
X157738335Y-89988983D01*
X157733245Y-89960965D01*
X157733168Y-89960574D01*
X157728058Y-89936723D01*
X157727929Y-89936181D01*
X157722799Y-89916498D01*
X157722563Y-89915700D01*
X157717413Y-89900184D01*
X157716917Y-89898920D01*
X157711747Y-89887572D01*
X157710483Y-89885397D01*
X157710108Y-89884878D01*
X157975000Y-89425426D01*
X158240102Y-89885242D01*
G37*
%TD.AperFunction*%
%TD*%
D20*
%TO.N,+5V*%
X159071913Y-91149294D02*
X159072050Y-91149426D01*
X159098248Y-91174522D01*
X159098418Y-91174682D01*
X159122391Y-91196816D01*
X159122607Y-91197011D01*
X159144355Y-91216185D01*
X159144640Y-91216429D01*
X159164162Y-91232641D01*
X159164552Y-91232952D01*
X159181848Y-91246204D01*
X159182410Y-91246611D01*
X159197480Y-91256901D01*
X159198348Y-91257443D01*
X159211193Y-91264773D01*
X159212655Y-91265488D01*
X159223275Y-91269857D01*
X159226006Y-91270637D01*
X159226353Y-91270695D01*
X159363943Y-91782941D01*
X158851697Y-91645351D01*
X158851639Y-91645004D01*
X158850859Y-91642273D01*
X158846490Y-91631653D01*
X158845775Y-91630191D01*
X158838445Y-91617346D01*
X158837903Y-91616478D01*
X158827613Y-91601408D01*
X158827206Y-91600846D01*
X158813954Y-91583550D01*
X158813643Y-91583160D01*
X158797431Y-91563638D01*
X158797187Y-91563353D01*
X158778013Y-91541605D01*
X158777818Y-91541389D01*
X158755684Y-91517416D01*
X158755524Y-91517246D01*
X158730428Y-91491048D01*
X158730296Y-91490911D01*
X158711103Y-91471467D01*
X159052469Y-91130101D01*
X159071913Y-91149294D01*
%TA.AperFunction,Conductor*%
D19*
G36*
X159071913Y-91149294D02*
G01*
X159072050Y-91149426D01*
X159098248Y-91174522D01*
X159098418Y-91174682D01*
X159122391Y-91196816D01*
X159122607Y-91197011D01*
X159144355Y-91216185D01*
X159144640Y-91216429D01*
X159164162Y-91232641D01*
X159164552Y-91232952D01*
X159181848Y-91246204D01*
X159182410Y-91246611D01*
X159197480Y-91256901D01*
X159198348Y-91257443D01*
X159211193Y-91264773D01*
X159212655Y-91265488D01*
X159223275Y-91269857D01*
X159226006Y-91270637D01*
X159226353Y-91270695D01*
X159363943Y-91782941D01*
X158851697Y-91645351D01*
X158851639Y-91645004D01*
X158850859Y-91642273D01*
X158846490Y-91631653D01*
X158845775Y-91630191D01*
X158838445Y-91617346D01*
X158837903Y-91616478D01*
X158827613Y-91601408D01*
X158827206Y-91600846D01*
X158813954Y-91583550D01*
X158813643Y-91583160D01*
X158797431Y-91563638D01*
X158797187Y-91563353D01*
X158778013Y-91541605D01*
X158777818Y-91541389D01*
X158755684Y-91517416D01*
X158755524Y-91517246D01*
X158730428Y-91491048D01*
X158730296Y-91490911D01*
X158711103Y-91471467D01*
X159052469Y-91130101D01*
X159071913Y-91149294D01*
G37*
%TD.AperFunction*%
%TD*%
D20*
%TO.N,+5V*%
X152664922Y-78884930D02*
X152664719Y-78885215D01*
X152663339Y-78887698D01*
X152658919Y-78898296D01*
X152658390Y-78899836D01*
X152654490Y-78914102D01*
X152654260Y-78915099D01*
X152650880Y-78933032D01*
X152650770Y-78933717D01*
X152647910Y-78955318D01*
X152647854Y-78955814D01*
X152645514Y-78981082D01*
X152645485Y-78981456D01*
X152643665Y-79010391D01*
X152643650Y-79010682D01*
X152642350Y-79043285D01*
X152642343Y-79043518D01*
X152641563Y-79079789D01*
X152641560Y-79079979D01*
X152641382Y-79107300D01*
X152158618Y-79107300D01*
X152158440Y-79079979D01*
X152158437Y-79079789D01*
X152157657Y-79043518D01*
X152157650Y-79043285D01*
X152156350Y-79010682D01*
X152156335Y-79010391D01*
X152154515Y-78981456D01*
X152154486Y-78981082D01*
X152152146Y-78955814D01*
X152152090Y-78955318D01*
X152149230Y-78933717D01*
X152149120Y-78933032D01*
X152145740Y-78915099D01*
X152145510Y-78914102D01*
X152141610Y-78899836D01*
X152141081Y-78898296D01*
X152136661Y-78887698D01*
X152135281Y-78885215D01*
X152135078Y-78884930D01*
X152400000Y-78425426D01*
X152664922Y-78884930D01*
%TA.AperFunction,Conductor*%
D19*
G36*
X152664922Y-78884930D02*
G01*
X152664719Y-78885215D01*
X152663339Y-78887698D01*
X152658919Y-78898296D01*
X152658390Y-78899836D01*
X152654490Y-78914102D01*
X152654260Y-78915099D01*
X152650880Y-78933032D01*
X152650770Y-78933717D01*
X152647910Y-78955318D01*
X152647854Y-78955814D01*
X152645514Y-78981082D01*
X152645485Y-78981456D01*
X152643665Y-79010391D01*
X152643650Y-79010682D01*
X152642350Y-79043285D01*
X152642343Y-79043518D01*
X152641563Y-79079789D01*
X152641560Y-79079979D01*
X152641382Y-79107300D01*
X152158618Y-79107300D01*
X152158440Y-79079979D01*
X152158437Y-79079789D01*
X152157657Y-79043518D01*
X152157650Y-79043285D01*
X152156350Y-79010682D01*
X152156335Y-79010391D01*
X152154515Y-78981456D01*
X152154486Y-78981082D01*
X152152146Y-78955814D01*
X152152090Y-78955318D01*
X152149230Y-78933717D01*
X152149120Y-78933032D01*
X152145740Y-78915099D01*
X152145510Y-78914102D01*
X152141610Y-78899836D01*
X152141081Y-78898296D01*
X152136661Y-78887698D01*
X152135281Y-78885215D01*
X152135078Y-78884930D01*
X152400000Y-78425426D01*
X152664922Y-78884930D01*
G37*
%TD.AperFunction*%
%TD*%
D20*
%TO.N,+5V*%
X158149574Y-89600000D02*
X157690069Y-89864922D01*
X157689783Y-89864718D01*
X157687301Y-89863339D01*
X157676703Y-89858919D01*
X157675163Y-89858390D01*
X157660897Y-89854490D01*
X157659900Y-89854260D01*
X157641967Y-89850880D01*
X157641282Y-89850770D01*
X157619681Y-89847910D01*
X157619185Y-89847854D01*
X157593917Y-89845514D01*
X157593543Y-89845485D01*
X157564608Y-89843665D01*
X157564317Y-89843650D01*
X157531714Y-89842350D01*
X157531481Y-89842343D01*
X157495210Y-89841563D01*
X157495020Y-89841560D01*
X157467700Y-89841382D01*
X157467700Y-89358618D01*
X157495020Y-89358440D01*
X157495210Y-89358437D01*
X157531481Y-89357657D01*
X157531714Y-89357650D01*
X157564317Y-89356350D01*
X157564608Y-89356335D01*
X157593543Y-89354515D01*
X157593917Y-89354486D01*
X157619185Y-89352146D01*
X157619681Y-89352090D01*
X157641282Y-89349230D01*
X157641967Y-89349120D01*
X157659900Y-89345740D01*
X157660897Y-89345510D01*
X157675163Y-89341610D01*
X157676703Y-89341081D01*
X157687301Y-89336661D01*
X157689783Y-89335282D01*
X157690069Y-89335078D01*
X158149574Y-89600000D01*
%TA.AperFunction,Conductor*%
D19*
G36*
X158149574Y-89600000D02*
G01*
X157690069Y-89864922D01*
X157689783Y-89864718D01*
X157687301Y-89863339D01*
X157676703Y-89858919D01*
X157675163Y-89858390D01*
X157660897Y-89854490D01*
X157659900Y-89854260D01*
X157641967Y-89850880D01*
X157641282Y-89850770D01*
X157619681Y-89847910D01*
X157619185Y-89847854D01*
X157593917Y-89845514D01*
X157593543Y-89845485D01*
X157564608Y-89843665D01*
X157564317Y-89843650D01*
X157531714Y-89842350D01*
X157531481Y-89842343D01*
X157495210Y-89841563D01*
X157495020Y-89841560D01*
X157467700Y-89841382D01*
X157467700Y-89358618D01*
X157495020Y-89358440D01*
X157495210Y-89358437D01*
X157531481Y-89357657D01*
X157531714Y-89357650D01*
X157564317Y-89356350D01*
X157564608Y-89356335D01*
X157593543Y-89354515D01*
X157593917Y-89354486D01*
X157619185Y-89352146D01*
X157619681Y-89352090D01*
X157641282Y-89349230D01*
X157641967Y-89349120D01*
X157659900Y-89345740D01*
X157660897Y-89345510D01*
X157675163Y-89341610D01*
X157676703Y-89341081D01*
X157687301Y-89336661D01*
X157689783Y-89335282D01*
X157690069Y-89335078D01*
X158149574Y-89600000D01*
G37*
%TD.AperFunction*%
%TD*%
D20*
%TO.N,/RST*%
X159688158Y-82427523D02*
X159688223Y-82428441D01*
X159690773Y-82452178D01*
X159690913Y-82453138D01*
X159695163Y-82476042D01*
X159695388Y-82477030D01*
X159701338Y-82499103D01*
X159701651Y-82500102D01*
X159709301Y-82521342D01*
X159709704Y-82522328D01*
X159719054Y-82542736D01*
X159719540Y-82543689D01*
X159730590Y-82563265D01*
X159731149Y-82564165D01*
X159743899Y-82582909D01*
X159744515Y-82583740D01*
X159758965Y-82601652D01*
X159759622Y-82602404D01*
X159769273Y-82612611D01*
X159575000Y-82949574D01*
X159380727Y-82612611D01*
X159390378Y-82602404D01*
X159391035Y-82601652D01*
X159405485Y-82583740D01*
X159406101Y-82582909D01*
X159418851Y-82564165D01*
X159419410Y-82563265D01*
X159430460Y-82543689D01*
X159430946Y-82542736D01*
X159440296Y-82522328D01*
X159440699Y-82521342D01*
X159448349Y-82500102D01*
X159448662Y-82499103D01*
X159454612Y-82477030D01*
X159454837Y-82476042D01*
X159459087Y-82453138D01*
X159459227Y-82452178D01*
X159461777Y-82428441D01*
X159461842Y-82427523D01*
X159462268Y-82415215D01*
X159687732Y-82415215D01*
X159688158Y-82427523D01*
%TA.AperFunction,Conductor*%
D19*
G36*
X159688158Y-82427523D02*
G01*
X159688223Y-82428441D01*
X159690773Y-82452178D01*
X159690913Y-82453138D01*
X159695163Y-82476042D01*
X159695388Y-82477030D01*
X159701338Y-82499103D01*
X159701651Y-82500102D01*
X159709301Y-82521342D01*
X159709704Y-82522328D01*
X159719054Y-82542736D01*
X159719540Y-82543689D01*
X159730590Y-82563265D01*
X159731149Y-82564165D01*
X159743899Y-82582909D01*
X159744515Y-82583740D01*
X159758965Y-82601652D01*
X159759622Y-82602404D01*
X159769273Y-82612611D01*
X159575000Y-82949574D01*
X159380727Y-82612611D01*
X159390378Y-82602404D01*
X159391035Y-82601652D01*
X159405485Y-82583740D01*
X159406101Y-82582909D01*
X159418851Y-82564165D01*
X159419410Y-82563265D01*
X159430460Y-82543689D01*
X159430946Y-82542736D01*
X159440296Y-82522328D01*
X159440699Y-82521342D01*
X159448349Y-82500102D01*
X159448662Y-82499103D01*
X159454612Y-82477030D01*
X159454837Y-82476042D01*
X159459087Y-82453138D01*
X159459227Y-82452178D01*
X159461777Y-82428441D01*
X159461842Y-82427523D01*
X159462268Y-82415215D01*
X159687732Y-82415215D01*
X159688158Y-82427523D01*
G37*
%TD.AperFunction*%
%TD*%
D20*
%TO.N,/RST*%
X159879267Y-81948088D02*
X159862230Y-81966068D01*
X159861644Y-81966732D01*
X159838994Y-81994247D01*
X159838496Y-81994892D01*
X159816746Y-82025067D01*
X159816328Y-82025685D01*
X159795478Y-82058519D01*
X159795128Y-82059104D01*
X159775178Y-82094599D01*
X159774887Y-82095149D01*
X159755837Y-82133304D01*
X159755595Y-82133817D01*
X159737445Y-82174631D01*
X159737244Y-82175107D01*
X159719994Y-82218582D01*
X159719829Y-82219024D01*
X159703479Y-82265158D01*
X159703341Y-82265567D01*
X159690699Y-82305495D01*
X159466543Y-82305495D01*
X159475319Y-82272681D01*
X159475507Y-82271871D01*
X159484657Y-82225737D01*
X159484808Y-82224789D01*
X159490058Y-82181314D01*
X159490143Y-82180211D01*
X159491493Y-82139397D01*
X159491472Y-82138130D01*
X159488922Y-82099975D01*
X159488745Y-82098551D01*
X159482295Y-82063056D01*
X159481912Y-82061509D01*
X159471562Y-82028675D01*
X159470934Y-82027070D01*
X159456684Y-81996895D01*
X159455801Y-81995325D01*
X159437651Y-81967810D01*
X159436550Y-81966375D01*
X159420573Y-81948365D01*
X159650000Y-81550426D01*
X159879267Y-81948088D01*
%TA.AperFunction,Conductor*%
D19*
G36*
X159879267Y-81948088D02*
G01*
X159862230Y-81966068D01*
X159861644Y-81966732D01*
X159838994Y-81994247D01*
X159838496Y-81994892D01*
X159816746Y-82025067D01*
X159816328Y-82025685D01*
X159795478Y-82058519D01*
X159795128Y-82059104D01*
X159775178Y-82094599D01*
X159774887Y-82095149D01*
X159755837Y-82133304D01*
X159755595Y-82133817D01*
X159737445Y-82174631D01*
X159737244Y-82175107D01*
X159719994Y-82218582D01*
X159719829Y-82219024D01*
X159703479Y-82265158D01*
X159703341Y-82265567D01*
X159690699Y-82305495D01*
X159466543Y-82305495D01*
X159475319Y-82272681D01*
X159475507Y-82271871D01*
X159484657Y-82225737D01*
X159484808Y-82224789D01*
X159490058Y-82181314D01*
X159490143Y-82180211D01*
X159491493Y-82139397D01*
X159491472Y-82138130D01*
X159488922Y-82099975D01*
X159488745Y-82098551D01*
X159482295Y-82063056D01*
X159481912Y-82061509D01*
X159471562Y-82028675D01*
X159470934Y-82027070D01*
X159456684Y-81996895D01*
X159455801Y-81995325D01*
X159437651Y-81967810D01*
X159436550Y-81966375D01*
X159420573Y-81948365D01*
X159650000Y-81550426D01*
X159879267Y-81948088D01*
G37*
%TD.AperFunction*%
%TD*%
D20*
%TO.N,/RST*%
X157925390Y-83729945D02*
X157926136Y-83730598D01*
X157965687Y-83762558D01*
X157966513Y-83763172D01*
X158007862Y-83791372D01*
X158008759Y-83791930D01*
X158051905Y-83816370D01*
X158052855Y-83816857D01*
X158097799Y-83837537D01*
X158098785Y-83837942D01*
X158145525Y-83854862D01*
X158146525Y-83855177D01*
X158195064Y-83868337D01*
X158196056Y-83868564D01*
X158246391Y-83877964D01*
X158247356Y-83878106D01*
X158299489Y-83883746D01*
X158300413Y-83883812D01*
X158342086Y-83885265D01*
X158342086Y-84114735D01*
X158300413Y-84116188D01*
X158299489Y-84116254D01*
X158247356Y-84121894D01*
X158246391Y-84122036D01*
X158196056Y-84131436D01*
X158195064Y-84131663D01*
X158146525Y-84144823D01*
X158145525Y-84145138D01*
X158098785Y-84162058D01*
X158097799Y-84162463D01*
X158052855Y-84183143D01*
X158051905Y-84183630D01*
X158008759Y-84208070D01*
X158007862Y-84208628D01*
X157966513Y-84236828D01*
X157965687Y-84237442D01*
X157926136Y-84269402D01*
X157925390Y-84270055D01*
X157894509Y-84299272D01*
X157375426Y-84000000D01*
X157894509Y-83700728D01*
X157925390Y-83729945D01*
%TA.AperFunction,Conductor*%
D19*
G36*
X157925390Y-83729945D02*
G01*
X157926136Y-83730598D01*
X157965687Y-83762558D01*
X157966513Y-83763172D01*
X158007862Y-83791372D01*
X158008759Y-83791930D01*
X158051905Y-83816370D01*
X158052855Y-83816857D01*
X158097799Y-83837537D01*
X158098785Y-83837942D01*
X158145525Y-83854862D01*
X158146525Y-83855177D01*
X158195064Y-83868337D01*
X158196056Y-83868564D01*
X158246391Y-83877964D01*
X158247356Y-83878106D01*
X158299489Y-83883746D01*
X158300413Y-83883812D01*
X158342086Y-83885265D01*
X158342086Y-84114735D01*
X158300413Y-84116188D01*
X158299489Y-84116254D01*
X158247356Y-84121894D01*
X158246391Y-84122036D01*
X158196056Y-84131436D01*
X158195064Y-84131663D01*
X158146525Y-84144823D01*
X158145525Y-84145138D01*
X158098785Y-84162058D01*
X158097799Y-84162463D01*
X158052855Y-84183143D01*
X158051905Y-84183630D01*
X158008759Y-84208070D01*
X158007862Y-84208628D01*
X157966513Y-84236828D01*
X157965687Y-84237442D01*
X157926136Y-84269402D01*
X157925390Y-84270055D01*
X157894509Y-84299272D01*
X157375426Y-84000000D01*
X157894509Y-83700728D01*
X157925390Y-83729945D01*
G37*
%TD.AperFunction*%
%TD*%
D20*
%TO.N,/RST*%
X159562189Y-83112554D02*
X159548700Y-83112931D01*
X159547703Y-83112998D01*
X159525357Y-83115390D01*
X159524333Y-83115542D01*
X159502585Y-83119683D01*
X159501554Y-83119925D01*
X159480404Y-83125815D01*
X159479386Y-83126145D01*
X159458835Y-83133785D01*
X159457853Y-83134198D01*
X159437899Y-83143587D01*
X159436971Y-83144071D01*
X159417616Y-83155210D01*
X159416759Y-83155750D01*
X159398002Y-83168638D01*
X159397224Y-83169217D01*
X159379065Y-83183855D01*
X159378370Y-83184458D01*
X159369780Y-83192475D01*
X159207525Y-83030220D01*
X159215542Y-83021628D01*
X159216144Y-83020934D01*
X159230782Y-83002775D01*
X159231361Y-83001997D01*
X159244249Y-82983240D01*
X159244789Y-82982383D01*
X159255928Y-82963028D01*
X159256412Y-82962100D01*
X159265801Y-82942146D01*
X159266214Y-82941164D01*
X159273854Y-82920613D01*
X159274184Y-82919595D01*
X159280074Y-82898445D01*
X159280316Y-82897414D01*
X159284458Y-82875666D01*
X159284610Y-82874641D01*
X159287001Y-82852295D01*
X159287068Y-82851300D01*
X159287446Y-82837811D01*
X159663087Y-82736913D01*
X159562189Y-83112554D01*
%TA.AperFunction,Conductor*%
D19*
G36*
X159562189Y-83112554D02*
G01*
X159548700Y-83112931D01*
X159547703Y-83112998D01*
X159525357Y-83115390D01*
X159524333Y-83115542D01*
X159502585Y-83119683D01*
X159501554Y-83119925D01*
X159480404Y-83125815D01*
X159479386Y-83126145D01*
X159458835Y-83133785D01*
X159457853Y-83134198D01*
X159437899Y-83143587D01*
X159436971Y-83144071D01*
X159417616Y-83155210D01*
X159416759Y-83155750D01*
X159398002Y-83168638D01*
X159397224Y-83169217D01*
X159379065Y-83183855D01*
X159378370Y-83184458D01*
X159369780Y-83192475D01*
X159207525Y-83030220D01*
X159215542Y-83021628D01*
X159216144Y-83020934D01*
X159230782Y-83002775D01*
X159231361Y-83001997D01*
X159244249Y-82983240D01*
X159244789Y-82982383D01*
X159255928Y-82963028D01*
X159256412Y-82962100D01*
X159265801Y-82942146D01*
X159266214Y-82941164D01*
X159273854Y-82920613D01*
X159274184Y-82919595D01*
X159280074Y-82898445D01*
X159280316Y-82897414D01*
X159284458Y-82875666D01*
X159284610Y-82874641D01*
X159287001Y-82852295D01*
X159287068Y-82851300D01*
X159287446Y-82837811D01*
X159663087Y-82736913D01*
X159562189Y-83112554D01*
G37*
%TD.AperFunction*%
%TD*%
D20*
%TO.N,Net-(C9-Pad2)*%
X173198607Y-86242660D02*
X173198743Y-86243255D01*
X173211893Y-86294787D01*
X173212072Y-86295418D01*
X173227322Y-86344462D01*
X173227549Y-86345126D01*
X173244899Y-86391682D01*
X173245180Y-86392375D01*
X173264630Y-86436444D01*
X173264973Y-86437160D01*
X173286523Y-86478741D01*
X173286933Y-86479471D01*
X173310583Y-86518564D01*
X173311062Y-86519297D01*
X173336812Y-86555902D01*
X173337361Y-86556626D01*
X173365211Y-86590744D01*
X173365827Y-86591445D01*
X173389269Y-86616202D01*
X173125000Y-87074574D01*
X172860647Y-86616057D01*
X172883318Y-86591288D01*
X172884216Y-86590190D01*
X172909066Y-86556072D01*
X172909848Y-86554858D01*
X172930598Y-86518253D01*
X172931234Y-86516966D01*
X172947884Y-86477873D01*
X172948358Y-86476567D01*
X172960908Y-86434986D01*
X172961223Y-86433708D01*
X172969673Y-86389639D01*
X172969845Y-86388428D01*
X172974195Y-86341872D01*
X172974250Y-86340756D01*
X172974500Y-86291712D01*
X172974465Y-86290701D01*
X172970615Y-86239169D01*
X172970515Y-86238266D01*
X172964706Y-86198796D01*
X173189635Y-86198796D01*
X173198607Y-86242660D01*
%TA.AperFunction,Conductor*%
D19*
G36*
X173198607Y-86242660D02*
G01*
X173198743Y-86243255D01*
X173211893Y-86294787D01*
X173212072Y-86295418D01*
X173227322Y-86344462D01*
X173227549Y-86345126D01*
X173244899Y-86391682D01*
X173245180Y-86392375D01*
X173264630Y-86436444D01*
X173264973Y-86437160D01*
X173286523Y-86478741D01*
X173286933Y-86479471D01*
X173310583Y-86518564D01*
X173311062Y-86519297D01*
X173336812Y-86555902D01*
X173337361Y-86556626D01*
X173365211Y-86590744D01*
X173365827Y-86591445D01*
X173389269Y-86616202D01*
X173125000Y-87074574D01*
X172860647Y-86616057D01*
X172883318Y-86591288D01*
X172884216Y-86590190D01*
X172909066Y-86556072D01*
X172909848Y-86554858D01*
X172930598Y-86518253D01*
X172931234Y-86516966D01*
X172947884Y-86477873D01*
X172948358Y-86476567D01*
X172960908Y-86434986D01*
X172961223Y-86433708D01*
X172969673Y-86389639D01*
X172969845Y-86388428D01*
X172974195Y-86341872D01*
X172974250Y-86340756D01*
X172974500Y-86291712D01*
X172974465Y-86290701D01*
X172970615Y-86239169D01*
X172970515Y-86238266D01*
X172964706Y-86198796D01*
X173189635Y-86198796D01*
X173198607Y-86242660D01*
G37*
%TD.AperFunction*%
%TD*%
D20*
%TO.N,Net-(C9-Pad2)*%
X173374272Y-84419509D02*
X173344675Y-84450791D01*
X173344022Y-84451537D01*
X173311722Y-84491507D01*
X173311108Y-84492333D01*
X173282608Y-84534120D01*
X173282050Y-84535016D01*
X173257350Y-84578617D01*
X173256863Y-84579568D01*
X173235963Y-84624986D01*
X173235558Y-84625972D01*
X173218458Y-84673205D01*
X173218143Y-84674204D01*
X173204843Y-84723252D01*
X173204616Y-84724244D01*
X173195116Y-84775108D01*
X173194974Y-84776074D01*
X173189274Y-84828753D01*
X173189208Y-84829676D01*
X173187735Y-84871915D01*
X172962265Y-84871915D01*
X172960792Y-84829676D01*
X172960726Y-84828753D01*
X172955026Y-84776074D01*
X172954884Y-84775108D01*
X172945384Y-84724244D01*
X172945157Y-84723252D01*
X172931857Y-84674204D01*
X172931542Y-84673205D01*
X172914442Y-84625972D01*
X172914037Y-84624986D01*
X172893137Y-84579568D01*
X172892650Y-84578617D01*
X172867950Y-84535016D01*
X172867392Y-84534120D01*
X172838892Y-84492333D01*
X172838278Y-84491507D01*
X172805978Y-84451537D01*
X172805325Y-84450791D01*
X172775728Y-84419509D01*
X173075000Y-83900426D01*
X173374272Y-84419509D01*
%TA.AperFunction,Conductor*%
D19*
G36*
X173374272Y-84419509D02*
G01*
X173344675Y-84450791D01*
X173344022Y-84451537D01*
X173311722Y-84491507D01*
X173311108Y-84492333D01*
X173282608Y-84534120D01*
X173282050Y-84535016D01*
X173257350Y-84578617D01*
X173256863Y-84579568D01*
X173235963Y-84624986D01*
X173235558Y-84625972D01*
X173218458Y-84673205D01*
X173218143Y-84674204D01*
X173204843Y-84723252D01*
X173204616Y-84724244D01*
X173195116Y-84775108D01*
X173194974Y-84776074D01*
X173189274Y-84828753D01*
X173189208Y-84829676D01*
X173187735Y-84871915D01*
X172962265Y-84871915D01*
X172960792Y-84829676D01*
X172960726Y-84828753D01*
X172955026Y-84776074D01*
X172954884Y-84775108D01*
X172945384Y-84724244D01*
X172945157Y-84723252D01*
X172931857Y-84674204D01*
X172931542Y-84673205D01*
X172914442Y-84625972D01*
X172914037Y-84624986D01*
X172893137Y-84579568D01*
X172892650Y-84578617D01*
X172867950Y-84535016D01*
X172867392Y-84534120D01*
X172838892Y-84492333D01*
X172838278Y-84491507D01*
X172805978Y-84451537D01*
X172805325Y-84450791D01*
X172775728Y-84419509D01*
X173075000Y-83900426D01*
X173374272Y-84419509D01*
G37*
%TD.AperFunction*%
%TD*%
D20*
%TO.N,Net-(C9-Pad2)*%
X167354831Y-81404598D02*
X167339620Y-81420904D01*
X167339016Y-81421601D01*
X167317955Y-81447752D01*
X167317374Y-81448533D01*
X167298830Y-81475562D01*
X167298289Y-81476422D01*
X167282263Y-81504328D01*
X167281779Y-81505257D01*
X167268270Y-81534039D01*
X167267858Y-81535022D01*
X167256867Y-81564681D01*
X167256539Y-81565698D01*
X167248064Y-81596234D01*
X167247823Y-81597264D01*
X167241866Y-81628677D01*
X167241715Y-81629698D01*
X167238275Y-81661988D01*
X167238209Y-81662980D01*
X167237550Y-81686690D01*
X166794236Y-81805764D01*
X166913311Y-81362450D01*
X166937019Y-81361790D01*
X166938011Y-81361724D01*
X166970301Y-81358284D01*
X166971322Y-81358133D01*
X167002735Y-81352176D01*
X167003765Y-81351935D01*
X167034301Y-81343460D01*
X167035318Y-81343132D01*
X167064977Y-81332141D01*
X167065960Y-81331729D01*
X167094742Y-81318220D01*
X167095671Y-81317736D01*
X167123577Y-81301710D01*
X167124437Y-81301169D01*
X167151466Y-81282625D01*
X167152247Y-81282044D01*
X167178398Y-81260983D01*
X167179095Y-81260379D01*
X167195402Y-81245169D01*
X167354831Y-81404598D01*
%TA.AperFunction,Conductor*%
D19*
G36*
X167354831Y-81404598D02*
G01*
X167339620Y-81420904D01*
X167339016Y-81421601D01*
X167317955Y-81447752D01*
X167317374Y-81448533D01*
X167298830Y-81475562D01*
X167298289Y-81476422D01*
X167282263Y-81504328D01*
X167281779Y-81505257D01*
X167268270Y-81534039D01*
X167267858Y-81535022D01*
X167256867Y-81564681D01*
X167256539Y-81565698D01*
X167248064Y-81596234D01*
X167247823Y-81597264D01*
X167241866Y-81628677D01*
X167241715Y-81629698D01*
X167238275Y-81661988D01*
X167238209Y-81662980D01*
X167237550Y-81686690D01*
X166794236Y-81805764D01*
X166913311Y-81362450D01*
X166937019Y-81361790D01*
X166938011Y-81361724D01*
X166970301Y-81358284D01*
X166971322Y-81358133D01*
X167002735Y-81352176D01*
X167003765Y-81351935D01*
X167034301Y-81343460D01*
X167035318Y-81343132D01*
X167064977Y-81332141D01*
X167065960Y-81331729D01*
X167094742Y-81318220D01*
X167095671Y-81317736D01*
X167123577Y-81301710D01*
X167124437Y-81301169D01*
X167151466Y-81282625D01*
X167152247Y-81282044D01*
X167178398Y-81260983D01*
X167179095Y-81260379D01*
X167195402Y-81245169D01*
X167354831Y-81404598D01*
G37*
%TD.AperFunction*%
%TD*%
D20*
%TO.N,Net-(C9-Pad2)*%
X173189208Y-83370323D02*
X173189274Y-83371246D01*
X173194974Y-83423925D01*
X173195116Y-83424891D01*
X173204616Y-83475755D01*
X173204843Y-83476747D01*
X173218143Y-83525795D01*
X173218458Y-83526794D01*
X173235558Y-83574027D01*
X173235963Y-83575013D01*
X173256863Y-83620431D01*
X173257350Y-83621382D01*
X173282050Y-83664983D01*
X173282608Y-83665879D01*
X173311108Y-83707666D01*
X173311722Y-83708492D01*
X173344022Y-83748462D01*
X173344675Y-83749208D01*
X173374272Y-83780490D01*
X173075000Y-84299574D01*
X172775728Y-83780490D01*
X172805325Y-83749208D01*
X172805978Y-83748462D01*
X172838278Y-83708492D01*
X172838892Y-83707666D01*
X172867392Y-83665879D01*
X172867950Y-83664983D01*
X172892650Y-83621382D01*
X172893137Y-83620431D01*
X172914037Y-83575013D01*
X172914442Y-83574027D01*
X172931542Y-83526794D01*
X172931857Y-83525795D01*
X172945157Y-83476747D01*
X172945384Y-83475755D01*
X172954884Y-83424891D01*
X172955026Y-83423925D01*
X172960726Y-83371246D01*
X172960792Y-83370323D01*
X172962265Y-83328085D01*
X173187735Y-83328085D01*
X173189208Y-83370323D01*
%TA.AperFunction,Conductor*%
D19*
G36*
X173189208Y-83370323D02*
G01*
X173189274Y-83371246D01*
X173194974Y-83423925D01*
X173195116Y-83424891D01*
X173204616Y-83475755D01*
X173204843Y-83476747D01*
X173218143Y-83525795D01*
X173218458Y-83526794D01*
X173235558Y-83574027D01*
X173235963Y-83575013D01*
X173256863Y-83620431D01*
X173257350Y-83621382D01*
X173282050Y-83664983D01*
X173282608Y-83665879D01*
X173311108Y-83707666D01*
X173311722Y-83708492D01*
X173344022Y-83748462D01*
X173344675Y-83749208D01*
X173374272Y-83780490D01*
X173075000Y-84299574D01*
X172775728Y-83780490D01*
X172805325Y-83749208D01*
X172805978Y-83748462D01*
X172838278Y-83708492D01*
X172838892Y-83707666D01*
X172867392Y-83665879D01*
X172867950Y-83664983D01*
X172892650Y-83621382D01*
X172893137Y-83620431D01*
X172914037Y-83575013D01*
X172914442Y-83574027D01*
X172931542Y-83526794D01*
X172931857Y-83525795D01*
X172945157Y-83476747D01*
X172945384Y-83475755D01*
X172954884Y-83424891D01*
X172955026Y-83423925D01*
X172960726Y-83371246D01*
X172960792Y-83370323D01*
X172962265Y-83328085D01*
X173187735Y-83328085D01*
X173189208Y-83370323D01*
G37*
%TD.AperFunction*%
%TD*%
D20*
%TO.N,Net-(C10-Pad1)*%
X159803700Y-89109130D02*
X159803754Y-89109967D01*
X159806439Y-89137523D01*
X159806558Y-89138415D01*
X159811033Y-89164794D01*
X159811229Y-89165734D01*
X159817494Y-89190934D01*
X159817778Y-89191907D01*
X159825833Y-89215931D01*
X159826211Y-89216920D01*
X159836056Y-89239765D01*
X159836530Y-89240747D01*
X159848165Y-89262414D01*
X159848731Y-89263366D01*
X159862156Y-89283856D01*
X159862803Y-89284756D01*
X159878018Y-89304068D01*
X159878730Y-89304895D01*
X159889294Y-89316160D01*
X159625000Y-89774574D01*
X159360706Y-89316160D01*
X159371269Y-89304895D01*
X159371981Y-89304068D01*
X159387196Y-89284756D01*
X159387843Y-89283856D01*
X159401268Y-89263366D01*
X159401834Y-89262414D01*
X159413469Y-89240747D01*
X159413943Y-89239765D01*
X159423788Y-89216920D01*
X159424166Y-89215931D01*
X159432221Y-89191907D01*
X159432505Y-89190934D01*
X159438770Y-89165734D01*
X159438966Y-89164794D01*
X159443441Y-89138415D01*
X159443560Y-89137523D01*
X159446245Y-89109967D01*
X159446299Y-89109130D01*
X159446811Y-89092701D01*
X159803189Y-89092701D01*
X159803700Y-89109130D01*
%TA.AperFunction,Conductor*%
D19*
G36*
X159803700Y-89109130D02*
G01*
X159803754Y-89109967D01*
X159806439Y-89137523D01*
X159806558Y-89138415D01*
X159811033Y-89164794D01*
X159811229Y-89165734D01*
X159817494Y-89190934D01*
X159817778Y-89191907D01*
X159825833Y-89215931D01*
X159826211Y-89216920D01*
X159836056Y-89239765D01*
X159836530Y-89240747D01*
X159848165Y-89262414D01*
X159848731Y-89263366D01*
X159862156Y-89283856D01*
X159862803Y-89284756D01*
X159878018Y-89304068D01*
X159878730Y-89304895D01*
X159889294Y-89316160D01*
X159625000Y-89774574D01*
X159360706Y-89316160D01*
X159371269Y-89304895D01*
X159371981Y-89304068D01*
X159387196Y-89284756D01*
X159387843Y-89283856D01*
X159401268Y-89263366D01*
X159401834Y-89262414D01*
X159413469Y-89240747D01*
X159413943Y-89239765D01*
X159423788Y-89216920D01*
X159424166Y-89215931D01*
X159432221Y-89191907D01*
X159432505Y-89190934D01*
X159438770Y-89165734D01*
X159438966Y-89164794D01*
X159443441Y-89138415D01*
X159443560Y-89137523D01*
X159446245Y-89109967D01*
X159446299Y-89109130D01*
X159446811Y-89092701D01*
X159803189Y-89092701D01*
X159803700Y-89109130D01*
G37*
%TD.AperFunction*%
%TD*%
D20*
%TO.N,Net-(C10-Pad1)*%
X159874373Y-87219685D02*
X159857439Y-87238346D01*
X159856484Y-87239536D01*
X159836819Y-87267274D01*
X159836004Y-87268586D01*
X159819829Y-87298546D01*
X159819189Y-87299922D01*
X159806504Y-87332102D01*
X159806050Y-87333480D01*
X159796855Y-87367882D01*
X159796575Y-87369206D01*
X159790870Y-87405828D01*
X159790740Y-87407060D01*
X159788525Y-87445904D01*
X159788510Y-87447021D01*
X159789785Y-87488085D01*
X159789855Y-87489081D01*
X159794620Y-87532367D01*
X159794748Y-87533244D01*
X159800289Y-87563784D01*
X159444550Y-87563784D01*
X159436115Y-87528059D01*
X159435976Y-87527523D01*
X159423741Y-87484237D01*
X159423565Y-87483665D01*
X159409840Y-87442601D01*
X159409620Y-87441995D01*
X159394405Y-87403151D01*
X159394135Y-87402512D01*
X159377430Y-87365890D01*
X159377102Y-87365223D01*
X159358907Y-87330821D01*
X159358514Y-87330132D01*
X159338829Y-87297952D01*
X159338366Y-87297249D01*
X159317191Y-87267289D01*
X159316654Y-87266583D01*
X159293989Y-87238845D01*
X159293378Y-87238150D01*
X159275730Y-87219507D01*
X159575000Y-86700426D01*
X159874373Y-87219685D01*
%TA.AperFunction,Conductor*%
D19*
G36*
X159874373Y-87219685D02*
G01*
X159857439Y-87238346D01*
X159856484Y-87239536D01*
X159836819Y-87267274D01*
X159836004Y-87268586D01*
X159819829Y-87298546D01*
X159819189Y-87299922D01*
X159806504Y-87332102D01*
X159806050Y-87333480D01*
X159796855Y-87367882D01*
X159796575Y-87369206D01*
X159790870Y-87405828D01*
X159790740Y-87407060D01*
X159788525Y-87445904D01*
X159788510Y-87447021D01*
X159789785Y-87488085D01*
X159789855Y-87489081D01*
X159794620Y-87532367D01*
X159794748Y-87533244D01*
X159800289Y-87563784D01*
X159444550Y-87563784D01*
X159436115Y-87528059D01*
X159435976Y-87527523D01*
X159423741Y-87484237D01*
X159423565Y-87483665D01*
X159409840Y-87442601D01*
X159409620Y-87441995D01*
X159394405Y-87403151D01*
X159394135Y-87402512D01*
X159377430Y-87365890D01*
X159377102Y-87365223D01*
X159358907Y-87330821D01*
X159358514Y-87330132D01*
X159338829Y-87297952D01*
X159338366Y-87297249D01*
X159317191Y-87267289D01*
X159316654Y-87266583D01*
X159293989Y-87238845D01*
X159293378Y-87238150D01*
X159275730Y-87219507D01*
X159575000Y-86700426D01*
X159874373Y-87219685D01*
G37*
%TD.AperFunction*%
%TD*%
D20*
%TO.N,Net-(C10-Pad1)*%
X162599574Y-86895000D02*
X162261284Y-87090038D01*
X162260448Y-87089573D01*
X162252500Y-87086258D01*
X162250960Y-87085728D01*
X162240260Y-87082803D01*
X162239263Y-87082574D01*
X162225814Y-87080039D01*
X162225129Y-87079929D01*
X162208928Y-87077784D01*
X162208432Y-87077728D01*
X162189481Y-87075973D01*
X162189107Y-87075944D01*
X162167405Y-87074579D01*
X162167114Y-87074564D01*
X162142662Y-87073589D01*
X162142429Y-87073582D01*
X162115226Y-87072997D01*
X162115035Y-87072994D01*
X162097700Y-87072882D01*
X162097700Y-86717118D01*
X162115036Y-86717005D01*
X162115226Y-86717002D01*
X162142429Y-86716417D01*
X162142662Y-86716410D01*
X162167114Y-86715435D01*
X162167405Y-86715420D01*
X162189107Y-86714055D01*
X162189481Y-86714026D01*
X162208432Y-86712271D01*
X162208928Y-86712215D01*
X162225129Y-86710070D01*
X162225814Y-86709960D01*
X162239263Y-86707425D01*
X162240260Y-86707196D01*
X162250960Y-86704271D01*
X162252500Y-86703741D01*
X162260448Y-86700426D01*
X162261283Y-86699962D01*
X162599574Y-86895000D01*
%TA.AperFunction,Conductor*%
D19*
G36*
X162599574Y-86895000D02*
G01*
X162261284Y-87090038D01*
X162260448Y-87089573D01*
X162252500Y-87086258D01*
X162250960Y-87085728D01*
X162240260Y-87082803D01*
X162239263Y-87082574D01*
X162225814Y-87080039D01*
X162225129Y-87079929D01*
X162208928Y-87077784D01*
X162208432Y-87077728D01*
X162189481Y-87075973D01*
X162189107Y-87075944D01*
X162167405Y-87074579D01*
X162167114Y-87074564D01*
X162142662Y-87073589D01*
X162142429Y-87073582D01*
X162115226Y-87072997D01*
X162115035Y-87072994D01*
X162097700Y-87072882D01*
X162097700Y-86717118D01*
X162115036Y-86717005D01*
X162115226Y-86717002D01*
X162142429Y-86716417D01*
X162142662Y-86716410D01*
X162167114Y-86715435D01*
X162167405Y-86715420D01*
X162189107Y-86714055D01*
X162189481Y-86714026D01*
X162208432Y-86712271D01*
X162208928Y-86712215D01*
X162225129Y-86710070D01*
X162225814Y-86709960D01*
X162239263Y-86707425D01*
X162240260Y-86707196D01*
X162250960Y-86704271D01*
X162252500Y-86703741D01*
X162260448Y-86700426D01*
X162261283Y-86699962D01*
X162599574Y-86895000D01*
G37*
%TD.AperFunction*%
%TD*%
D20*
%TO.N,Net-(C10-Pad1)*%
X159912724Y-86617851D02*
X159913519Y-86618540D01*
X159939907Y-86639555D01*
X159940787Y-86640196D01*
X159968497Y-86658621D01*
X159969447Y-86659194D01*
X159998477Y-86675029D01*
X159999480Y-86675520D01*
X160029832Y-86688765D01*
X160030862Y-86689162D01*
X160062534Y-86699817D01*
X160063567Y-86700117D01*
X160096561Y-86708182D01*
X160097576Y-86708386D01*
X160131890Y-86713861D01*
X160132866Y-86713979D01*
X160168502Y-86716864D01*
X160169426Y-86716905D01*
X160193784Y-86717099D01*
X160193784Y-87073531D01*
X160168774Y-87075016D01*
X160167906Y-87075098D01*
X160132270Y-87079683D01*
X160131361Y-87079834D01*
X160097047Y-87086809D01*
X160096109Y-87087037D01*
X160063115Y-87096402D01*
X160062164Y-87096713D01*
X160030492Y-87108468D01*
X160029546Y-87108863D01*
X159999194Y-87123008D01*
X159998273Y-87123484D01*
X159969243Y-87140019D01*
X159968366Y-87140567D01*
X159940656Y-87159492D01*
X159939839Y-87160099D01*
X159913451Y-87181414D01*
X159912705Y-87182067D01*
X159894511Y-87199273D01*
X159375426Y-86900000D01*
X159894529Y-86600717D01*
X159912724Y-86617851D01*
%TA.AperFunction,Conductor*%
D19*
G36*
X159912724Y-86617851D02*
G01*
X159913519Y-86618540D01*
X159939907Y-86639555D01*
X159940787Y-86640196D01*
X159968497Y-86658621D01*
X159969447Y-86659194D01*
X159998477Y-86675029D01*
X159999480Y-86675520D01*
X160029832Y-86688765D01*
X160030862Y-86689162D01*
X160062534Y-86699817D01*
X160063567Y-86700117D01*
X160096561Y-86708182D01*
X160097576Y-86708386D01*
X160131890Y-86713861D01*
X160132866Y-86713979D01*
X160168502Y-86716864D01*
X160169426Y-86716905D01*
X160193784Y-86717099D01*
X160193784Y-87073531D01*
X160168774Y-87075016D01*
X160167906Y-87075098D01*
X160132270Y-87079683D01*
X160131361Y-87079834D01*
X160097047Y-87086809D01*
X160096109Y-87087037D01*
X160063115Y-87096402D01*
X160062164Y-87096713D01*
X160030492Y-87108468D01*
X160029546Y-87108863D01*
X159999194Y-87123008D01*
X159998273Y-87123484D01*
X159969243Y-87140019D01*
X159968366Y-87140567D01*
X159940656Y-87159492D01*
X159939839Y-87160099D01*
X159913451Y-87181414D01*
X159912705Y-87182067D01*
X159894511Y-87199273D01*
X159375426Y-86900000D01*
X159894529Y-86600717D01*
X159912724Y-86617851D01*
G37*
%TD.AperFunction*%
%TD*%
D20*
%TO.N,/OUTB*%
X167849574Y-89435000D02*
X167511284Y-89630038D01*
X167510448Y-89629573D01*
X167502500Y-89626258D01*
X167500960Y-89625728D01*
X167490260Y-89622803D01*
X167489263Y-89622574D01*
X167475814Y-89620039D01*
X167475129Y-89619929D01*
X167458928Y-89617784D01*
X167458432Y-89617728D01*
X167439481Y-89615973D01*
X167439107Y-89615944D01*
X167417405Y-89614579D01*
X167417114Y-89614564D01*
X167392662Y-89613589D01*
X167392429Y-89613582D01*
X167365226Y-89612997D01*
X167365035Y-89612994D01*
X167347700Y-89612882D01*
X167347700Y-89257118D01*
X167365036Y-89257005D01*
X167365226Y-89257002D01*
X167392429Y-89256417D01*
X167392662Y-89256410D01*
X167417114Y-89255435D01*
X167417405Y-89255420D01*
X167439107Y-89254055D01*
X167439481Y-89254026D01*
X167458432Y-89252271D01*
X167458928Y-89252215D01*
X167475129Y-89250070D01*
X167475814Y-89249960D01*
X167489263Y-89247425D01*
X167490260Y-89247196D01*
X167500960Y-89244271D01*
X167502500Y-89243741D01*
X167510448Y-89240426D01*
X167511283Y-89239962D01*
X167849574Y-89435000D01*
%TA.AperFunction,Conductor*%
D19*
G36*
X167849574Y-89435000D02*
G01*
X167511284Y-89630038D01*
X167510448Y-89629573D01*
X167502500Y-89626258D01*
X167500960Y-89625728D01*
X167490260Y-89622803D01*
X167489263Y-89622574D01*
X167475814Y-89620039D01*
X167475129Y-89619929D01*
X167458928Y-89617784D01*
X167458432Y-89617728D01*
X167439481Y-89615973D01*
X167439107Y-89615944D01*
X167417405Y-89614579D01*
X167417114Y-89614564D01*
X167392662Y-89613589D01*
X167392429Y-89613582D01*
X167365226Y-89612997D01*
X167365035Y-89612994D01*
X167347700Y-89612882D01*
X167347700Y-89257118D01*
X167365036Y-89257005D01*
X167365226Y-89257002D01*
X167392429Y-89256417D01*
X167392662Y-89256410D01*
X167417114Y-89255435D01*
X167417405Y-89255420D01*
X167439107Y-89254055D01*
X167439481Y-89254026D01*
X167458432Y-89252271D01*
X167458928Y-89252215D01*
X167475129Y-89250070D01*
X167475814Y-89249960D01*
X167489263Y-89247425D01*
X167490260Y-89247196D01*
X167500960Y-89244271D01*
X167502500Y-89243741D01*
X167510448Y-89240426D01*
X167511283Y-89239962D01*
X167849574Y-89435000D01*
G37*
%TD.AperFunction*%
%TD*%
D20*
%TO.N,/OUTB*%
X164884714Y-95767284D02*
X164873458Y-95779262D01*
X164872904Y-95779892D01*
X164855317Y-95801276D01*
X164854770Y-95801991D01*
X164839282Y-95823808D01*
X164838756Y-95824612D01*
X164825366Y-95846862D01*
X164824879Y-95847750D01*
X164813588Y-95870432D01*
X164813156Y-95871399D01*
X164803963Y-95894515D01*
X164803604Y-95895545D01*
X164796510Y-95919093D01*
X164796237Y-95920166D01*
X164791241Y-95944148D01*
X164791062Y-95945241D01*
X164788165Y-95969655D01*
X164788084Y-95970744D01*
X164787588Y-95986178D01*
X164276558Y-96123442D01*
X164413822Y-95612411D01*
X164429255Y-95611915D01*
X164430344Y-95611834D01*
X164454758Y-95608937D01*
X164455851Y-95608758D01*
X164479833Y-95603762D01*
X164480906Y-95603489D01*
X164504454Y-95596395D01*
X164505484Y-95596036D01*
X164528600Y-95586843D01*
X164529567Y-95586411D01*
X164552249Y-95575120D01*
X164553137Y-95574633D01*
X164575387Y-95561243D01*
X164576191Y-95560717D01*
X164598008Y-95545229D01*
X164598723Y-95544682D01*
X164620107Y-95527095D01*
X164620736Y-95526542D01*
X164632716Y-95515286D01*
X164884714Y-95767284D01*
%TA.AperFunction,Conductor*%
D19*
G36*
X164884714Y-95767284D02*
G01*
X164873458Y-95779262D01*
X164872904Y-95779892D01*
X164855317Y-95801276D01*
X164854770Y-95801991D01*
X164839282Y-95823808D01*
X164838756Y-95824612D01*
X164825366Y-95846862D01*
X164824879Y-95847750D01*
X164813588Y-95870432D01*
X164813156Y-95871399D01*
X164803963Y-95894515D01*
X164803604Y-95895545D01*
X164796510Y-95919093D01*
X164796237Y-95920166D01*
X164791241Y-95944148D01*
X164791062Y-95945241D01*
X164788165Y-95969655D01*
X164788084Y-95970744D01*
X164787588Y-95986178D01*
X164276558Y-96123442D01*
X164413822Y-95612411D01*
X164429255Y-95611915D01*
X164430344Y-95611834D01*
X164454758Y-95608937D01*
X164455851Y-95608758D01*
X164479833Y-95603762D01*
X164480906Y-95603489D01*
X164504454Y-95596395D01*
X164505484Y-95596036D01*
X164528600Y-95586843D01*
X164529567Y-95586411D01*
X164552249Y-95575120D01*
X164553137Y-95574633D01*
X164575387Y-95561243D01*
X164576191Y-95560717D01*
X164598008Y-95545229D01*
X164598723Y-95544682D01*
X164620107Y-95527095D01*
X164620736Y-95526542D01*
X164632716Y-95515286D01*
X164884714Y-95767284D01*
G37*
%TD.AperFunction*%
%TD*%
D20*
%TO.N,/OUTG*%
X167849574Y-88165000D02*
X167511284Y-88360038D01*
X167510448Y-88359573D01*
X167502500Y-88356258D01*
X167500960Y-88355728D01*
X167490260Y-88352803D01*
X167489263Y-88352574D01*
X167475814Y-88350039D01*
X167475129Y-88349929D01*
X167458928Y-88347784D01*
X167458432Y-88347728D01*
X167439481Y-88345973D01*
X167439107Y-88345944D01*
X167417405Y-88344579D01*
X167417114Y-88344564D01*
X167392662Y-88343589D01*
X167392429Y-88343582D01*
X167365226Y-88342997D01*
X167365035Y-88342994D01*
X167347700Y-88342882D01*
X167347700Y-87987118D01*
X167365036Y-87987005D01*
X167365226Y-87987002D01*
X167392429Y-87986417D01*
X167392662Y-87986410D01*
X167417114Y-87985435D01*
X167417405Y-87985420D01*
X167439107Y-87984055D01*
X167439481Y-87984026D01*
X167458432Y-87982271D01*
X167458928Y-87982215D01*
X167475129Y-87980070D01*
X167475814Y-87979960D01*
X167489263Y-87977425D01*
X167490260Y-87977196D01*
X167500960Y-87974271D01*
X167502500Y-87973741D01*
X167510448Y-87970426D01*
X167511283Y-87969962D01*
X167849574Y-88165000D01*
%TA.AperFunction,Conductor*%
D19*
G36*
X167849574Y-88165000D02*
G01*
X167511284Y-88360038D01*
X167510448Y-88359573D01*
X167502500Y-88356258D01*
X167500960Y-88355728D01*
X167490260Y-88352803D01*
X167489263Y-88352574D01*
X167475814Y-88350039D01*
X167475129Y-88349929D01*
X167458928Y-88347784D01*
X167458432Y-88347728D01*
X167439481Y-88345973D01*
X167439107Y-88345944D01*
X167417405Y-88344579D01*
X167417114Y-88344564D01*
X167392662Y-88343589D01*
X167392429Y-88343582D01*
X167365226Y-88342997D01*
X167365035Y-88342994D01*
X167347700Y-88342882D01*
X167347700Y-87987118D01*
X167365036Y-87987005D01*
X167365226Y-87987002D01*
X167392429Y-87986417D01*
X167392662Y-87986410D01*
X167417114Y-87985435D01*
X167417405Y-87985420D01*
X167439107Y-87984055D01*
X167439481Y-87984026D01*
X167458432Y-87982271D01*
X167458928Y-87982215D01*
X167475129Y-87980070D01*
X167475814Y-87979960D01*
X167489263Y-87977425D01*
X167490260Y-87977196D01*
X167500960Y-87974271D01*
X167502500Y-87973741D01*
X167510448Y-87970426D01*
X167511283Y-87969962D01*
X167849574Y-88165000D01*
G37*
%TD.AperFunction*%
%TD*%
D20*
%TO.N,/OUTG*%
X164884704Y-94067284D02*
X164873448Y-94079262D01*
X164872894Y-94079892D01*
X164855307Y-94101276D01*
X164854760Y-94101991D01*
X164839272Y-94123808D01*
X164838746Y-94124612D01*
X164825356Y-94146862D01*
X164824869Y-94147750D01*
X164813578Y-94170432D01*
X164813146Y-94171399D01*
X164803953Y-94194515D01*
X164803594Y-94195545D01*
X164796500Y-94219093D01*
X164796227Y-94220166D01*
X164791231Y-94244148D01*
X164791052Y-94245241D01*
X164788155Y-94269655D01*
X164788074Y-94270744D01*
X164787578Y-94286178D01*
X164276548Y-94423442D01*
X164413812Y-93912411D01*
X164429245Y-93911915D01*
X164430334Y-93911834D01*
X164454748Y-93908937D01*
X164455841Y-93908758D01*
X164479823Y-93903762D01*
X164480896Y-93903489D01*
X164504444Y-93896395D01*
X164505474Y-93896036D01*
X164528590Y-93886843D01*
X164529557Y-93886411D01*
X164552239Y-93875120D01*
X164553127Y-93874633D01*
X164575377Y-93861243D01*
X164576181Y-93860717D01*
X164597998Y-93845229D01*
X164598713Y-93844682D01*
X164620097Y-93827095D01*
X164620726Y-93826542D01*
X164632706Y-93815286D01*
X164884704Y-94067284D01*
%TA.AperFunction,Conductor*%
D19*
G36*
X164884704Y-94067284D02*
G01*
X164873448Y-94079262D01*
X164872894Y-94079892D01*
X164855307Y-94101276D01*
X164854760Y-94101991D01*
X164839272Y-94123808D01*
X164838746Y-94124612D01*
X164825356Y-94146862D01*
X164824869Y-94147750D01*
X164813578Y-94170432D01*
X164813146Y-94171399D01*
X164803953Y-94194515D01*
X164803594Y-94195545D01*
X164796500Y-94219093D01*
X164796227Y-94220166D01*
X164791231Y-94244148D01*
X164791052Y-94245241D01*
X164788155Y-94269655D01*
X164788074Y-94270744D01*
X164787578Y-94286178D01*
X164276548Y-94423442D01*
X164413812Y-93912411D01*
X164429245Y-93911915D01*
X164430334Y-93911834D01*
X164454748Y-93908937D01*
X164455841Y-93908758D01*
X164479823Y-93903762D01*
X164480896Y-93903489D01*
X164504444Y-93896395D01*
X164505474Y-93896036D01*
X164528590Y-93886843D01*
X164529557Y-93886411D01*
X164552239Y-93875120D01*
X164553127Y-93874633D01*
X164575377Y-93861243D01*
X164576181Y-93860717D01*
X164597998Y-93845229D01*
X164598713Y-93844682D01*
X164620097Y-93827095D01*
X164620726Y-93826542D01*
X164632706Y-93815286D01*
X164884704Y-94067284D01*
G37*
%TD.AperFunction*%
%TD*%
D20*
%TO.N,/OUTR*%
X164784708Y-92367284D02*
X164773452Y-92379262D01*
X164772898Y-92379892D01*
X164755311Y-92401276D01*
X164754764Y-92401991D01*
X164739276Y-92423808D01*
X164738750Y-92424612D01*
X164725360Y-92446862D01*
X164724873Y-92447750D01*
X164713582Y-92470432D01*
X164713150Y-92471399D01*
X164703957Y-92494515D01*
X164703598Y-92495545D01*
X164696504Y-92519093D01*
X164696231Y-92520166D01*
X164691235Y-92544148D01*
X164691056Y-92545241D01*
X164688159Y-92569655D01*
X164688078Y-92570744D01*
X164687582Y-92586178D01*
X164176552Y-92723442D01*
X164313816Y-92212411D01*
X164329249Y-92211915D01*
X164330338Y-92211834D01*
X164354752Y-92208937D01*
X164355845Y-92208758D01*
X164379827Y-92203762D01*
X164380900Y-92203489D01*
X164404448Y-92196395D01*
X164405478Y-92196036D01*
X164428594Y-92186843D01*
X164429561Y-92186411D01*
X164452243Y-92175120D01*
X164453131Y-92174633D01*
X164475381Y-92161243D01*
X164476185Y-92160717D01*
X164498002Y-92145229D01*
X164498717Y-92144682D01*
X164520101Y-92127095D01*
X164520730Y-92126542D01*
X164532710Y-92115286D01*
X164784708Y-92367284D01*
%TA.AperFunction,Conductor*%
D19*
G36*
X164784708Y-92367284D02*
G01*
X164773452Y-92379262D01*
X164772898Y-92379892D01*
X164755311Y-92401276D01*
X164754764Y-92401991D01*
X164739276Y-92423808D01*
X164738750Y-92424612D01*
X164725360Y-92446862D01*
X164724873Y-92447750D01*
X164713582Y-92470432D01*
X164713150Y-92471399D01*
X164703957Y-92494515D01*
X164703598Y-92495545D01*
X164696504Y-92519093D01*
X164696231Y-92520166D01*
X164691235Y-92544148D01*
X164691056Y-92545241D01*
X164688159Y-92569655D01*
X164688078Y-92570744D01*
X164687582Y-92586178D01*
X164176552Y-92723442D01*
X164313816Y-92212411D01*
X164329249Y-92211915D01*
X164330338Y-92211834D01*
X164354752Y-92208937D01*
X164355845Y-92208758D01*
X164379827Y-92203762D01*
X164380900Y-92203489D01*
X164404448Y-92196395D01*
X164405478Y-92196036D01*
X164428594Y-92186843D01*
X164429561Y-92186411D01*
X164452243Y-92175120D01*
X164453131Y-92174633D01*
X164475381Y-92161243D01*
X164476185Y-92160717D01*
X164498002Y-92145229D01*
X164498717Y-92144682D01*
X164520101Y-92127095D01*
X164520730Y-92126542D01*
X164532710Y-92115286D01*
X164784708Y-92367284D01*
G37*
%TD.AperFunction*%
%TD*%
D20*
%TO.N,/OUTR*%
X167849574Y-86895000D02*
X167511284Y-87090038D01*
X167510448Y-87089573D01*
X167502500Y-87086258D01*
X167500960Y-87085728D01*
X167490260Y-87082803D01*
X167489263Y-87082574D01*
X167475814Y-87080039D01*
X167475129Y-87079929D01*
X167458928Y-87077784D01*
X167458432Y-87077728D01*
X167439481Y-87075973D01*
X167439107Y-87075944D01*
X167417405Y-87074579D01*
X167417114Y-87074564D01*
X167392662Y-87073589D01*
X167392429Y-87073582D01*
X167365226Y-87072997D01*
X167365035Y-87072994D01*
X167347700Y-87072882D01*
X167347700Y-86717118D01*
X167365036Y-86717005D01*
X167365226Y-86717002D01*
X167392429Y-86716417D01*
X167392662Y-86716410D01*
X167417114Y-86715435D01*
X167417405Y-86715420D01*
X167439107Y-86714055D01*
X167439481Y-86714026D01*
X167458432Y-86712271D01*
X167458928Y-86712215D01*
X167475129Y-86710070D01*
X167475814Y-86709960D01*
X167489263Y-86707425D01*
X167490260Y-86707196D01*
X167500960Y-86704271D01*
X167502500Y-86703741D01*
X167510448Y-86700426D01*
X167511283Y-86699962D01*
X167849574Y-86895000D01*
%TA.AperFunction,Conductor*%
D19*
G36*
X167849574Y-86895000D02*
G01*
X167511284Y-87090038D01*
X167510448Y-87089573D01*
X167502500Y-87086258D01*
X167500960Y-87085728D01*
X167490260Y-87082803D01*
X167489263Y-87082574D01*
X167475814Y-87080039D01*
X167475129Y-87079929D01*
X167458928Y-87077784D01*
X167458432Y-87077728D01*
X167439481Y-87075973D01*
X167439107Y-87075944D01*
X167417405Y-87074579D01*
X167417114Y-87074564D01*
X167392662Y-87073589D01*
X167392429Y-87073582D01*
X167365226Y-87072997D01*
X167365035Y-87072994D01*
X167347700Y-87072882D01*
X167347700Y-86717118D01*
X167365036Y-86717005D01*
X167365226Y-86717002D01*
X167392429Y-86716417D01*
X167392662Y-86716410D01*
X167417114Y-86715435D01*
X167417405Y-86715420D01*
X167439107Y-86714055D01*
X167439481Y-86714026D01*
X167458432Y-86712271D01*
X167458928Y-86712215D01*
X167475129Y-86710070D01*
X167475814Y-86709960D01*
X167489263Y-86707425D01*
X167490260Y-86707196D01*
X167500960Y-86704271D01*
X167502500Y-86703741D01*
X167510448Y-86700426D01*
X167511283Y-86699962D01*
X167849574Y-86895000D01*
G37*
%TD.AperFunction*%
%TD*%
D20*
%TO.N,/P36*%
X175322194Y-80514998D02*
X175322946Y-80515655D01*
X175340438Y-80529765D01*
X175341270Y-80530382D01*
X175359577Y-80542832D01*
X175360477Y-80543390D01*
X175379597Y-80554180D01*
X175380551Y-80554667D01*
X175400486Y-80563797D01*
X175401472Y-80564199D01*
X175422220Y-80571669D01*
X175423218Y-80571983D01*
X175444780Y-80577793D01*
X175445768Y-80578017D01*
X175468145Y-80582167D01*
X175469105Y-80582307D01*
X175492295Y-80584797D01*
X175493212Y-80584862D01*
X175504956Y-80585268D01*
X175504956Y-80814731D01*
X175493213Y-80815137D01*
X175492295Y-80815202D01*
X175469105Y-80817692D01*
X175468145Y-80817832D01*
X175445768Y-80821982D01*
X175444780Y-80822206D01*
X175423218Y-80828016D01*
X175422220Y-80828330D01*
X175401472Y-80835800D01*
X175400486Y-80836202D01*
X175380551Y-80845332D01*
X175379597Y-80845819D01*
X175360477Y-80856609D01*
X175359577Y-80857167D01*
X175341270Y-80869617D01*
X175340438Y-80870234D01*
X175322946Y-80884344D01*
X175322194Y-80885001D01*
X175312389Y-80894273D01*
X174975426Y-80700000D01*
X175312389Y-80505727D01*
X175322194Y-80514998D01*
%TA.AperFunction,Conductor*%
D19*
G36*
X175322194Y-80514998D02*
G01*
X175322946Y-80515655D01*
X175340438Y-80529765D01*
X175341270Y-80530382D01*
X175359577Y-80542832D01*
X175360477Y-80543390D01*
X175379597Y-80554180D01*
X175380551Y-80554667D01*
X175400486Y-80563797D01*
X175401472Y-80564199D01*
X175422220Y-80571669D01*
X175423218Y-80571983D01*
X175444780Y-80577793D01*
X175445768Y-80578017D01*
X175468145Y-80582167D01*
X175469105Y-80582307D01*
X175492295Y-80584797D01*
X175493212Y-80584862D01*
X175504956Y-80585268D01*
X175504956Y-80814731D01*
X175493213Y-80815137D01*
X175492295Y-80815202D01*
X175469105Y-80817692D01*
X175468145Y-80817832D01*
X175445768Y-80821982D01*
X175444780Y-80822206D01*
X175423218Y-80828016D01*
X175422220Y-80828330D01*
X175401472Y-80835800D01*
X175400486Y-80836202D01*
X175380551Y-80845332D01*
X175379597Y-80845819D01*
X175360477Y-80856609D01*
X175359577Y-80857167D01*
X175341270Y-80869617D01*
X175340438Y-80870234D01*
X175322946Y-80884344D01*
X175322194Y-80885001D01*
X175312389Y-80894273D01*
X174975426Y-80700000D01*
X175312389Y-80505727D01*
X175322194Y-80514998D01*
G37*
%TD.AperFunction*%
%TD*%
D20*
%TO.N,/P36*%
X176987189Y-80187554D02*
X176973700Y-80187931D01*
X176972703Y-80187998D01*
X176950357Y-80190390D01*
X176949333Y-80190542D01*
X176927585Y-80194683D01*
X176926554Y-80194925D01*
X176905404Y-80200815D01*
X176904386Y-80201145D01*
X176883835Y-80208785D01*
X176882853Y-80209198D01*
X176862899Y-80218587D01*
X176861971Y-80219071D01*
X176842616Y-80230210D01*
X176841759Y-80230750D01*
X176823002Y-80243638D01*
X176822224Y-80244217D01*
X176804065Y-80258855D01*
X176803370Y-80259458D01*
X176794780Y-80267475D01*
X176632525Y-80105220D01*
X176640542Y-80096628D01*
X176641144Y-80095934D01*
X176655782Y-80077775D01*
X176656361Y-80076997D01*
X176669249Y-80058240D01*
X176669789Y-80057383D01*
X176680928Y-80038028D01*
X176681412Y-80037100D01*
X176690801Y-80017146D01*
X176691214Y-80016164D01*
X176698854Y-79995613D01*
X176699184Y-79994595D01*
X176705074Y-79973445D01*
X176705316Y-79972414D01*
X176709458Y-79950666D01*
X176709610Y-79949641D01*
X176712001Y-79927295D01*
X176712068Y-79926300D01*
X176712446Y-79912811D01*
X177088087Y-79811913D01*
X176987189Y-80187554D01*
%TA.AperFunction,Conductor*%
D19*
G36*
X176987189Y-80187554D02*
G01*
X176973700Y-80187931D01*
X176972703Y-80187998D01*
X176950357Y-80190390D01*
X176949333Y-80190542D01*
X176927585Y-80194683D01*
X176926554Y-80194925D01*
X176905404Y-80200815D01*
X176904386Y-80201145D01*
X176883835Y-80208785D01*
X176882853Y-80209198D01*
X176862899Y-80218587D01*
X176861971Y-80219071D01*
X176842616Y-80230210D01*
X176841759Y-80230750D01*
X176823002Y-80243638D01*
X176822224Y-80244217D01*
X176804065Y-80258855D01*
X176803370Y-80259458D01*
X176794780Y-80267475D01*
X176632525Y-80105220D01*
X176640542Y-80096628D01*
X176641144Y-80095934D01*
X176655782Y-80077775D01*
X176656361Y-80076997D01*
X176669249Y-80058240D01*
X176669789Y-80057383D01*
X176680928Y-80038028D01*
X176681412Y-80037100D01*
X176690801Y-80017146D01*
X176691214Y-80016164D01*
X176698854Y-79995613D01*
X176699184Y-79994595D01*
X176705074Y-79973445D01*
X176705316Y-79972414D01*
X176709458Y-79950666D01*
X176709610Y-79949641D01*
X176712001Y-79927295D01*
X176712068Y-79926300D01*
X176712446Y-79912811D01*
X177088087Y-79811913D01*
X176987189Y-80187554D01*
G37*
%TD.AperFunction*%
%TD*%
D20*
%TO.N,/P36*%
X170522194Y-86714998D02*
X170522946Y-86715655D01*
X170540438Y-86729765D01*
X170541270Y-86730382D01*
X170559577Y-86742832D01*
X170560477Y-86743390D01*
X170579597Y-86754180D01*
X170580551Y-86754667D01*
X170600486Y-86763797D01*
X170601472Y-86764199D01*
X170622220Y-86771669D01*
X170623218Y-86771983D01*
X170644780Y-86777793D01*
X170645768Y-86778017D01*
X170668145Y-86782167D01*
X170669105Y-86782307D01*
X170692295Y-86784797D01*
X170693212Y-86784862D01*
X170704956Y-86785268D01*
X170704956Y-87014731D01*
X170693213Y-87015137D01*
X170692295Y-87015202D01*
X170669105Y-87017692D01*
X170668145Y-87017832D01*
X170645768Y-87021982D01*
X170644780Y-87022206D01*
X170623218Y-87028016D01*
X170622220Y-87028330D01*
X170601472Y-87035800D01*
X170600486Y-87036202D01*
X170580551Y-87045332D01*
X170579597Y-87045819D01*
X170560477Y-87056609D01*
X170559577Y-87057167D01*
X170541270Y-87069617D01*
X170540438Y-87070234D01*
X170522946Y-87084344D01*
X170522194Y-87085001D01*
X170512389Y-87094273D01*
X170175426Y-86900000D01*
X170512389Y-86705727D01*
X170522194Y-86714998D01*
%TA.AperFunction,Conductor*%
D19*
G36*
X170522194Y-86714998D02*
G01*
X170522946Y-86715655D01*
X170540438Y-86729765D01*
X170541270Y-86730382D01*
X170559577Y-86742832D01*
X170560477Y-86743390D01*
X170579597Y-86754180D01*
X170580551Y-86754667D01*
X170600486Y-86763797D01*
X170601472Y-86764199D01*
X170622220Y-86771669D01*
X170623218Y-86771983D01*
X170644780Y-86777793D01*
X170645768Y-86778017D01*
X170668145Y-86782167D01*
X170669105Y-86782307D01*
X170692295Y-86784797D01*
X170693212Y-86784862D01*
X170704956Y-86785268D01*
X170704956Y-87014731D01*
X170693213Y-87015137D01*
X170692295Y-87015202D01*
X170669105Y-87017692D01*
X170668145Y-87017832D01*
X170645768Y-87021982D01*
X170644780Y-87022206D01*
X170623218Y-87028016D01*
X170622220Y-87028330D01*
X170601472Y-87035800D01*
X170600486Y-87036202D01*
X170580551Y-87045332D01*
X170579597Y-87045819D01*
X170560477Y-87056609D01*
X170559577Y-87057167D01*
X170541270Y-87069617D01*
X170540438Y-87070234D01*
X170522946Y-87084344D01*
X170522194Y-87085001D01*
X170512389Y-87094273D01*
X170175426Y-86900000D01*
X170512389Y-86705727D01*
X170522194Y-86714998D01*
G37*
%TD.AperFunction*%
%TD*%
D20*
%TO.N,/P36*%
X171649574Y-86900000D02*
X171191198Y-87164272D01*
X171167342Y-87141703D01*
X171166594Y-87141050D01*
X171134395Y-87115040D01*
X171133568Y-87114425D01*
X171099900Y-87091475D01*
X171099003Y-87090917D01*
X171063866Y-87071027D01*
X171062915Y-87070540D01*
X171026308Y-87053710D01*
X171025322Y-87053306D01*
X170987245Y-87039536D01*
X170986246Y-87039221D01*
X170946700Y-87028511D01*
X170945709Y-87028284D01*
X170904693Y-87020634D01*
X170903728Y-87020492D01*
X170861243Y-87015902D01*
X170860321Y-87015837D01*
X170828624Y-87014734D01*
X170828624Y-86785265D01*
X170860321Y-86784162D01*
X170861243Y-86784097D01*
X170903728Y-86779507D01*
X170904693Y-86779365D01*
X170945709Y-86771715D01*
X170946700Y-86771488D01*
X170986246Y-86760778D01*
X170987245Y-86760463D01*
X171025322Y-86746693D01*
X171026308Y-86746289D01*
X171062915Y-86729459D01*
X171063866Y-86728972D01*
X171099003Y-86709082D01*
X171099900Y-86708524D01*
X171133568Y-86685574D01*
X171134395Y-86684959D01*
X171166594Y-86658949D01*
X171167342Y-86658296D01*
X171191198Y-86635728D01*
X171649574Y-86900000D01*
%TA.AperFunction,Conductor*%
D19*
G36*
X171649574Y-86900000D02*
G01*
X171191198Y-87164272D01*
X171167342Y-87141703D01*
X171166594Y-87141050D01*
X171134395Y-87115040D01*
X171133568Y-87114425D01*
X171099900Y-87091475D01*
X171099003Y-87090917D01*
X171063866Y-87071027D01*
X171062915Y-87070540D01*
X171026308Y-87053710D01*
X171025322Y-87053306D01*
X170987245Y-87039536D01*
X170986246Y-87039221D01*
X170946700Y-87028511D01*
X170945709Y-87028284D01*
X170904693Y-87020634D01*
X170903728Y-87020492D01*
X170861243Y-87015902D01*
X170860321Y-87015837D01*
X170828624Y-87014734D01*
X170828624Y-86785265D01*
X170860321Y-86784162D01*
X170861243Y-86784097D01*
X170903728Y-86779507D01*
X170904693Y-86779365D01*
X170945709Y-86771715D01*
X170946700Y-86771488D01*
X170986246Y-86760778D01*
X170987245Y-86760463D01*
X171025322Y-86746693D01*
X171026308Y-86746289D01*
X171062915Y-86729459D01*
X171063866Y-86728972D01*
X171099003Y-86709082D01*
X171099900Y-86708524D01*
X171133568Y-86685574D01*
X171134395Y-86684959D01*
X171166594Y-86658949D01*
X171167342Y-86658296D01*
X171191198Y-86635728D01*
X171649574Y-86900000D01*
G37*
%TD.AperFunction*%
%TD*%
D20*
%TO.N,/P32*%
X169488545Y-74713077D02*
X169490543Y-74727667D01*
X169491513Y-74731085D01*
X169501405Y-74753431D01*
X169502932Y-74756008D01*
X169519573Y-74777756D01*
X169521141Y-74779458D01*
X169544531Y-74800608D01*
X169545894Y-74801681D01*
X169576034Y-74822232D01*
X169577147Y-74822909D01*
X169614036Y-74842863D01*
X169614929Y-74843302D01*
X169658568Y-74862657D01*
X169659286Y-74862950D01*
X169709674Y-74881707D01*
X169710258Y-74881908D01*
X169767396Y-74900067D01*
X169767877Y-74900210D01*
X169810711Y-74911984D01*
X169651640Y-75071055D01*
X169593566Y-75056428D01*
X169593443Y-75056397D01*
X169532784Y-75041759D01*
X169532641Y-75041726D01*
X169476384Y-75028838D01*
X169476215Y-75028800D01*
X169424360Y-75017661D01*
X169424158Y-75017620D01*
X169376704Y-75008231D01*
X169376458Y-75008184D01*
X169333407Y-75000544D01*
X169333101Y-75000494D01*
X169294451Y-74994604D01*
X169294062Y-74994551D01*
X169259814Y-74990410D01*
X169259305Y-74990359D01*
X169229459Y-74987967D01*
X169228764Y-74987930D01*
X169212804Y-74987527D01*
X169111913Y-74611913D01*
X169488545Y-74713077D01*
%TA.AperFunction,Conductor*%
D19*
G36*
X169488545Y-74713077D02*
G01*
X169490543Y-74727667D01*
X169491513Y-74731085D01*
X169501405Y-74753431D01*
X169502932Y-74756008D01*
X169519573Y-74777756D01*
X169521141Y-74779458D01*
X169544531Y-74800608D01*
X169545894Y-74801681D01*
X169576034Y-74822232D01*
X169577147Y-74822909D01*
X169614036Y-74842863D01*
X169614929Y-74843302D01*
X169658568Y-74862657D01*
X169659286Y-74862950D01*
X169709674Y-74881707D01*
X169710258Y-74881908D01*
X169767396Y-74900067D01*
X169767877Y-74900210D01*
X169810711Y-74911984D01*
X169651640Y-75071055D01*
X169593566Y-75056428D01*
X169593443Y-75056397D01*
X169532784Y-75041759D01*
X169532641Y-75041726D01*
X169476384Y-75028838D01*
X169476215Y-75028800D01*
X169424360Y-75017661D01*
X169424158Y-75017620D01*
X169376704Y-75008231D01*
X169376458Y-75008184D01*
X169333407Y-75000544D01*
X169333101Y-75000494D01*
X169294451Y-74994604D01*
X169294062Y-74994551D01*
X169259814Y-74990410D01*
X169259305Y-74990359D01*
X169229459Y-74987967D01*
X169228764Y-74987930D01*
X169212804Y-74987527D01*
X169111913Y-74611913D01*
X169488545Y-74713077D01*
G37*
%TD.AperFunction*%
%TD*%
D20*
%TO.N,/P32*%
X170175318Y-75261994D02*
X170176015Y-75262598D01*
X170201739Y-75283315D01*
X170202520Y-75283896D01*
X170229104Y-75302137D01*
X170229964Y-75302678D01*
X170257410Y-75318442D01*
X170258338Y-75318925D01*
X170286646Y-75332214D01*
X170287629Y-75332626D01*
X170316797Y-75343438D01*
X170317814Y-75343767D01*
X170347844Y-75352103D01*
X170348874Y-75352343D01*
X170379766Y-75358203D01*
X170380787Y-75358354D01*
X170412539Y-75361738D01*
X170413532Y-75361805D01*
X170436689Y-75362450D01*
X170555764Y-75805764D01*
X170112450Y-75686689D01*
X170111805Y-75663532D01*
X170111738Y-75662539D01*
X170108354Y-75630787D01*
X170108203Y-75629766D01*
X170102343Y-75598874D01*
X170102103Y-75597844D01*
X170093767Y-75567814D01*
X170093438Y-75566797D01*
X170082626Y-75537629D01*
X170082214Y-75536646D01*
X170068925Y-75508338D01*
X170068442Y-75507410D01*
X170052678Y-75479964D01*
X170052137Y-75479104D01*
X170033896Y-75452520D01*
X170033315Y-75451739D01*
X170012598Y-75426015D01*
X170011994Y-75425318D01*
X169997169Y-75409426D01*
X170159426Y-75247169D01*
X170175318Y-75261994D01*
%TA.AperFunction,Conductor*%
D19*
G36*
X170175318Y-75261994D02*
G01*
X170176015Y-75262598D01*
X170201739Y-75283315D01*
X170202520Y-75283896D01*
X170229104Y-75302137D01*
X170229964Y-75302678D01*
X170257410Y-75318442D01*
X170258338Y-75318925D01*
X170286646Y-75332214D01*
X170287629Y-75332626D01*
X170316797Y-75343438D01*
X170317814Y-75343767D01*
X170347844Y-75352103D01*
X170348874Y-75352343D01*
X170379766Y-75358203D01*
X170380787Y-75358354D01*
X170412539Y-75361738D01*
X170413532Y-75361805D01*
X170436689Y-75362450D01*
X170555764Y-75805764D01*
X170112450Y-75686689D01*
X170111805Y-75663532D01*
X170111738Y-75662539D01*
X170108354Y-75630787D01*
X170108203Y-75629766D01*
X170102343Y-75598874D01*
X170102103Y-75597844D01*
X170093767Y-75567814D01*
X170093438Y-75566797D01*
X170082626Y-75537629D01*
X170082214Y-75536646D01*
X170068925Y-75508338D01*
X170068442Y-75507410D01*
X170052678Y-75479964D01*
X170052137Y-75479104D01*
X170033896Y-75452520D01*
X170033315Y-75451739D01*
X170012598Y-75426015D01*
X170011994Y-75425318D01*
X169997169Y-75409426D01*
X170159426Y-75247169D01*
X170175318Y-75261994D01*
G37*
%TD.AperFunction*%
%TD*%
D20*
%TO.N,/P33*%
X164199574Y-83800000D02*
X163862613Y-83994271D01*
X163852157Y-83984376D01*
X163851448Y-83983753D01*
X163832786Y-83968553D01*
X163832050Y-83967997D01*
X163812056Y-83953997D01*
X163811308Y-83953511D01*
X163789982Y-83940711D01*
X163789234Y-83940295D01*
X163766576Y-83928695D01*
X163765839Y-83928348D01*
X163741849Y-83917948D01*
X163741135Y-83917663D01*
X163715812Y-83908463D01*
X163715126Y-83908236D01*
X163688472Y-83900236D01*
X163687819Y-83900059D01*
X163659832Y-83893259D01*
X163659217Y-83893126D01*
X163640215Y-83889497D01*
X163640215Y-83664501D01*
X163655159Y-83666489D01*
X163656064Y-83666577D01*
X163684051Y-83668277D01*
X163685059Y-83668298D01*
X163711713Y-83667798D01*
X163712821Y-83667728D01*
X163738144Y-83665028D01*
X163739340Y-83664843D01*
X163763330Y-83659943D01*
X163764586Y-83659619D01*
X163787244Y-83652519D01*
X163788523Y-83652041D01*
X163809849Y-83642741D01*
X163811104Y-83642109D01*
X163831098Y-83630609D01*
X163832282Y-83629838D01*
X163850944Y-83616138D01*
X163852014Y-83615258D01*
X163862483Y-83605653D01*
X164199574Y-83800000D01*
%TA.AperFunction,Conductor*%
D19*
G36*
X164199574Y-83800000D02*
G01*
X163862613Y-83994271D01*
X163852157Y-83984376D01*
X163851448Y-83983753D01*
X163832786Y-83968553D01*
X163832050Y-83967997D01*
X163812056Y-83953997D01*
X163811308Y-83953511D01*
X163789982Y-83940711D01*
X163789234Y-83940295D01*
X163766576Y-83928695D01*
X163765839Y-83928348D01*
X163741849Y-83917948D01*
X163741135Y-83917663D01*
X163715812Y-83908463D01*
X163715126Y-83908236D01*
X163688472Y-83900236D01*
X163687819Y-83900059D01*
X163659832Y-83893259D01*
X163659217Y-83893126D01*
X163640215Y-83889497D01*
X163640215Y-83664501D01*
X163655159Y-83666489D01*
X163656064Y-83666577D01*
X163684051Y-83668277D01*
X163685059Y-83668298D01*
X163711713Y-83667798D01*
X163712821Y-83667728D01*
X163738144Y-83665028D01*
X163739340Y-83664843D01*
X163763330Y-83659943D01*
X163764586Y-83659619D01*
X163787244Y-83652519D01*
X163788523Y-83652041D01*
X163809849Y-83642741D01*
X163811104Y-83642109D01*
X163831098Y-83630609D01*
X163832282Y-83629838D01*
X163850944Y-83616138D01*
X163852014Y-83615258D01*
X163862483Y-83605653D01*
X164199574Y-83800000D01*
G37*
%TD.AperFunction*%
%TD*%
D20*
%TO.N,/P33*%
X162959368Y-83633230D02*
X162960763Y-83634291D01*
X162969177Y-83639816D01*
X162970481Y-83640565D01*
X162980258Y-83645440D01*
X162981421Y-83645949D01*
X162992559Y-83650174D01*
X162993571Y-83650511D01*
X163006072Y-83654086D01*
X163006942Y-83654301D01*
X163020805Y-83657226D01*
X163021550Y-83657361D01*
X163036775Y-83659636D01*
X163037414Y-83659714D01*
X163054001Y-83661339D01*
X163054550Y-83661381D01*
X163072499Y-83662356D01*
X163072974Y-83662373D01*
X163079800Y-83662488D01*
X163079800Y-83887512D01*
X163072974Y-83887627D01*
X163072499Y-83887644D01*
X163054550Y-83888619D01*
X163054001Y-83888661D01*
X163037414Y-83890286D01*
X163036775Y-83890364D01*
X163021550Y-83892639D01*
X163020805Y-83892774D01*
X163006942Y-83895699D01*
X163006072Y-83895914D01*
X162993571Y-83899489D01*
X162992559Y-83899826D01*
X162981421Y-83904051D01*
X162980258Y-83904560D01*
X162970481Y-83909435D01*
X162969177Y-83910184D01*
X162960763Y-83915709D01*
X162959368Y-83916770D01*
X162959152Y-83916959D01*
X162712926Y-83775000D01*
X162959152Y-83633041D01*
X162959368Y-83633230D01*
%TA.AperFunction,Conductor*%
D19*
G36*
X162959368Y-83633230D02*
G01*
X162960763Y-83634291D01*
X162969177Y-83639816D01*
X162970481Y-83640565D01*
X162980258Y-83645440D01*
X162981421Y-83645949D01*
X162992559Y-83650174D01*
X162993571Y-83650511D01*
X163006072Y-83654086D01*
X163006942Y-83654301D01*
X163020805Y-83657226D01*
X163021550Y-83657361D01*
X163036775Y-83659636D01*
X163037414Y-83659714D01*
X163054001Y-83661339D01*
X163054550Y-83661381D01*
X163072499Y-83662356D01*
X163072974Y-83662373D01*
X163079800Y-83662488D01*
X163079800Y-83887512D01*
X163072974Y-83887627D01*
X163072499Y-83887644D01*
X163054550Y-83888619D01*
X163054001Y-83888661D01*
X163037414Y-83890286D01*
X163036775Y-83890364D01*
X163021550Y-83892639D01*
X163020805Y-83892774D01*
X163006942Y-83895699D01*
X163006072Y-83895914D01*
X162993571Y-83899489D01*
X162992559Y-83899826D01*
X162981421Y-83904051D01*
X162980258Y-83904560D01*
X162970481Y-83909435D01*
X162969177Y-83910184D01*
X162960763Y-83915709D01*
X162959368Y-83916770D01*
X162959152Y-83916959D01*
X162712926Y-83775000D01*
X162959152Y-83633041D01*
X162959368Y-83633230D01*
G37*
%TD.AperFunction*%
%TD*%
D20*
%TO.N,/P11*%
X167341959Y-83284152D02*
X167341770Y-83284368D01*
X167340709Y-83285763D01*
X167335184Y-83294177D01*
X167334435Y-83295481D01*
X167329560Y-83305258D01*
X167329051Y-83306421D01*
X167324826Y-83317559D01*
X167324489Y-83318571D01*
X167320914Y-83331072D01*
X167320699Y-83331942D01*
X167317774Y-83345805D01*
X167317639Y-83346550D01*
X167315364Y-83361775D01*
X167315286Y-83362414D01*
X167313661Y-83379001D01*
X167313619Y-83379550D01*
X167312644Y-83397499D01*
X167312627Y-83397974D01*
X167312512Y-83404800D01*
X167087488Y-83404800D01*
X167087373Y-83397974D01*
X167087356Y-83397499D01*
X167086381Y-83379550D01*
X167086339Y-83379001D01*
X167084714Y-83362414D01*
X167084636Y-83361775D01*
X167082361Y-83346550D01*
X167082226Y-83345805D01*
X167079301Y-83331942D01*
X167079086Y-83331072D01*
X167075511Y-83318571D01*
X167075174Y-83317559D01*
X167070949Y-83306421D01*
X167070440Y-83305258D01*
X167065565Y-83295481D01*
X167064816Y-83294177D01*
X167059291Y-83285763D01*
X167058230Y-83284368D01*
X167058041Y-83284152D01*
X167200000Y-83037926D01*
X167341959Y-83284152D01*
%TA.AperFunction,Conductor*%
D19*
G36*
X167341959Y-83284152D02*
G01*
X167341770Y-83284368D01*
X167340709Y-83285763D01*
X167335184Y-83294177D01*
X167334435Y-83295481D01*
X167329560Y-83305258D01*
X167329051Y-83306421D01*
X167324826Y-83317559D01*
X167324489Y-83318571D01*
X167320914Y-83331072D01*
X167320699Y-83331942D01*
X167317774Y-83345805D01*
X167317639Y-83346550D01*
X167315364Y-83361775D01*
X167315286Y-83362414D01*
X167313661Y-83379001D01*
X167313619Y-83379550D01*
X167312644Y-83397499D01*
X167312627Y-83397974D01*
X167312512Y-83404800D01*
X167087488Y-83404800D01*
X167087373Y-83397974D01*
X167087356Y-83397499D01*
X167086381Y-83379550D01*
X167086339Y-83379001D01*
X167084714Y-83362414D01*
X167084636Y-83361775D01*
X167082361Y-83346550D01*
X167082226Y-83345805D01*
X167079301Y-83331942D01*
X167079086Y-83331072D01*
X167075511Y-83318571D01*
X167075174Y-83317559D01*
X167070949Y-83306421D01*
X167070440Y-83305258D01*
X167065565Y-83295481D01*
X167064816Y-83294177D01*
X167059291Y-83285763D01*
X167058230Y-83284368D01*
X167058041Y-83284152D01*
X167200000Y-83037926D01*
X167341959Y-83284152D01*
G37*
%TD.AperFunction*%
%TD*%
D20*
%TO.N,/P11*%
X167312627Y-84152025D02*
X167312644Y-84152500D01*
X167313619Y-84170449D01*
X167313661Y-84170998D01*
X167315286Y-84187585D01*
X167315364Y-84188224D01*
X167317639Y-84203449D01*
X167317774Y-84204194D01*
X167320699Y-84218057D01*
X167320914Y-84218927D01*
X167324489Y-84231428D01*
X167324826Y-84232440D01*
X167329051Y-84243578D01*
X167329560Y-84244741D01*
X167334435Y-84254518D01*
X167335184Y-84255822D01*
X167340709Y-84264236D01*
X167341770Y-84265631D01*
X167341959Y-84265847D01*
X167200000Y-84512074D01*
X167058041Y-84265847D01*
X167058230Y-84265631D01*
X167059291Y-84264236D01*
X167064816Y-84255822D01*
X167065565Y-84254518D01*
X167070440Y-84244741D01*
X167070949Y-84243578D01*
X167075174Y-84232440D01*
X167075511Y-84231428D01*
X167079086Y-84218927D01*
X167079301Y-84218057D01*
X167082226Y-84204194D01*
X167082361Y-84203449D01*
X167084636Y-84188224D01*
X167084714Y-84187585D01*
X167086339Y-84170998D01*
X167086381Y-84170449D01*
X167087356Y-84152500D01*
X167087373Y-84152025D01*
X167087488Y-84145200D01*
X167312512Y-84145200D01*
X167312627Y-84152025D01*
%TA.AperFunction,Conductor*%
D19*
G36*
X167312627Y-84152025D02*
G01*
X167312644Y-84152500D01*
X167313619Y-84170449D01*
X167313661Y-84170998D01*
X167315286Y-84187585D01*
X167315364Y-84188224D01*
X167317639Y-84203449D01*
X167317774Y-84204194D01*
X167320699Y-84218057D01*
X167320914Y-84218927D01*
X167324489Y-84231428D01*
X167324826Y-84232440D01*
X167329051Y-84243578D01*
X167329560Y-84244741D01*
X167334435Y-84254518D01*
X167335184Y-84255822D01*
X167340709Y-84264236D01*
X167341770Y-84265631D01*
X167341959Y-84265847D01*
X167200000Y-84512074D01*
X167058041Y-84265847D01*
X167058230Y-84265631D01*
X167059291Y-84264236D01*
X167064816Y-84255822D01*
X167065565Y-84254518D01*
X167070440Y-84244741D01*
X167070949Y-84243578D01*
X167075174Y-84232440D01*
X167075511Y-84231428D01*
X167079086Y-84218927D01*
X167079301Y-84218057D01*
X167082226Y-84204194D01*
X167082361Y-84203449D01*
X167084636Y-84188224D01*
X167084714Y-84187585D01*
X167086339Y-84170998D01*
X167086381Y-84170449D01*
X167087356Y-84152500D01*
X167087373Y-84152025D01*
X167087488Y-84145200D01*
X167312512Y-84145200D01*
X167312627Y-84152025D01*
G37*
%TD.AperFunction*%
%TD*%
D20*
%TO.N,/P11*%
X167359595Y-83633460D02*
X167360809Y-83634404D01*
X167369973Y-83640679D01*
X167370981Y-83641302D01*
X167382008Y-83647427D01*
X167382833Y-83647847D01*
X167395721Y-83653822D01*
X167396398Y-83654112D01*
X167411149Y-83659937D01*
X167411709Y-83660143D01*
X167428322Y-83665818D01*
X167428788Y-83665968D01*
X167447263Y-83671493D01*
X167447657Y-83671603D01*
X167467994Y-83676978D01*
X167468329Y-83677062D01*
X167490528Y-83682287D01*
X167490817Y-83682352D01*
X167504800Y-83685301D01*
X167504800Y-83909751D01*
X167495735Y-83908084D01*
X167495292Y-83908011D01*
X167473093Y-83904736D01*
X167472559Y-83904669D01*
X167452222Y-83902544D01*
X167451571Y-83902493D01*
X167433096Y-83901518D01*
X167432293Y-83901501D01*
X167415680Y-83901676D01*
X167414678Y-83901726D01*
X167399927Y-83903051D01*
X167398668Y-83903228D01*
X167385780Y-83905703D01*
X167384209Y-83906110D01*
X167373182Y-83909735D01*
X167371279Y-83910537D01*
X167362115Y-83915312D01*
X167359982Y-83916713D01*
X167359460Y-83917137D01*
X167112926Y-83775000D01*
X167359132Y-83633053D01*
X167359595Y-83633460D01*
%TA.AperFunction,Conductor*%
D19*
G36*
X167359595Y-83633460D02*
G01*
X167360809Y-83634404D01*
X167369973Y-83640679D01*
X167370981Y-83641302D01*
X167382008Y-83647427D01*
X167382833Y-83647847D01*
X167395721Y-83653822D01*
X167396398Y-83654112D01*
X167411149Y-83659937D01*
X167411709Y-83660143D01*
X167428322Y-83665818D01*
X167428788Y-83665968D01*
X167447263Y-83671493D01*
X167447657Y-83671603D01*
X167467994Y-83676978D01*
X167468329Y-83677062D01*
X167490528Y-83682287D01*
X167490817Y-83682352D01*
X167504800Y-83685301D01*
X167504800Y-83909751D01*
X167495735Y-83908084D01*
X167495292Y-83908011D01*
X167473093Y-83904736D01*
X167472559Y-83904669D01*
X167452222Y-83902544D01*
X167451571Y-83902493D01*
X167433096Y-83901518D01*
X167432293Y-83901501D01*
X167415680Y-83901676D01*
X167414678Y-83901726D01*
X167399927Y-83903051D01*
X167398668Y-83903228D01*
X167385780Y-83905703D01*
X167384209Y-83906110D01*
X167373182Y-83909735D01*
X167371279Y-83910537D01*
X167362115Y-83915312D01*
X167359982Y-83916713D01*
X167359460Y-83917137D01*
X167112926Y-83775000D01*
X167359132Y-83633053D01*
X167359595Y-83633460D01*
G37*
%TD.AperFunction*%
%TD*%
D20*
%TO.N,/P11*%
X169724574Y-84000000D02*
X169387611Y-84194273D01*
X169377404Y-84184622D01*
X169376652Y-84183965D01*
X169358740Y-84169515D01*
X169357909Y-84168899D01*
X169339165Y-84156149D01*
X169338265Y-84155590D01*
X169318689Y-84144540D01*
X169317736Y-84144054D01*
X169297328Y-84134704D01*
X169296342Y-84134301D01*
X169275102Y-84126651D01*
X169274103Y-84126338D01*
X169252030Y-84120388D01*
X169251042Y-84120163D01*
X169228138Y-84115913D01*
X169227178Y-84115773D01*
X169203441Y-84113223D01*
X169202523Y-84113158D01*
X169190215Y-84112732D01*
X169190215Y-83887268D01*
X169202523Y-83886842D01*
X169203441Y-83886777D01*
X169227178Y-83884227D01*
X169228138Y-83884087D01*
X169251042Y-83879837D01*
X169252030Y-83879612D01*
X169274103Y-83873662D01*
X169275102Y-83873349D01*
X169296342Y-83865699D01*
X169297328Y-83865296D01*
X169317736Y-83855946D01*
X169318689Y-83855460D01*
X169338265Y-83844410D01*
X169339165Y-83843851D01*
X169357909Y-83831101D01*
X169358740Y-83830485D01*
X169376652Y-83816035D01*
X169377404Y-83815378D01*
X169387611Y-83805727D01*
X169724574Y-84000000D01*
%TA.AperFunction,Conductor*%
D19*
G36*
X169724574Y-84000000D02*
G01*
X169387611Y-84194273D01*
X169377404Y-84184622D01*
X169376652Y-84183965D01*
X169358740Y-84169515D01*
X169357909Y-84168899D01*
X169339165Y-84156149D01*
X169338265Y-84155590D01*
X169318689Y-84144540D01*
X169317736Y-84144054D01*
X169297328Y-84134704D01*
X169296342Y-84134301D01*
X169275102Y-84126651D01*
X169274103Y-84126338D01*
X169252030Y-84120388D01*
X169251042Y-84120163D01*
X169228138Y-84115913D01*
X169227178Y-84115773D01*
X169203441Y-84113223D01*
X169202523Y-84113158D01*
X169190215Y-84112732D01*
X169190215Y-83887268D01*
X169202523Y-83886842D01*
X169203441Y-83886777D01*
X169227178Y-83884227D01*
X169228138Y-83884087D01*
X169251042Y-83879837D01*
X169252030Y-83879612D01*
X169274103Y-83873662D01*
X169275102Y-83873349D01*
X169296342Y-83865699D01*
X169297328Y-83865296D01*
X169317736Y-83855946D01*
X169318689Y-83855460D01*
X169338265Y-83844410D01*
X169339165Y-83843851D01*
X169357909Y-83831101D01*
X169358740Y-83830485D01*
X169376652Y-83816035D01*
X169377404Y-83815378D01*
X169387611Y-83805727D01*
X169724574Y-84000000D01*
G37*
%TD.AperFunction*%
%TD*%
D20*
%TO.N,/P17*%
X160587553Y-80412811D02*
X160587946Y-80426851D01*
X160588013Y-80427847D01*
X160590461Y-80450730D01*
X160590613Y-80451753D01*
X160594851Y-80474023D01*
X160595092Y-80475055D01*
X160601121Y-80496711D01*
X160601451Y-80497729D01*
X160609270Y-80518771D01*
X160609683Y-80519753D01*
X160619293Y-80540181D01*
X160619777Y-80541108D01*
X160631177Y-80560923D01*
X160631717Y-80561781D01*
X160644908Y-80580982D01*
X160645488Y-80581761D01*
X160660470Y-80600349D01*
X160661073Y-80601043D01*
X160669475Y-80610048D01*
X160510048Y-80769475D01*
X160501043Y-80761073D01*
X160500349Y-80760470D01*
X160481761Y-80745488D01*
X160480982Y-80744908D01*
X160461781Y-80731717D01*
X160460923Y-80731177D01*
X160441108Y-80719777D01*
X160440181Y-80719293D01*
X160419753Y-80709683D01*
X160418771Y-80709270D01*
X160397729Y-80701451D01*
X160396711Y-80701121D01*
X160375055Y-80695092D01*
X160374023Y-80694851D01*
X160351753Y-80690613D01*
X160350730Y-80690461D01*
X160327847Y-80688013D01*
X160326851Y-80687946D01*
X160312811Y-80687553D01*
X160211913Y-80311913D01*
X160587553Y-80412811D01*
%TA.AperFunction,Conductor*%
D19*
G36*
X160587553Y-80412811D02*
G01*
X160587946Y-80426851D01*
X160588013Y-80427847D01*
X160590461Y-80450730D01*
X160590613Y-80451753D01*
X160594851Y-80474023D01*
X160595092Y-80475055D01*
X160601121Y-80496711D01*
X160601451Y-80497729D01*
X160609270Y-80518771D01*
X160609683Y-80519753D01*
X160619293Y-80540181D01*
X160619777Y-80541108D01*
X160631177Y-80560923D01*
X160631717Y-80561781D01*
X160644908Y-80580982D01*
X160645488Y-80581761D01*
X160660470Y-80600349D01*
X160661073Y-80601043D01*
X160669475Y-80610048D01*
X160510048Y-80769475D01*
X160501043Y-80761073D01*
X160500349Y-80760470D01*
X160481761Y-80745488D01*
X160480982Y-80744908D01*
X160461781Y-80731717D01*
X160460923Y-80731177D01*
X160441108Y-80719777D01*
X160440181Y-80719293D01*
X160419753Y-80709683D01*
X160418771Y-80709270D01*
X160397729Y-80701451D01*
X160396711Y-80701121D01*
X160375055Y-80695092D01*
X160374023Y-80694851D01*
X160351753Y-80690613D01*
X160350730Y-80690461D01*
X160327847Y-80688013D01*
X160326851Y-80687946D01*
X160312811Y-80687553D01*
X160211913Y-80311913D01*
X160587553Y-80412811D01*
G37*
%TD.AperFunction*%
%TD*%
D20*
%TO.N,/P17*%
X162887074Y-85075000D02*
X162640847Y-85216959D01*
X162640631Y-85216770D01*
X162639236Y-85215709D01*
X162630822Y-85210184D01*
X162629518Y-85209435D01*
X162619741Y-85204560D01*
X162618578Y-85204051D01*
X162607440Y-85199826D01*
X162606428Y-85199489D01*
X162593927Y-85195914D01*
X162593057Y-85195699D01*
X162579194Y-85192774D01*
X162578449Y-85192639D01*
X162563224Y-85190364D01*
X162562585Y-85190286D01*
X162545998Y-85188661D01*
X162545449Y-85188619D01*
X162527500Y-85187644D01*
X162527025Y-85187627D01*
X162520200Y-85187512D01*
X162520200Y-84962488D01*
X162527025Y-84962373D01*
X162527500Y-84962356D01*
X162545449Y-84961381D01*
X162545998Y-84961339D01*
X162562585Y-84959714D01*
X162563224Y-84959636D01*
X162578449Y-84957361D01*
X162579194Y-84957226D01*
X162593057Y-84954301D01*
X162593927Y-84954086D01*
X162606428Y-84950511D01*
X162607440Y-84950174D01*
X162618578Y-84945949D01*
X162619741Y-84945440D01*
X162629518Y-84940565D01*
X162630822Y-84939816D01*
X162639236Y-84934291D01*
X162640631Y-84933230D01*
X162640847Y-84933041D01*
X162887074Y-85075000D01*
%TA.AperFunction,Conductor*%
D19*
G36*
X162887074Y-85075000D02*
G01*
X162640847Y-85216959D01*
X162640631Y-85216770D01*
X162639236Y-85215709D01*
X162630822Y-85210184D01*
X162629518Y-85209435D01*
X162619741Y-85204560D01*
X162618578Y-85204051D01*
X162607440Y-85199826D01*
X162606428Y-85199489D01*
X162593927Y-85195914D01*
X162593057Y-85195699D01*
X162579194Y-85192774D01*
X162578449Y-85192639D01*
X162563224Y-85190364D01*
X162562585Y-85190286D01*
X162545998Y-85188661D01*
X162545449Y-85188619D01*
X162527500Y-85187644D01*
X162527025Y-85187627D01*
X162520200Y-85187512D01*
X162520200Y-84962488D01*
X162527025Y-84962373D01*
X162527500Y-84962356D01*
X162545449Y-84961381D01*
X162545998Y-84961339D01*
X162562585Y-84959714D01*
X162563224Y-84959636D01*
X162578449Y-84957361D01*
X162579194Y-84957226D01*
X162593057Y-84954301D01*
X162593927Y-84954086D01*
X162606428Y-84950511D01*
X162607440Y-84950174D01*
X162618578Y-84945949D01*
X162619741Y-84945440D01*
X162629518Y-84940565D01*
X162630822Y-84939816D01*
X162639236Y-84934291D01*
X162640631Y-84933230D01*
X162640847Y-84933041D01*
X162887074Y-85075000D01*
G37*
%TD.AperFunction*%
%TD*%
D20*
%TO.N,/P16*%
X162697595Y-89250378D02*
X162698347Y-89251035D01*
X162716259Y-89265485D01*
X162717090Y-89266101D01*
X162735834Y-89278851D01*
X162736734Y-89279410D01*
X162756310Y-89290460D01*
X162757263Y-89290946D01*
X162777671Y-89300296D01*
X162778657Y-89300699D01*
X162799897Y-89308349D01*
X162800896Y-89308662D01*
X162822969Y-89314612D01*
X162823957Y-89314837D01*
X162846861Y-89319087D01*
X162847821Y-89319227D01*
X162871558Y-89321777D01*
X162872476Y-89321842D01*
X162884785Y-89322268D01*
X162884785Y-89547732D01*
X162872476Y-89548158D01*
X162871558Y-89548223D01*
X162847821Y-89550773D01*
X162846861Y-89550913D01*
X162823957Y-89555163D01*
X162822969Y-89555388D01*
X162800896Y-89561338D01*
X162799897Y-89561651D01*
X162778657Y-89569301D01*
X162777671Y-89569704D01*
X162757263Y-89579054D01*
X162756310Y-89579540D01*
X162736734Y-89590590D01*
X162735834Y-89591149D01*
X162717090Y-89603899D01*
X162716259Y-89604515D01*
X162698347Y-89618965D01*
X162697595Y-89619622D01*
X162687389Y-89629273D01*
X162350426Y-89435000D01*
X162687389Y-89240727D01*
X162697595Y-89250378D01*
%TA.AperFunction,Conductor*%
D19*
G36*
X162697595Y-89250378D02*
G01*
X162698347Y-89251035D01*
X162716259Y-89265485D01*
X162717090Y-89266101D01*
X162735834Y-89278851D01*
X162736734Y-89279410D01*
X162756310Y-89290460D01*
X162757263Y-89290946D01*
X162777671Y-89300296D01*
X162778657Y-89300699D01*
X162799897Y-89308349D01*
X162800896Y-89308662D01*
X162822969Y-89314612D01*
X162823957Y-89314837D01*
X162846861Y-89319087D01*
X162847821Y-89319227D01*
X162871558Y-89321777D01*
X162872476Y-89321842D01*
X162884785Y-89322268D01*
X162884785Y-89547732D01*
X162872476Y-89548158D01*
X162871558Y-89548223D01*
X162847821Y-89550773D01*
X162846861Y-89550913D01*
X162823957Y-89555163D01*
X162822969Y-89555388D01*
X162800896Y-89561338D01*
X162799897Y-89561651D01*
X162778657Y-89569301D01*
X162777671Y-89569704D01*
X162757263Y-89579054D01*
X162756310Y-89579540D01*
X162736734Y-89590590D01*
X162735834Y-89591149D01*
X162717090Y-89603899D01*
X162716259Y-89604515D01*
X162698347Y-89618965D01*
X162697595Y-89619622D01*
X162687389Y-89629273D01*
X162350426Y-89435000D01*
X162687389Y-89240727D01*
X162697595Y-89250378D01*
G37*
%TD.AperFunction*%
%TD*%
D20*
%TO.N,/P15*%
X162697595Y-87980378D02*
X162698347Y-87981035D01*
X162716259Y-87995485D01*
X162717090Y-87996101D01*
X162735834Y-88008851D01*
X162736734Y-88009410D01*
X162756310Y-88020460D01*
X162757263Y-88020946D01*
X162777671Y-88030296D01*
X162778657Y-88030699D01*
X162799897Y-88038349D01*
X162800896Y-88038662D01*
X162822969Y-88044612D01*
X162823957Y-88044837D01*
X162846861Y-88049087D01*
X162847821Y-88049227D01*
X162871558Y-88051777D01*
X162872476Y-88051842D01*
X162884785Y-88052268D01*
X162884785Y-88277732D01*
X162872476Y-88278158D01*
X162871558Y-88278223D01*
X162847821Y-88280773D01*
X162846861Y-88280913D01*
X162823957Y-88285163D01*
X162822969Y-88285388D01*
X162800896Y-88291338D01*
X162799897Y-88291651D01*
X162778657Y-88299301D01*
X162777671Y-88299704D01*
X162757263Y-88309054D01*
X162756310Y-88309540D01*
X162736734Y-88320590D01*
X162735834Y-88321149D01*
X162717090Y-88333899D01*
X162716259Y-88334515D01*
X162698347Y-88348965D01*
X162697595Y-88349622D01*
X162687389Y-88359273D01*
X162350426Y-88165000D01*
X162687389Y-87970727D01*
X162697595Y-87980378D01*
%TA.AperFunction,Conductor*%
D19*
G36*
X162697595Y-87980378D02*
G01*
X162698347Y-87981035D01*
X162716259Y-87995485D01*
X162717090Y-87996101D01*
X162735834Y-88008851D01*
X162736734Y-88009410D01*
X162756310Y-88020460D01*
X162757263Y-88020946D01*
X162777671Y-88030296D01*
X162778657Y-88030699D01*
X162799897Y-88038349D01*
X162800896Y-88038662D01*
X162822969Y-88044612D01*
X162823957Y-88044837D01*
X162846861Y-88049087D01*
X162847821Y-88049227D01*
X162871558Y-88051777D01*
X162872476Y-88051842D01*
X162884785Y-88052268D01*
X162884785Y-88277732D01*
X162872476Y-88278158D01*
X162871558Y-88278223D01*
X162847821Y-88280773D01*
X162846861Y-88280913D01*
X162823957Y-88285163D01*
X162822969Y-88285388D01*
X162800896Y-88291338D01*
X162799897Y-88291651D01*
X162778657Y-88299301D01*
X162777671Y-88299704D01*
X162757263Y-88309054D01*
X162756310Y-88309540D01*
X162736734Y-88320590D01*
X162735834Y-88321149D01*
X162717090Y-88333899D01*
X162716259Y-88334515D01*
X162698347Y-88348965D01*
X162697595Y-88349622D01*
X162687389Y-88359273D01*
X162350426Y-88165000D01*
X162687389Y-87970727D01*
X162697595Y-87980378D01*
G37*
%TD.AperFunction*%
%TD*%
D20*
%TO.N,/P15*%
X164594273Y-78812389D02*
X164584622Y-78822595D01*
X164583965Y-78823347D01*
X164569515Y-78841259D01*
X164568899Y-78842090D01*
X164556149Y-78860834D01*
X164555590Y-78861734D01*
X164544540Y-78881310D01*
X164544054Y-78882263D01*
X164534704Y-78902671D01*
X164534301Y-78903657D01*
X164526651Y-78924897D01*
X164526338Y-78925896D01*
X164520388Y-78947969D01*
X164520163Y-78948957D01*
X164515913Y-78971861D01*
X164515773Y-78972821D01*
X164513223Y-78996558D01*
X164513158Y-78997476D01*
X164512732Y-79009785D01*
X164287268Y-79009785D01*
X164286842Y-78997476D01*
X164286777Y-78996558D01*
X164284227Y-78972821D01*
X164284087Y-78971861D01*
X164279837Y-78948957D01*
X164279612Y-78947969D01*
X164273662Y-78925896D01*
X164273349Y-78924897D01*
X164265699Y-78903657D01*
X164265296Y-78902671D01*
X164255946Y-78882263D01*
X164255460Y-78881310D01*
X164244410Y-78861734D01*
X164243851Y-78860834D01*
X164231101Y-78842090D01*
X164230485Y-78841259D01*
X164216035Y-78823347D01*
X164215378Y-78822595D01*
X164205727Y-78812389D01*
X164400000Y-78475426D01*
X164594273Y-78812389D01*
%TA.AperFunction,Conductor*%
D19*
G36*
X164594273Y-78812389D02*
G01*
X164584622Y-78822595D01*
X164583965Y-78823347D01*
X164569515Y-78841259D01*
X164568899Y-78842090D01*
X164556149Y-78860834D01*
X164555590Y-78861734D01*
X164544540Y-78881310D01*
X164544054Y-78882263D01*
X164534704Y-78902671D01*
X164534301Y-78903657D01*
X164526651Y-78924897D01*
X164526338Y-78925896D01*
X164520388Y-78947969D01*
X164520163Y-78948957D01*
X164515913Y-78971861D01*
X164515773Y-78972821D01*
X164513223Y-78996558D01*
X164513158Y-78997476D01*
X164512732Y-79009785D01*
X164287268Y-79009785D01*
X164286842Y-78997476D01*
X164286777Y-78996558D01*
X164284227Y-78972821D01*
X164284087Y-78971861D01*
X164279837Y-78948957D01*
X164279612Y-78947969D01*
X164273662Y-78925896D01*
X164273349Y-78924897D01*
X164265699Y-78903657D01*
X164265296Y-78902671D01*
X164255946Y-78882263D01*
X164255460Y-78881310D01*
X164244410Y-78861734D01*
X164243851Y-78860834D01*
X164231101Y-78842090D01*
X164230485Y-78841259D01*
X164216035Y-78823347D01*
X164215378Y-78822595D01*
X164205727Y-78812389D01*
X164400000Y-78475426D01*
X164594273Y-78812389D01*
G37*
%TD.AperFunction*%
%TD*%
D20*
%TO.N,/P14*%
X163594273Y-78182389D02*
X163584622Y-78192595D01*
X163583965Y-78193347D01*
X163569515Y-78211259D01*
X163568899Y-78212090D01*
X163556149Y-78230834D01*
X163555590Y-78231734D01*
X163544540Y-78251310D01*
X163544054Y-78252263D01*
X163534704Y-78272671D01*
X163534301Y-78273657D01*
X163526651Y-78294897D01*
X163526338Y-78295896D01*
X163520388Y-78317969D01*
X163520163Y-78318957D01*
X163515913Y-78341861D01*
X163515773Y-78342821D01*
X163513223Y-78366558D01*
X163513158Y-78367476D01*
X163512732Y-78379785D01*
X163287268Y-78379785D01*
X163286842Y-78367476D01*
X163286777Y-78366558D01*
X163284227Y-78342821D01*
X163284087Y-78341861D01*
X163279837Y-78318957D01*
X163279612Y-78317969D01*
X163273662Y-78295896D01*
X163273349Y-78294897D01*
X163265699Y-78273657D01*
X163265296Y-78272671D01*
X163255946Y-78252263D01*
X163255460Y-78251310D01*
X163244410Y-78231734D01*
X163243851Y-78230834D01*
X163231101Y-78212090D01*
X163230485Y-78211259D01*
X163216035Y-78193347D01*
X163215378Y-78192595D01*
X163205727Y-78182389D01*
X163400000Y-77845426D01*
X163594273Y-78182389D01*
%TA.AperFunction,Conductor*%
D19*
G36*
X163594273Y-78182389D02*
G01*
X163584622Y-78192595D01*
X163583965Y-78193347D01*
X163569515Y-78211259D01*
X163568899Y-78212090D01*
X163556149Y-78230834D01*
X163555590Y-78231734D01*
X163544540Y-78251310D01*
X163544054Y-78252263D01*
X163534704Y-78272671D01*
X163534301Y-78273657D01*
X163526651Y-78294897D01*
X163526338Y-78295896D01*
X163520388Y-78317969D01*
X163520163Y-78318957D01*
X163515913Y-78341861D01*
X163515773Y-78342821D01*
X163513223Y-78366558D01*
X163513158Y-78367476D01*
X163512732Y-78379785D01*
X163287268Y-78379785D01*
X163286842Y-78367476D01*
X163286777Y-78366558D01*
X163284227Y-78342821D01*
X163284087Y-78341861D01*
X163279837Y-78318957D01*
X163279612Y-78317969D01*
X163273662Y-78295896D01*
X163273349Y-78294897D01*
X163265699Y-78273657D01*
X163265296Y-78272671D01*
X163255946Y-78252263D01*
X163255460Y-78251310D01*
X163244410Y-78231734D01*
X163243851Y-78230834D01*
X163231101Y-78212090D01*
X163230485Y-78211259D01*
X163216035Y-78193347D01*
X163215378Y-78192595D01*
X163205727Y-78182389D01*
X163400000Y-77845426D01*
X163594273Y-78182389D01*
G37*
%TD.AperFunction*%
%TD*%
D20*
%TO.N,/P14*%
X162959368Y-84283230D02*
X162960763Y-84284291D01*
X162969177Y-84289816D01*
X162970481Y-84290565D01*
X162980258Y-84295440D01*
X162981421Y-84295949D01*
X162992559Y-84300174D01*
X162993571Y-84300511D01*
X163006072Y-84304086D01*
X163006942Y-84304301D01*
X163020805Y-84307226D01*
X163021550Y-84307361D01*
X163036775Y-84309636D01*
X163037414Y-84309714D01*
X163054001Y-84311339D01*
X163054550Y-84311381D01*
X163072499Y-84312356D01*
X163072974Y-84312373D01*
X163079800Y-84312488D01*
X163079800Y-84537512D01*
X163072974Y-84537627D01*
X163072499Y-84537644D01*
X163054550Y-84538619D01*
X163054001Y-84538661D01*
X163037414Y-84540286D01*
X163036775Y-84540364D01*
X163021550Y-84542639D01*
X163020805Y-84542774D01*
X163006942Y-84545699D01*
X163006072Y-84545914D01*
X162993571Y-84549489D01*
X162992559Y-84549826D01*
X162981421Y-84554051D01*
X162980258Y-84554560D01*
X162970481Y-84559435D01*
X162969177Y-84560184D01*
X162960763Y-84565709D01*
X162959368Y-84566770D01*
X162959152Y-84566959D01*
X162712926Y-84425000D01*
X162959152Y-84283041D01*
X162959368Y-84283230D01*
%TA.AperFunction,Conductor*%
D19*
G36*
X162959368Y-84283230D02*
G01*
X162960763Y-84284291D01*
X162969177Y-84289816D01*
X162970481Y-84290565D01*
X162980258Y-84295440D01*
X162981421Y-84295949D01*
X162992559Y-84300174D01*
X162993571Y-84300511D01*
X163006072Y-84304086D01*
X163006942Y-84304301D01*
X163020805Y-84307226D01*
X163021550Y-84307361D01*
X163036775Y-84309636D01*
X163037414Y-84309714D01*
X163054001Y-84311339D01*
X163054550Y-84311381D01*
X163072499Y-84312356D01*
X163072974Y-84312373D01*
X163079800Y-84312488D01*
X163079800Y-84537512D01*
X163072974Y-84537627D01*
X163072499Y-84537644D01*
X163054550Y-84538619D01*
X163054001Y-84538661D01*
X163037414Y-84540286D01*
X163036775Y-84540364D01*
X163021550Y-84542639D01*
X163020805Y-84542774D01*
X163006942Y-84545699D01*
X163006072Y-84545914D01*
X162993571Y-84549489D01*
X162992559Y-84549826D01*
X162981421Y-84554051D01*
X162980258Y-84554560D01*
X162970481Y-84559435D01*
X162969177Y-84560184D01*
X162960763Y-84565709D01*
X162959368Y-84566770D01*
X162959152Y-84566959D01*
X162712926Y-84425000D01*
X162959152Y-84283041D01*
X162959368Y-84283230D01*
G37*
%TD.AperFunction*%
%TD*%
M02*
